<svg width="100" height="100" viewBox="0 0 100 100" fill="none" xmlns="http://www.w3.org/2000/svg">
<path fill-rule="evenodd" clip-rule="evenodd" d="M71.4742 8.67578C68.5152 8.67578 66.1168 11.0742 66.1168 14.0332C66.1168 16.9922 68.5152 19.3906 71.4742 19.3906C74.4332 19.3906 76.8316 16.9922 76.8316 14.0332C76.8316 11.0742 74.4332 8.67578 71.4742 8.67578ZM85.8922 68.0273C86.7965 69.5918 88.5406 69.8789 90.0836 69.1074L94.3765 66.6289C95.8277 65.791 96.3297 63.9023 95.4937 62.4531L83.0386 40.8789C82.107 39.3438 80.3297 38.8516 78.7515 39.752L74.4879 42.2129C73.0484 43.043 72.5484 44.9141 73.3785 46.3535C77.5504 53.5781 81.7203 60.8027 85.8922 68.0273ZM28.8883 86.7129C30.3726 87.5352 32.2203 87.0234 33.0386 85.6035L38.5562 76.0469C39.3883 74.6074 38.8785 72.7266 37.441 71.8965C36.0015 71.0664 34.1226 71.5664 33.2906 73.0059C31.4664 76.1641 29.6441 79.3223 27.8199 82.4824C26.9801 83.959 27.355 85.7891 28.8863 86.7129H28.8883ZM66.6461 88.543C65.8394 89.9395 63.8941 90.5156 62.4957 89.6543L57.8316 86.9609C57.3668 86.6914 56.7691 86.8496 56.4996 87.3164C56.2301 87.7812 56.3883 88.3789 56.8551 88.6484L58.9488 89.8574C60.3707 90.6797 60.8804 92.5254 60.0718 93.9844C59.2281 95.4453 57.3531 95.9512 55.9117 95.123L50.2222 91.8379L53.4 86.3359C54.773 83.959 53.9547 80.8965 51.5465 79.5078C50.5074 78.9277 49.3824 78.752 48.3199 78.918C49.1187 76.666 48.189 74.1348 46.0836 72.9219C44.3707 71.9629 42.2906 72.0859 40.7261 73.1973C40.3883 71.9824 39.5933 70.8906 38.4195 70.2129C36.7281 69.2363 34.6168 69.3457 33.0328 70.4707C32.6949 69.2559 31.9 68.1641 30.6968 67.4707C28.3863 66.1777 25.0972 66.9414 23.8863 69.3652L21.3902 73.6895C20.5972 72.8906 19.8609 72.0644 19.1461 71.1836C18.275 70.1094 17.4332 68.9551 16.5621 67.6758L27.3687 48.957C31.1343 50.9453 34.6402 51.5898 37.939 52.1973C39.1324 52.416 40.2984 52.6309 41.4312 52.9062L36.8218 57.5156C35.5777 58.7598 35.5777 60.8066 36.8218 62.0508C39.3863 64.6152 44.1617 64.2871 46.6949 61.7539L49.6109 58.8379L53.4234 58.9531C57.0015 62.582 60.6246 64.2305 63.7886 64.8555L78.7105 73.4707C80.1324 74.291 80.6617 76.168 79.8199 77.625C78.9879 79.0664 77.107 79.5664 75.6656 78.7344C72.3941 76.8457 69.1226 74.957 65.8511 73.0684C65.3863 72.8008 64.7906 72.9609 64.523 73.4277C64.2554 73.8926 64.4156 74.4883 64.8824 74.7559L72.0679 78.9043C73.4957 79.791 74.0953 81.5898 73.232 83.0859C72.4 84.5273 70.5211 85.0332 69.0777 84.1992C66.6636 82.8066 64.2515 81.4121 61.8375 80.0195C61.3726 79.752 60.7769 79.9121 60.5093 80.3789C60.2418 80.8438 60.4019 81.4395 60.8687 81.707L65.4801 84.3691C66.9058 85.2559 67.5074 87.0586 66.6441 88.5527L66.6461 88.543ZM72.6637 62.1367C72.648 62.1602 69.1656 63.9941 64.3941 62.9883C60.5211 62.2734 57.2418 60.125 54.5445 57.3105C54.3511 57.1094 54.0914 57.0098 53.8336 57.0117L49.2398 56.873C48.9742 56.8652 48.7125 56.9668 48.523 57.1562L45.3121 60.3672C43.5347 62.1445 40.0074 62.4688 38.2008 60.6641C37.7164 60.1797 37.7164 59.3769 38.2008 58.8926L44.0582 53.0352C45.0953 51.9981 46.2008 51.3574 47.6187 50.9785L55.0855 48.9785C56.8804 48.498 58.5523 48.6152 60.2613 49.3438L62.2105 50.1719C63.4078 50.6797 64.6129 50.9492 65.8336 50.9805C67.0523 51.0117 68.2691 50.8027 69.4879 50.3555C70.5523 49.9648 71.6031 49.502 72.6363 48.9551L83.4449 67.6758C82.3922 69.2207 81.3101 70.6895 80.1187 72.0664C79.98 71.9648 79.8336 71.8711 79.6812 71.7812L68.1832 65.1426C71.3941 64.9394 73.4937 63.9004 73.5074 63.8945C73.9918 63.6621 74.1969 63.082 73.9644 62.5977C73.732 62.1133 73.1519 61.9082 72.6675 62.1406L72.6637 62.1367ZM26.6226 46.3535C27.4527 44.9141 26.9527 43.043 25.5133 42.2129L21.2496 39.752C19.7672 38.9062 17.9234 39.2891 17.025 40.7754L4.50739 62.4531C3.6695 63.9043 4.17146 65.791 5.62263 66.6289L9.9156 69.1074C11.4566 69.8769 13.2066 69.5859 14.107 68.0273C18.2789 60.8027 22.4488 53.5781 26.6207 46.3535H26.6226ZM29.7418 69.168C31.1793 70.0371 31.6695 71.8379 30.9019 73.2559L26.8336 80.3066C26.0172 81.7207 24.1832 82.2344 22.691 81.4199C21.0172 80.4082 20.8902 78.7734 21.6148 77.1836C22.9332 74.9004 24.2496 72.6191 25.5679 70.3359C26.5035 68.9199 28.1187 68.2852 29.7418 69.168ZM35.8355 90.7285C34.3941 89.8965 33.8941 88.0156 34.7242 86.5742C36.8121 82.959 38.898 79.3457 40.984 75.7324C41.8043 74.3105 43.6558 73.8008 45.1129 74.6094C46.5211 75.4238 47.1207 77.3516 46.2476 78.7715C44.1617 82.3848 42.0738 86 39.9879 89.6133C39.1558 91.0547 37.2769 91.5586 35.8355 90.7266V90.7285ZM50.5894 81.2051C48.941 80.3086 47.3687 80.9688 46.4136 82.3809L42.3668 89.3906C41.6051 90.8223 42.1207 92.6406 43.5269 93.4531C44.9781 94.291 46.8375 93.7773 47.6812 92.3398L51.7086 85.3594C52.5289 83.9375 52.0504 82.0879 50.5875 81.2051H50.5894ZM49.9996 20.4473C42.691 20.5566 36.6207 26.0371 35.5855 33.0957C35.3785 34.5098 35.9586 35.834 37.1383 36.6387C41.0465 39.3086 46.8082 40.3418 49.9976 40.3418C53.1871 40.3418 58.9508 39.3066 62.857 36.6387C64.0367 35.832 64.6168 34.5098 64.4097 33.0957C63.3746 26.0371 57.3062 20.5566 49.9957 20.4473H49.9996ZM49.9996 4.48242C46.2398 4.48242 43.191 7.53125 43.191 11.291C43.191 15.0508 46.2398 18.0996 49.9996 18.0996C53.7593 18.0996 56.8082 15.0508 56.8082 11.291C56.8082 7.53125 53.7593 4.48242 49.9996 4.48242ZM28.525 20.8691C31.9351 20.9199 35.0015 22.457 37.1031 24.8574C35.3179 27.1035 34.0914 29.8223 33.6539 32.8125C33.5074 33.8145 33.6265 34.8008 33.9781 35.6914C31.9332 36.2734 29.9176 36.5234 28.525 36.5234C26.0152 36.5234 21.48 35.709 18.4058 33.6094C17.4761 32.9746 17.0211 31.9336 17.1832 30.8203C17.9976 25.2656 22.773 20.9531 28.525 20.8672V20.8691ZM71.4722 20.8691C77.2242 20.9551 81.9996 25.2676 82.814 30.8223C82.9781 31.9355 82.5211 32.9766 81.5914 33.6113C78.5172 35.7109 73.982 36.5254 71.4722 36.5254C70.0797 36.5254 68.064 36.2754 66.0191 35.6934C66.3707 34.8027 66.4898 33.8164 66.3433 32.8145C65.9058 29.8242 64.6793 27.1055 62.8941 24.8594C64.9957 22.459 68.0621 20.9219 71.4722 20.8711V20.8691ZM28.525 8.67578C25.566 8.67578 23.1676 11.0742 23.1676 14.0332C23.1676 16.9922 25.566 19.3906 28.525 19.3906C31.484 19.3906 33.8824 16.9922 33.8824 14.0332C33.8824 11.0742 31.484 8.67578 28.525 8.67578Z" fill="#6C8DAB"/>
</svg>
