<svg width="100" height="100" viewBox="0 0 100 100" fill="none" xmlns="http://www.w3.org/2000/svg">
<g clip-path="url(#clip0_1513_9843)">
<path d="M97.4494 39.1193L90.1586 37.6613C89.3564 35.0025 88.2934 32.4354 86.9838 29.9939L91.1074 23.8086C91.8822 22.6465 91.7291 21.0992 90.7414 20.1119L79.693 9.06328C78.7055 8.07578 77.1582 7.92266 75.9963 8.69707L69.8105 12.8207C67.3693 11.5113 64.8021 10.4484 62.1432 9.64609L60.6852 2.35508C60.4115 0.985742 59.209 0 57.8125 0H42.1875C40.791 0 39.5885 0.985742 39.3146 2.35508L37.8566 9.64609C35.1977 10.4484 32.6305 11.5115 30.1893 12.8207L24.0035 8.69707C22.8418 7.92266 21.2943 8.07578 20.3068 9.06328L9.2584 20.1119C8.2707 21.0994 8.11758 22.6467 8.89238 23.8086L13.016 29.9939C11.7064 32.4354 10.6436 35.0025 9.84121 37.6613L2.55039 39.1193C1.18105 39.3932 0.195312 40.5957 0.195312 41.9922V57.6172C0.195312 59.0137 1.18105 60.2162 2.55059 60.4898L9.84141 61.948C10.6436 64.6066 11.7066 67.1738 13.0162 69.6152L8.89258 75.8008C8.11777 76.9627 8.27109 78.51 9.25859 79.4975L20.307 90.5459C21.2947 91.5336 22.8418 91.6867 24.0037 90.9121L30.0627 86.873V68.4814C25.4744 63.5977 22.6562 57.0361 22.6562 49.8047C22.6562 34.7031 34.8984 22.4609 50 22.4609C65.1016 22.4609 77.3438 34.7031 77.3438 49.8047C77.3438 57.0361 74.5256 63.5977 69.9373 68.4814V86.873L75.9963 90.9121C76.492 91.2426 77.0578 91.4043 77.6203 91.4043C78.3764 91.4043 79.1268 91.1123 79.6928 90.5461L90.7412 79.4977C91.7287 78.5102 91.882 76.9629 91.1072 75.801L86.9836 69.6154C88.2932 67.174 89.3561 64.6068 90.1584 61.9482L97.4492 60.49C98.8189 60.2162 99.8047 59.0137 99.8047 57.6172V41.9922C99.8047 40.5957 98.8189 39.3932 97.4494 39.1193Z" fill="#6C8DAB"/>
<path d="M59.2811 33.7522C57.8066 32.8981 55.9359 33.8044 55.6924 35.4907L53.9062 47.8516H46.0938L44.3078 35.4907C44.0641 33.8044 42.1936 32.8981 40.7191 33.7522C34.9986 37.0657 31.4453 43.2169 31.4453 49.8048C31.4453 56.9438 35.4434 63.3302 41.8791 66.4714L42.1875 66.622V97.0704C42.1875 98.6884 43.4992 100 45.1172 100H54.8828C56.5008 100 57.8125 98.6884 57.8125 97.0704V66.622L58.1209 66.4714C64.5566 63.3302 68.5547 56.9438 68.5547 49.8048C68.5547 43.2169 65.0014 37.0657 59.2811 33.7522Z" fill="#6C8DAB"/>
</g>
<defs>
<clipPath id="clip0_1513_9843">
<rect width="100" height="100" fill="white"/>
</clipPath>
</defs>
</svg>
