<svg width="100" height="100" viewBox="0 0 100 100" fill="none" xmlns="http://www.w3.org/2000/svg">
<path fill-rule="evenodd" clip-rule="evenodd" d="M67.2996 95.7136C66.7326 96.5263 65.7908 97.0591 64.7267 97.0591H6.07631C4.35317 97.0591 2.94141 95.6528 2.94141 93.9241V16.5924C2.94141 14.8638 4.34768 13.4577 6.07631 13.4577H17.7102V18.3547H9.21101C8.45297 18.3547 7.83846 18.9692 7.83846 19.7273V90.7894C7.83846 91.5475 8.45297 92.162 9.21101 92.162H61.592C61.9018 92.162 62.1879 92.0592 62.4175 91.8859C63.9565 93.3212 65.6091 94.6057 67.2996 95.7136ZM60.0216 89.4169H10.5836V21.0998H18.0775C18.5522 21.9204 19.4392 22.4724 20.4553 22.4724H50.3532C51.3692 22.4724 52.2563 21.9204 52.731 21.0998H60.2194V52.1281C58.8591 52.5132 57.4336 52.7847 55.9526 52.9022C54.5251 53.0153 53.4244 54.2067 53.4244 55.6387V73.5018C53.4244 79.4251 56.1075 84.9461 60.0216 89.4169ZM27.6473 73.5296C27.6473 72.7716 27.0328 72.1571 26.2747 72.1571H17.0591C16.301 72.1571 15.6865 72.7716 15.6865 73.5296V82.7453C15.6865 83.5034 16.301 84.1179 17.0591 84.1179H26.2747C27.0328 84.1179 27.6473 83.5034 27.6473 82.7453V73.5296ZM24.9022 74.9022V81.3728H18.4316V74.9022H24.9022ZM33.1375 50.9806H50.3532C51.1106 50.9806 51.7257 50.3655 51.7257 49.6081C51.7257 48.8506 51.1106 48.2355 50.3532 48.2355H33.1375C32.38 48.2355 31.7649 48.8506 31.7649 49.6081C31.7649 50.3655 32.38 50.9806 33.1375 50.9806ZM33.1375 81.3728H50.3532C51.1106 81.3728 51.7257 80.7577 51.7257 80.0002C51.7257 79.2428 51.1106 78.6277 50.3532 78.6277H33.1375C32.38 78.6277 31.7649 79.2428 31.7649 80.0002C31.7649 80.7577 32.38 81.3728 33.1375 81.3728ZM27.6473 27.8434C27.6473 27.0853 27.0328 26.4708 26.2747 26.4708H17.0591C16.301 26.4708 15.6865 27.0853 15.6865 27.8434V37.0591C15.6865 37.8171 16.301 38.4316 17.0591 38.4316H26.2747C27.0328 38.4316 27.6473 37.8171 27.6473 37.0591V27.8434ZM24.9022 29.2159V35.6865H18.4316V29.2159H24.9022ZM33.1375 35.7845H50.3532C51.1106 35.7845 51.7257 35.1694 51.7257 34.412C51.7257 33.6545 51.1106 33.0394 50.3532 33.0394H33.1375C32.38 33.0394 31.7649 33.6545 31.7649 34.412C31.7649 35.1694 32.38 35.7845 33.1375 35.7845ZM33.1375 66.1767H50.3532C51.1106 66.1767 51.7257 65.5616 51.7257 64.8042C51.7257 64.0467 51.1106 63.4316 50.3532 63.4316H33.1375C32.38 63.4316 31.7649 64.0467 31.7649 64.8042C31.7649 65.5616 32.38 66.1767 33.1375 66.1767ZM27.6473 58.3008C27.6473 57.5428 27.0328 56.9283 26.2747 56.9283H17.0591C16.301 56.9283 15.6865 57.5428 15.6865 58.3008V67.5165C15.6865 68.2745 16.301 68.8891 17.0591 68.8891H26.2747C27.0328 68.8891 27.6473 68.2745 27.6473 67.5165V58.3008ZM24.9022 59.6734V66.144H18.4316V59.6734H24.9022ZM27.6473 43.0722C27.6473 42.3142 27.0328 41.6996 26.2747 41.6996H17.0591C16.301 41.6996 15.6865 42.3142 15.6865 43.0722V52.2879C15.6865 53.0459 16.301 53.6604 17.0591 53.6604H26.2747C27.0328 53.6604 27.6473 53.0459 27.6473 52.2879V43.0722ZM24.9022 44.4447V50.9153H18.4316V44.4447H24.9022ZM62.9645 51.172V19.7273C62.9645 18.9692 62.35 18.3547 61.592 18.3547H53.0983V13.4577H64.7267C66.4553 13.4577 67.8616 14.8638 67.8616 16.5924V48.5653C66.3904 49.5269 64.7491 50.434 62.9645 51.172ZM20.4553 10.6194C20.4553 10.3594 20.5587 10.11 20.7426 9.92631C20.9265 9.74239 21.1757 9.63905 21.4357 9.63905H28.7094C28.7094 5.93729 31.7053 2.94141 35.4016 2.94141C39.0977 2.94141 42.0993 5.93729 42.0993 9.63905H49.3728C49.6328 9.63905 49.8822 9.74239 50.0661 9.92631C50.2498 10.11 50.3532 10.3594 50.3532 10.6194V19.7273H20.4553V10.6194ZM35.4016 11.401C36.3742 11.401 37.1691 10.6118 37.1691 9.63905C37.1691 8.66631 36.3742 7.8716 35.4016 7.8716C34.4289 7.8716 33.6396 8.66631 33.6396 9.63905C33.6396 10.6118 34.4289 11.401 35.4016 11.401ZM56.1694 56.5247C56.1694 56.0247 56.5459 55.6047 57.043 55.5502C62.391 54.9289 67.0561 52.5496 70.6257 50.0002H82.603C86.1726 52.5496 90.8375 54.9289 96.1851 55.553C96.6808 55.6075 97.0561 56.0261 97.0561 56.5247C97.0591 60.1294 97.0591 73.5018 97.0591 73.5018C97.0591 85.0291 85.3596 94.7136 76.6143 97.0591C67.8716 94.7136 56.1694 85.0291 56.1694 73.5018V56.5247ZM76.2043 93.4145C76.4712 93.4981 76.7573 93.4981 77.0243 93.4145C81.7881 91.9236 86.8808 88.29 90.1883 83.7363C92.4532 80.6179 93.8781 77.0732 93.8781 73.4989V59.6208C93.8781 58.9577 93.404 58.3894 92.7516 58.2706C88.8822 57.5655 85.2443 55.9081 81.9861 53.6991C81.7589 53.5449 81.4904 53.4626 81.2159 53.4626H72.0151C71.7408 53.4626 71.4726 53.5449 71.2453 53.6989C67.9845 55.9079 64.3465 57.5655 60.4771 58.2706C59.8245 58.3894 59.3506 58.9577 59.3506 59.6208V73.4989C59.3506 77.072 60.7753 80.6167 63.0402 83.7351C66.3477 88.2891 71.4404 91.9236 76.2043 93.4145ZM76.6143 90.6608C72.4742 89.2512 68.1249 86.0647 65.2614 82.122C63.3494 79.4893 62.0957 76.5153 62.0957 73.4989V60.7406C65.783 59.9034 69.2673 58.2994 72.4322 56.2077C72.432 56.2077 80.7989 56.2077 80.7989 56.2077C83.9614 58.2994 87.4455 59.9034 91.133 60.7406V73.4989C91.133 76.5163 89.8792 79.4904 87.9671 82.1232C85.1038 86.0655 80.7543 89.2512 76.6143 90.6608ZM71.5108 75.8863V80.1963C71.5108 80.9543 72.1253 81.5689 72.8834 81.5689H80.3453C81.1034 81.5689 81.7179 80.9543 81.7179 80.1963V75.8863H86.0279C86.7859 75.8863 87.4004 75.2718 87.4004 74.5138V67.0518C87.4004 66.2938 86.7859 65.6793 86.0279 65.6793H81.7179V61.3692C81.7179 60.6112 81.1034 59.9967 80.3453 59.9967H72.8834C72.1253 59.9967 71.5108 60.6112 71.5108 61.3692V65.6793H67.2008C66.4428 65.6793 65.8283 66.2938 65.8283 67.0518V74.5138C65.8283 75.2718 66.4428 75.8863 67.2008 75.8863H71.5108ZM74.2559 74.5138C74.2559 73.7557 73.6414 73.1412 72.8834 73.1412H68.5734V68.4244H72.8834C73.6414 68.4244 74.2559 67.8098 74.2559 67.0518V62.7418H78.9728V67.0518C78.9728 67.8098 79.5873 68.4244 80.3453 68.4244H84.6553V73.1412H80.3453C79.5873 73.1412 78.9728 73.7557 78.9728 74.5138V78.8238H74.2559V74.5138Z" fill="#6C8DAB"/>
</svg>
