<svg width="100" height="100" viewBox="0 0 100 100" fill="none" xmlns="http://www.w3.org/2000/svg">
<path fill-rule="evenodd" clip-rule="evenodd" d="M46.8712 66.6402H64.5396C65.9951 66.6402 67.1855 67.8304 67.1855 69.2823V74.9872C67.1855 76.4429 65.9951 77.6331 64.5396 77.6331H61.8255V80.2827C61.8255 81.6512 60.7033 82.7733 59.3312 82.7733H52.0833C50.7112 82.7733 49.589 81.6512 49.589 80.2827V77.6331H46.8712C45.4194 77.6331 44.229 76.4429 44.229 74.9872V69.2823C44.229 67.8304 45.4194 66.6402 46.8712 66.6402ZM57.0798 85.5184V89.3063C78.131 88.5821 94.999 71.2645 94.999 50.0382C94.999 46.0653 94.408 42.2294 93.3096 38.6137C89.879 40.3896 85.679 40.5718 81.95 38.7374C78.0425 36.8155 75.5731 33.1323 75.028 29.1155C78.5271 27.1445 82.9074 26.8749 86.7798 28.7798C88.1029 29.4306 89.2614 30.2833 90.2357 31.2827C83.5733 19.0529 70.6027 10.7465 55.7072 10.7465C34.0216 10.7465 16.4155 28.3523 16.4155 50.0382C16.4155 52.658 16.6723 55.2184 17.1623 57.6953C16.0363 58.2612 15.2168 59.348 15.021 60.6392C14.1396 57.2521 13.6704 53.6994 13.6704 50.0382C13.6704 26.8374 32.5065 8.00136 55.7072 8.00136C67.3947 8.00136 77.9747 12.7814 85.5968 20.4914C84.2245 17.6016 83.9447 14.1916 85.0823 10.9359C86.5188 6.82508 89.8768 3.9292 93.7986 2.90332C96.1774 6.13901 96.9737 10.4547 95.55 14.5288C94.1804 18.4486 91.0633 21.2637 87.3765 22.4063C93.8316 29.797 97.7441 39.4643 97.7441 50.0382C97.7441 73.239 78.908 92.0751 55.7072 92.0751C54.9492 92.0751 54.3347 91.4606 54.3347 90.7025V85.5184H57.0798ZM46.7339 63.8968C45.1021 52.7078 39.7182 53.1206 39.7182 44.3018C39.7182 35.4731 46.8749 28.3125 55.7072 28.3125C64.5357 28.3125 71.6963 35.4731 71.6963 44.3018C71.6963 53.1208 66.3121 52.7078 64.6804 63.8968C64.6337 63.8957 64.5867 63.8951 64.5396 63.8951H46.8712C46.8253 63.8951 46.7796 63.8957 46.7339 63.8968ZM55.6296 42.3349L57.1572 35.4002C57.1933 35.2357 57.1074 35.0688 56.9523 35.0029C56.7974 34.937 56.6174 34.9908 56.5241 35.131L49.7341 45.33C49.6108 45.5151 49.5994 45.7531 49.7045 45.9492C49.8094 46.1453 50.0139 46.2676 50.2363 46.2676H55.7819L54.2543 53.2031C54.218 53.3676 54.3041 53.5345 54.459 53.6006C54.6139 53.6665 54.7939 53.6125 54.8872 53.4725L61.6804 43.2727C61.8037 43.0874 61.8151 42.8496 61.71 42.6533C61.6051 42.4572 61.4006 42.3349 61.178 42.3349H55.6296ZM38.1127 81.6298C34.4627 81.6298 32.63 86.0527 35.2116 88.6343C35.6867 89.1094 35.6867 89.8823 35.2116 90.3574L32.5906 92.9784C32.1155 93.4535 31.3425 93.4535 30.8674 92.9784C28.2859 90.3968 23.8629 92.2296 23.8629 95.8796C23.8629 96.5539 23.3176 97.097 22.6455 97.097H18.9386C18.2663 97.097 17.7212 96.5539 17.7212 95.8796C17.7212 92.2251 13.3004 90.3947 10.7167 92.9784C10.2416 93.4535 9.47077 93.4535 8.99567 92.9784L6.37253 90.3574C5.89744 89.8823 5.89744 89.1094 6.37253 88.6343C8.9541 86.0527 7.12351 81.6298 3.47136 81.6298C2.7992 81.6298 2.25391 81.0845 2.25391 80.4123V76.7055C2.25391 76.0331 2.7992 75.488 3.47136 75.488C7.12351 75.488 8.9541 71.0651 6.37253 68.4835C5.89744 68.0084 5.89744 67.2376 6.37253 66.7625L8.99567 64.1394C9.47077 63.6643 10.2416 63.6643 10.7167 64.1394C13.2982 66.721 17.7212 64.8904 17.7212 61.2382C17.7212 60.5661 18.2663 60.0208 18.9386 60.0208H22.6455C23.3176 60.0208 23.8629 60.5661 23.8629 61.2382C23.8629 64.8904 28.2859 66.721 30.8674 64.1394C31.3425 63.6643 32.1155 63.6643 32.5906 64.1394L35.2116 66.7625C35.6867 67.2376 35.6867 68.0084 35.2116 68.4835C32.63 71.0651 34.4627 75.488 38.1127 75.488C38.787 75.488 39.3302 76.0331 39.3302 76.7055V80.4123C39.3302 81.0845 38.787 81.6298 38.1127 81.6298ZM20.7931 88.8398C26.4535 88.8398 31.0729 84.2204 31.0729 78.56C31.0729 72.897 26.4535 68.2802 20.7931 68.2802C15.1302 68.2802 10.5133 72.897 10.5133 78.56C10.5133 84.2204 15.1302 88.8398 20.7931 88.8398ZM20.7931 86.0947C16.6423 86.0947 13.2584 82.7088 13.2584 78.56C13.2584 74.4092 16.6423 71.0253 20.7931 71.0253C24.9419 71.0253 28.3278 74.4092 28.3278 78.56C28.3278 82.7088 24.9419 86.0947 20.7931 86.0947ZM19.4206 77.1872H17.0602C16.3025 77.1872 15.6876 77.8023 15.6876 78.5598C15.6876 79.3172 16.3025 79.9323 17.0602 79.9323H19.4206V82.2925C19.4206 83.05 20.0355 83.6651 20.7931 83.6651C21.5506 83.6651 22.1657 83.05 22.1657 82.2925V79.9323H24.5261C25.2835 79.9323 25.8986 79.3172 25.8986 78.5598C25.8986 77.8023 25.2835 77.1872 24.5261 77.1872H22.1657V74.8269C22.1657 74.0694 21.5506 73.4543 20.7931 73.4543C20.0355 73.4543 19.4206 74.0694 19.4206 74.8269V77.1872Z" fill="#6C8DAB"/>
</svg>
