<svg width="100" height="100" viewBox="0 0 100 100" fill="none" xmlns="http://www.w3.org/2000/svg">
<path d="M14.8438 75H20.625V98.4375H14.8438C13.9062 98.4375 13.2812 97.8125 13.2812 96.875V76.5625C13.2812 75.625 14.0625 75 14.8438 75Z" fill="#6C8DAB"/>
<path d="M85.625 76.0937L60.1562 96.25C59.2188 96.875 57.9687 97.1875 56.7187 96.875L31.5625 91.4062H31.4063C29.6875 91.0937 27.9687 91.5625 26.25 92.5L23.75 94.0625V79.0625L34.375 72.6562C35.3125 72.3437 36.25 72.3437 37.1875 72.6562L59.8437 80.7812C61.875 81.5625 62.6562 83.9062 61.4062 85.7812C60.4687 87.0312 58.9062 87.5 57.3438 86.875L43.9062 81.5625C43.125 81.25 42.1875 81.7187 41.875 82.5C41.5625 83.2812 42.0312 84.2187 42.8125 84.5312L56.25 89.6875C59.0625 90.9375 62.1875 90 63.9062 87.6562C65.1562 85.9375 65.625 83.75 64.6875 81.5625L79.5312 72.6562C81.0938 71.7187 82.9688 71.4062 84.6875 72.0312C87.0312 72.8125 87.1875 75 85.625 76.0937Z" fill="#6C8DAB"/>
<path d="M71.25 61.4062C71.25 63.9062 69.2187 66.0938 66.5625 66.0938H52.3438C49.8438 66.0938 47.6562 64.0625 47.6562 61.4062C47.6562 58.9062 49.6875 56.7188 52.3438 56.7188H66.5625C69.2187 56.875 71.25 58.9062 71.25 61.4062Z" fill="#6C8DAB"/>
<path d="M52.3438 69.2187C52.1875 69.2187 52.0312 69.2187 51.7188 69.2187L51.875 70.9375C52.0313 71.7188 52.6563 72.3437 53.4375 72.3437H65.625C66.4063 72.3437 67.0313 71.7188 67.1875 70.9375L67.3438 69.0625C67.0312 69.0625 66.7188 69.0625 66.4063 69.0625H52.3438V69.2187Z" fill="#6C8DAB"/>
<path d="M58.4394 14.2192C47.3456 14.688 38.1269 24.2192 37.9706 35.313C37.8144 47.9692 47.5019 52.9692 48.5956 54.5317C49.6894 53.9067 50.9394 53.5942 52.1894 53.5942C65.3144 53.9067 67.1894 52.9692 70.0019 54.5317C70.3144 54.063 70.7831 53.5942 71.4081 53.2817C77.1894 49.2192 80.7831 42.6567 80.7831 35.6255C80.9394 23.5942 70.7831 13.7505 58.4394 14.2192ZM71.5644 37.188C70.6269 37.188 70.0019 36.563 70.0019 35.6255C70.0019 29.688 65.0019 24.8442 59.0644 25.1567C58.1269 25.1567 57.5019 24.5317 57.5019 23.5942C57.5019 22.6567 58.1269 22.0317 59.0644 22.0317C66.8769 21.7192 73.2831 27.9692 73.2831 35.6255C73.1269 36.563 72.3456 37.188 71.5644 37.188Z" fill="#6C8DAB"/>
<path d="M59.5312 10.7812C58.5937 10.7812 57.9688 10.1562 57.9688 9.21875V3.125C57.9688 2.1875 58.5937 1.5625 59.5312 1.5625C60.4688 1.5625 61.0938 2.1875 61.0938 3.125V9.21875C61.0938 10.1562 60.3125 10.7812 59.5312 10.7812Z" fill="#6C8DAB"/>
<path d="M48.4362 11.5621L46.0924 5.93713C45.7799 5.15588 46.0924 4.21838 46.8737 3.90588C47.6549 3.59338 48.5924 3.90588 48.9049 4.68713L51.2487 10.3121C51.5612 11.0934 51.2487 12.0309 50.4674 12.3434C49.6862 12.8121 48.7487 12.4996 48.4362 11.5621Z" fill="#6C8DAB"/>
<path d="M40.625 17.5L36.25 13.125C35.625 12.5 35.625 11.5625 36.25 10.9375C36.875 10.3125 37.8125 10.3125 38.4375 10.9375L42.8125 15.3125C43.4375 15.9375 43.4375 16.875 42.8125 17.5C42.1875 18.125 41.25 18.125 40.625 17.5Z" fill="#6C8DAB"/>
<path d="M76.0938 17.8125C75.4688 17.1875 75.4688 16.25 76.0938 15.625L80.4687 11.25C81.0937 10.625 82.0313 10.625 82.6563 11.25C83.2813 11.875 83.2813 12.8125 82.6563 13.4375L78.2812 17.8125C77.6562 18.4375 76.7188 18.4375 76.0938 17.8125Z" fill="#6C8DAB"/>
<path d="M68.437 12.6558C67.6558 12.3433 67.187 11.4058 67.6558 10.6245L69.9995 4.99952C70.312 4.21827 71.2495 3.74952 72.0308 4.21827C72.812 4.53077 73.2808 5.46827 72.812 6.24952L70.4683 11.8745C70.1558 12.6558 69.2183 12.9683 68.437 12.6558Z" fill="#6C8DAB"/>
</svg>
