<svg width="100" height="100" viewBox="0 0 100 100" fill="none" xmlns="http://www.w3.org/2000/svg">
<path d="M97.4609 43.368L85.8563 36.668C85.6781 36.5652 85.4762 36.5109 85.2703 36.5109H69.6943C69.0473 36.5109 68.5225 37.0357 68.5225 37.6828V66.5441C68.5225 67.1912 69.0473 67.716 69.6943 67.716H73.1787C72.9799 68.2854 72.8375 68.8805 72.757 69.4951H37.1902C37.1096 68.8805 36.9672 68.2854 36.7686 67.716H64.6031C65.7463 67.716 66.676 66.7861 66.676 65.6432V30.7246C66.676 29.5814 65.7461 28.6518 64.6031 28.6518H35.3945V29.0053C32.2207 23.8229 26.5057 20.3574 19.9963 20.3574C10.0475 20.3574 1.95312 28.4516 1.95312 38.4006C1.95312 44.6264 5.12285 50.1256 9.9332 53.3699H9.70215V65.6434C9.70215 66.7865 10.632 67.7162 11.775 67.7162H14.4693V70.6672C14.4693 71.3143 14.9941 71.8391 15.6412 71.8391H19.3939C19.9703 76.2369 23.7397 79.6443 28.2922 79.6443C32.8447 79.6443 36.6141 76.2369 37.1904 71.8391H72.7572C73.3336 76.2369 77.1029 79.6443 81.6555 79.6443C86.208 79.6443 89.9773 76.2369 90.5537 71.8391H94.0437C94.6908 71.8391 95.2156 71.3143 95.2156 70.6672V67.7162H96.8754C97.5225 67.7162 98.0473 67.1914 98.0473 66.5443V44.383C98.0473 43.9643 97.8234 43.5773 97.4609 43.368ZM4.29688 38.4004C4.29688 29.7438 11.3396 22.701 19.9963 22.701C28.6529 22.701 35.6957 29.7438 35.6957 38.4004C35.6957 47.057 28.6529 54.0998 19.9963 54.0998C11.3396 54.0998 4.29688 47.0572 4.29688 38.4004ZM12.0459 54.5943C14.4459 55.7773 17.1445 56.4436 19.9963 56.4436C29.9451 56.4436 38.0395 48.3494 38.0395 38.4004C38.0395 35.7629 37.4705 33.2559 36.449 30.9953H64.3322V65.3723H35.5354C33.9004 63.1418 31.2631 61.6898 28.2922 61.6898C25.3213 61.6898 22.6838 63.1418 21.049 65.3723H12.0459V54.5943ZM16.8131 67.7158H19.8156C19.6168 68.2852 19.4744 68.8803 19.3939 69.4949H16.8131V67.7158ZM28.292 77.3002C24.6342 77.3002 21.6586 74.3246 21.6586 70.6668C21.6586 67.009 24.6342 64.0334 28.292 64.0334C31.9498 64.0334 34.9254 67.009 34.9254 70.6668C34.9254 74.3246 31.9498 77.3002 28.292 77.3002ZM81.6551 77.3002C77.9973 77.3002 75.0217 74.3246 75.0217 70.6668C75.0217 67.009 77.9973 64.0334 81.6551 64.0334C85.3129 64.0334 88.2885 67.009 88.2885 70.6668C88.2885 74.3246 85.3129 77.3002 81.6551 77.3002ZM92.8715 69.4949H90.5533C90.4727 68.8803 90.3303 68.2852 90.1316 67.7158H92.8715V69.4949ZM95.7031 65.3721H88.8984C87.2635 63.1416 84.6262 61.6896 81.6553 61.6896C78.6844 61.6896 76.0469 63.1416 74.4121 65.3721H70.8664V38.8549H84.9566L95.7033 45.0596L95.7031 65.3721ZM84.0193 41.468H75.0727C74.4256 41.468 73.9008 41.9928 73.9008 42.6398V52.5676C73.9008 53.2146 74.4256 53.7395 75.0727 53.7395H91.4967C92.1438 53.7395 92.6686 53.2146 92.6686 52.5676V46.9566C92.6686 46.5379 92.4451 46.1512 92.0826 45.9418L84.6053 41.6248C84.4271 41.5221 84.225 41.468 84.0193 41.468ZM90.3248 51.3957H76.2445V43.8117H83.7053L90.3248 47.6332V51.3957ZM81.6551 66.191C79.1871 66.191 77.1793 68.1988 77.1793 70.6668C77.1793 73.1348 79.1871 75.1428 81.6551 75.1428C84.1231 75.1428 86.1309 73.135 86.1309 70.6668C86.1309 68.1986 84.1231 66.191 81.6551 66.191ZM81.6551 72.799C80.4793 72.799 79.523 71.8426 79.523 70.6668C79.523 69.491 80.4793 68.5348 81.6551 68.5348C82.8309 68.5348 83.7871 69.491 83.7871 70.6668C83.7871 71.8426 82.8309 72.799 81.6551 72.799ZM28.292 66.191C25.8238 66.191 23.816 68.1988 23.816 70.6668C23.816 73.1348 25.8238 75.1428 28.292 75.1428C30.7602 75.1428 32.7678 73.135 32.7678 70.6668C32.7678 68.1986 30.76 66.191 28.292 66.191ZM28.292 72.799C27.1162 72.799 26.1598 71.8426 26.1598 70.6668C26.1598 69.491 27.1162 68.5348 28.292 68.5348C29.4678 68.5348 30.424 69.491 30.424 70.6668C30.424 71.8426 29.4678 72.799 28.292 72.799ZM30.0221 46.4865C30.0221 45.8395 29.4973 45.3146 28.8502 45.3146H27.0447V35.7363L28.8965 36.8055C29.0811 36.9119 29.2826 36.9627 29.4813 36.9627C29.8863 36.9627 30.2803 36.7525 30.4973 36.3766C30.8207 35.816 30.6289 35.0994 30.0684 34.7758L20.582 29.2988C20.2193 29.0895 19.7729 29.0895 19.4102 29.2988L9.92383 34.7758C9.36328 35.0994 9.17129 35.816 9.49492 36.3766C9.81855 36.9371 10.5352 37.1293 11.0957 36.8055L12.9477 35.7361V45.3145H11.142C10.4949 45.3145 9.97012 45.8393 9.97012 46.4863C9.97012 47.1334 10.4949 47.6582 11.142 47.6582H28.8502C29.4973 47.6582 30.0221 47.1336 30.0221 46.4865ZM15.2914 34.3832L19.9961 31.667L24.701 34.3834V45.3148H15.2914V34.3832Z" fill="#6C8DAB"/>
<path d="M64.5 31H36L37 34V41.5L33.5 49L26.5 55H12V65.5H21.5L28.5 63L35.5 66L64.5 65.5V31Z" fill="#6C8DAB"/>
<path d="M71.6977 40.8278C72.7234 40.8278 73.6769 40.6096 74.6977 40.6096C75.398 40.6096 75.2641 40.5005 74.6189 40.5005C73.8413 40.5005 72.9926 40.5794 72.2189 40.4763C72.1009 40.4605 71.1153 40.2735 71.1522 40.0641C71.2325 39.6095 73.684 39.846 74.0977 39.846C75.5054 39.846 76.9214 39.8928 78.328 39.846C78.5505 39.8385 78.6915 39.6604 78.9037 39.6338C79.3316 39.5803 79.775 39.589 80.2067 39.5429C81.1762 39.4395 82.1878 39.5187 83.1643 39.5187C83.4657 39.5187 85.3282 39.4007 84.1037 39.5793C82.6641 39.7892 81.2287 39.9594 79.7946 40.1732C78.9725 40.2958 78.1188 40.4774 77.3098 40.5005C76.0698 40.5359 79.8016 40.6121 81.031 40.446C82.0446 40.309 83.1115 40.3914 84.134 40.3914C84.9805 40.3914 87.5124 40.2856 86.6734 40.3975C86.2234 40.4575 85.7947 40.5702 85.3401 40.6157C85.1907 40.6306 84.6189 40.7628 84.6189 40.9611C84.6189 41.2571 85.8845 41.3382 86.0734 41.3732C86.5913 41.4693 87.0961 41.5914 87.6249 41.5914C87.9236 41.5914 88.2166 41.5639 88.4976 41.6763C88.7945 41.795 89.0823 42.067 89.3219 42.3066C89.8693 42.854 90.7314 43.2013 91.3825 43.6156C92.2852 44.1901 89.3444 42.9554 88.3037 42.7066C88.0109 42.6365 86.7689 42.4442 87.7946 42.646C88.7744 42.8387 89.7161 43.1314 90.637 43.5066C91.2552 43.7584 91.6621 44.0634 92.1643 44.4884C92.6746 44.9202 93.4606 45.2704 94.0613 45.5793C94.2515 45.6771 94.4549 45.7063 94.6128 45.8641C94.8586 46.11 94.8542 46.4546 95.0673 46.6944C95.2318 46.8795 95.3314 46.9953 95.3643 47.2581C95.4178 47.6861 95.0166 47.0347 94.934 46.9429C94.4736 46.4313 93.8975 46.0906 93.837 46.9368C93.7828 47.6964 93.734 48.4353 93.734 49.2035C93.734 51.4359 94.185 53.5786 94.6673 55.7489C94.7378 56.066 95.1067 57.8709 94.8006 58.1005C94.7077 58.1701 94.7278 57.877 94.7219 57.7611C94.701 57.3544 94.7158 56.9439 94.7158 56.5368C94.7158 55.6681 94.7158 54.7995 94.7158 53.9308C94.7158 52.4758 94.6067 48.1121 94.6067 49.5671C94.6067 52.0695 94.5413 54.5492 94.8855 57.0338C95.0323 58.0939 95.0431 59.1324 95.0431 60.1974C95.0431 61.6843 95.0431 63.1711 95.0431 64.658C95.0431 64.7911 95.1443 65.361 94.9219 65.361C94.5877 65.361 94.0465 65.208 93.7582 65.0459C93.1801 64.7207 92.5513 64.8277 91.8916 64.8277C91.5603 64.8277 91.2289 64.8277 90.8976 64.8277C90.4235 64.8277 89.3203 65.3133 90.2552 64.8883C91.1993 64.4592 91.9456 64.107 92.6673 63.3853C93.0889 62.9637 93.2784 62.4014 93.6613 61.9489C94.0167 61.5288 93.0851 61.6977 92.934 61.7126C91.899 61.8142 91.1502 62.0539 90.2431 62.5126C89.7373 62.7683 88.5426 63.1252 88.3946 63.7913C88.2681 64.3606 88.7151 64.5004 89.2128 64.5004C90.1016 64.5004 90.6804 64.6071 91.3946 64.0277C92.0142 63.525 93.0485 61.6956 92.3582 60.852C92.0069 60.4225 91.3229 60.5732 90.8491 60.5732C89.9103 60.5732 89.2138 61.2625 88.4734 61.7732C87.9571 62.1292 87.4664 62.8183 88.4188 62.858C89.4242 62.8999 90.4637 62.9076 91.4673 62.8398C92.1977 62.7905 92.7175 62.6501 93.1037 62.0156C93.9305 60.6573 93.9152 58.3955 92.037 57.9126C90.528 57.5245 89.0336 58.0315 87.7825 58.852C87.0572 59.3276 86.5408 59.9274 86.0976 60.658C85.9107 60.9662 85.5659 61.146 85.5522 61.5307C85.5342 62.0353 85.5067 62.3464 86.0976 62.452C87.3058 62.6677 88.7308 62.7998 89.534 61.7853C90.1107 61.0569 90.8475 59.9339 91.1764 59.0459C91.3377 58.6105 91.5522 58.1537 91.5522 57.6883C91.5522 56.6546 92.2067 55.835 92.2067 54.7914C92.2067 54.5724 92.3391 53.858 92.0734 53.858C91.0369 53.858 89.9838 54.2459 88.9279 54.2459C85.237 54.2459 81.5488 54.1368 77.8613 54.1368C76.9124 54.1368 75.842 54.0498 74.9704 53.6762C74.4847 53.4681 73.9647 53.4022 73.4431 53.3732C72.923 53.3443 73.02 52.1362 72.9522 51.7974C72.6131 50.102 73.0618 48.338 72.6189 46.6217C72.3636 45.6325 72.4899 44.1148 72.7037 43.1793C72.7631 42.9194 72.9554 42.0461 72.7643 41.8338C72.6018 41.6532 71.7539 42.4912 71.6371 42.6823C71.414 43.0474 71.2028 43.1083 71.1462 43.5611C71.0377 44.4291 71.0431 45.2803 71.0431 46.1611C71.0431 47.5044 70.6584 48.7698 70.8431 50.155C70.9852 51.2205 71.4227 52.2971 71.6431 53.355C71.7304 53.7741 71.9159 54.0579 71.9159 54.4883C71.9159 55.9381 72.025 57.3929 72.025 58.8338C72.025 59.4297 72.025 60.0257 72.025 60.6217C72.025 61.6258 72.3522 62.5726 72.3522 63.5671C72.3522 64.0672 72.4376 64.4672 71.8068 64.5004C71.2309 64.5307 71.3006 64.5951 71.8553 64.4398C72.3433 64.3032 72.8879 63.9959 73.334 63.761C73.6248 63.608 74.0145 63.5099 74.2674 63.3489C75.372 62.646 76.7502 62.2998 78.0249 62.0762C78.8633 61.9291 79.6807 61.8298 80.5098 61.6398C81.4787 61.4178 82.4399 61.1733 83.437 61.1247C84.1915 61.0879 84.954 61.1186 85.7098 61.1186C85.8422 61.1186 85.9878 61.0608 86.0976 60.9853C86.575 60.6571 84.2335 59.8361 84.1219 59.8095C82.4508 59.4124 80.6276 59.3856 78.9219 59.5489C77.7791 59.6584 76.7255 60.0646 75.6128 60.3065C75.2075 60.3946 74.7841 60.5404 74.3704 60.5671C73.8338 60.6017 73.377 60.849 72.8553 60.8944C72.6921 60.9086 72.2432 60.9864 72.3643 60.8762C72.9787 60.3177 74.3912 60.2229 75.134 60.0156C78.5706 59.0566 81.9087 57.7458 85.3582 56.8399C86.5078 56.538 87.849 56.2317 89.0431 56.2096C89.2841 56.2051 89.5551 56.1814 89.7946 56.2156C90.0504 56.2522 88.3025 57.0813 88.134 57.1368C86.2736 57.7503 84.2421 58.152 82.6189 59.3186C81.9419 59.8052 81.651 59.9186 80.8007 59.9186C79.4331 59.9186 78.3047 58.8737 77.2007 58.1671C76.5768 57.7678 75.9048 57.1112 75.1765 56.9732C74.7646 56.8951 73.1159 56.3641 73.1159 57.058C73.1159 58.0932 73.5889 58.3914 74.5401 58.3914C75.8644 58.3914 76.7214 57.3629 77.8795 56.8702C78.7542 56.4979 79.6797 56.2906 80.5946 56.052C81.1906 55.8965 81.6615 55.6641 82.2795 55.6641C82.4161 55.6641 83.7679 55.5478 83.4067 55.9429C82.8142 56.591 81.0626 56.5376 80.2855 56.5853C78.5607 56.6912 76.8331 56.5809 75.1159 56.8035C74.2725 56.9128 73.3063 56.9446 72.4613 56.8641C72.2469 56.8437 72.213 56.5173 72.2674 56.3611C72.5063 55.674 74.1229 55.6805 74.6977 55.458C75.6353 55.0951 74.7598 55.3155 74.4249 55.7126C74.0437 56.1646 73.7436 56.6669 73.6128 57.2459C73.345 58.4319 73.5522 59.8142 73.5522 61.0338C73.5522 61.5229 73.465 61.5331 73.2249 61.9065C72.9366 62.355 73.1315 63.2326 72.631 63.5186C72.3474 63.6807 72.134 64.1281 72.134 64.4459C72.134 64.6544 72.0006 64.7554 71.9401 64.9368C71.8866 65.0972 72.6563 65.0459 72.7643 65.0459C73.387 65.0459 74.3233 64.9324 74.8613 64.6095" stroke="#6C8DAB" stroke-width="3" stroke-linecap="round"/>
<path d="M13.0067 56.1015C12.8052 55.8749 12.6836 55.6211 12.5703 55.3379" stroke="#6C8DAB" stroke-width="3" stroke-linecap="round"/>
</svg>
