<svg width="100" height="100" viewBox="0 0 100 100" fill="none" xmlns="http://www.w3.org/2000/svg">
<path fill-rule="evenodd" clip-rule="evenodd" d="M14.1875 16.6094V56.9766C14.1875 60.6406 15.002 63.6914 16.8184 66.8672C23.4453 78.4141 35.6152 88.2871 51.127 94.7031C66.6387 88.2871 78.8086 78.4141 85.4355 66.8672C87.2539 63.6914 88.0664 60.6406 88.0664 56.9766V16.6094L51.127 5.39844L14.1875 16.6094ZM20.0898 48.1895C20.0898 31.0762 34.0137 17.1523 51.1289 17.1523C56.584 17.1523 61.8555 18.5586 66.5293 21.2383L65.8672 18.5879C65.707 17.9609 66.0898 17.3242 66.7207 17.168C67.3516 17.0098 67.9883 17.3926 68.1406 18.0215L69.5117 23.5215C69.5918 23.8242 69.543 24.1426 69.3848 24.4102C69.2246 24.6758 68.9629 24.8672 68.6582 24.9434L63.1562 26.3164C63.0684 26.3398 62.9727 26.3516 62.877 26.3516C62.3516 26.3516 61.8731 25.9941 61.7363 25.4629C61.584 24.834 61.959 24.1992 62.5898 24.041L65.4609 23.3262C61.1152 20.8164 56.2109 19.4961 51.1309 19.4961C35.3086 19.4961 22.4375 32.3672 22.4375 48.1895C22.4375 64.0098 35.3086 76.8809 51.1309 76.8809C66.9531 76.8809 79.8242 64.0098 79.8242 48.1895C79.8242 42.209 77.998 36.4785 74.5527 31.6191C74.1855 31.0898 74.3047 30.3594 74.832 29.9844C75.3672 29.6113 76.0918 29.7363 76.4668 30.2637C80.1992 35.5234 82.168 41.7207 82.168 48.1895C82.168 65.3027 68.2441 79.2246 51.1289 79.2246C34.0137 79.2246 20.0898 65.3027 20.0898 48.1895ZM66.2637 36.2617C66.6699 35.7578 67.4043 35.6797 67.9062 36.0859C68.4082 36.4922 68.4883 37.2305 68.082 37.7344L46.9492 63.8945C46.7188 64.1797 46.3828 64.3301 46.041 64.3301C45.7773 64.3301 45.5234 64.2441 45.2988 64.0684C44.7969 63.6621 44.7168 62.9238 45.1309 62.4199L66.2637 36.2617ZM51.4863 31.4199C51.4863 30.7715 52.0117 30.248 52.6582 30.248C53.3047 30.248 53.8301 30.7715 53.8301 31.4199V43.0879C53.8301 43.7344 53.3047 44.2598 52.6582 44.2598C52.0117 44.2598 51.4863 43.7344 51.4863 43.0879V38.9668H46.3027C45.6562 38.9668 45.1309 38.4414 45.1309 37.7949V31.4199C45.1309 30.7715 45.6562 30.248 46.3027 30.248C46.9492 30.248 47.4746 30.7715 47.4746 31.4199V36.623H51.4863V31.4199ZM63.3926 64.6094L66.5508 54.4629H62.6191C61.9727 54.4629 61.4473 53.9375 61.4473 53.291C61.4473 52.6426 61.9727 52.1191 62.6191 52.1191H68.1387C68.5137 52.1191 68.8652 52.2949 69.0879 52.5957C69.3027 52.8945 69.3672 53.2832 69.2637 53.6387L65.6348 65.3066C65.4746 65.8086 65.0137 66.1309 64.5176 66.1309C64.3984 66.1309 64.2773 66.1133 64.166 66.0781C63.5449 65.8848 63.2012 65.2285 63.3926 64.6094ZM37.2109 30.248C39.4688 30.248 41.3027 32.082 41.3027 34.3379C41.3027 36.7617 39.3418 39.7441 37.252 41.916H40.3145C40.9609 41.916 41.4863 42.4395 41.4863 43.0879C41.4863 43.7344 40.9609 44.2598 40.3145 44.2598H34.1172C33.5996 44.2598 33.1445 43.9238 32.9922 43.4316C32.8398 42.9395 33.0312 42.4062 33.4551 42.1172C35.6719 40.6133 38.957 36.6836 38.957 34.3379C38.957 33.375 38.1758 32.5918 37.2109 32.5918C36.2539 32.5918 35.4648 33.375 35.4648 34.3379C35.4648 34.9844 34.9395 35.5098 34.293 35.5098C33.6465 35.5098 33.1211 34.9844 33.1211 34.3379C33.1211 32.082 34.9551 30.248 37.2109 30.248Z" fill="#6C8DAB"/>
</svg>
