<svg width="100" height="100" viewBox="0 0 100 100" fill="none" xmlns="http://www.w3.org/2000/svg">
<path d="M29.7234 76.2035C29.7234 77.0674 29.0232 77.7676 28.1594 77.7676H20.2203C19.3564 77.7676 18.6562 77.0674 18.6562 76.2035C18.6562 75.3396 19.3564 74.6395 20.2203 74.6395H28.1594C29.0232 74.6395 29.7234 75.3396 29.7234 76.2035ZM49.9951 90.3574C49.1312 90.3574 48.4311 91.0576 48.4311 91.9215V96.8766C48.4311 97.7404 49.1312 98.4406 49.9951 98.4406C50.859 98.4406 51.5592 97.7404 51.5592 96.8766V91.9215C51.5592 91.0576 50.859 90.3574 49.9951 90.3574ZM68.0187 76.2035C68.0187 79.5051 66.0453 82.5551 62.4621 84.7914C59.1076 86.8848 54.6801 88.0375 49.9951 88.0375C45.3102 88.0375 40.8865 86.8848 37.5328 84.7912C33.9498 82.5549 31.9768 79.5051 31.9768 76.2035C31.9768 73.5818 33.2201 71.1113 35.5729 69.0588C37.2867 67.5635 39.499 66.3746 42.0473 65.5654L27.7129 40.7369C25.3336 36.7438 24.0764 32.1609 24.0764 27.483C24.0764 13.1883 35.7035 1.55859 49.9951 1.55859C64.2867 1.55859 75.9193 13.1883 75.9193 27.4828C75.9193 32.1506 74.6621 36.7328 72.2836 40.7354L57.9451 65.5645C60.4947 66.3736 62.7082 67.5629 64.4228 69.0588C66.7754 71.1113 68.0187 73.5818 68.0187 76.2035ZM37.8232 27.483C37.8232 34.1977 43.2836 39.6605 49.9951 39.6605C56.7066 39.6605 62.1725 34.1977 62.1725 27.483C62.1725 20.7684 56.7098 15.3113 49.9951 15.3113C43.2805 15.3113 37.8232 20.7715 37.8232 27.483ZM64.8908 76.2035C64.8908 72.866 61.499 69.792 56.3383 68.3471L51.3496 76.9857C51.0701 77.4695 50.5539 77.7676 49.9951 77.7676C49.4363 77.7676 48.9199 77.4695 48.6404 76.9855L43.6537 68.348C38.4951 69.7934 35.1047 72.8666 35.1047 76.2035C35.1047 80.9227 41.9236 84.9094 49.9949 84.9094C58.0662 84.9094 64.8908 80.9227 64.8908 76.2035ZM79.7756 74.6395H71.8363C70.9725 74.6395 70.2723 75.3396 70.2723 76.2035C70.2723 77.0674 70.9725 77.7676 71.8363 77.7676H79.7756C80.6395 77.7676 81.3396 77.0674 81.3396 76.2035C81.3396 75.3396 80.6395 74.6395 79.7756 74.6395Z" fill="#6C8DAB"/>
</svg>
