<svg width="100" height="100" viewBox="0 0 100 100" fill="none" xmlns="http://www.w3.org/2000/svg">
<path d="M47.5551 52.4085L36.239 41.0924C35.7026 40.556 35.7026 39.6864 36.239 39.1499C36.7753 38.6136 37.6451 38.6136 38.1814 39.1499L49.5376 50.5061C48.82 35.994 36.7885 24.4082 22.1016 24.4082V25.0126C22.1016 39.4814 33.346 51.3725 47.5551 52.4085Z" fill="#6C8DAB"/>
<path d="M66.3616 37.7762C66.8979 37.2399 67.7677 37.2399 68.304 37.7762C68.8404 38.3126 68.8404 39.1823 68.304 39.7186L55.5401 52.4827H57.7182C72.8654 52.4827 85.1885 40.1595 85.1885 25.0124V20.2051H81.068C65.9208 20.2051 53.5977 32.5282 53.5977 47.6754V50.5403L66.3616 37.7762Z" fill="#6C8DAB"/>
<path d="M80.6641 49.6277L68.3113 61.9805C67.4867 64.2379 65.4354 65.9371 62.8541 66.4732L46.4263 71.2646C45.6847 71.4811 44.9072 71.043 44.7119 70.2896C44.5233 69.5617 44.9907 68.8219 45.7126 68.6113L62.1393 63.8202C62.1798 63.8103 62.2209 63.8003 62.2614 63.7905C64.3548 63.3693 65.4653 61.9743 65.8065 60.8083C66.0892 59.8425 65.9026 58.9235 65.3073 58.3498C64.2905 57.3698 62.1845 57.3149 59.5292 58.1991C59.4686 58.2193 59.406 58.2358 59.3432 58.2476L48.3551 60.3079C47.9096 60.3912 47.4514 60.2497 47.1308 59.9291C39.0191 51.8175 29.2139 52.3182 20.2294 61.3026C19.9718 61.5602 19.6224 61.705 19.2582 61.705H13.4211C12.852 61.705 12.3906 62.1663 12.3906 62.7354V75.7832C12.3906 76.3523 12.852 76.8136 13.4211 76.8136H22.0052C22.1152 76.8136 22.2255 76.8271 22.3323 76.8531C43.4782 82.0148 57.6689 81.2221 65.7135 74.4287L85.5893 54.5529C86.4557 53.6865 86.8094 52.4438 86.4978 51.1937C86.4278 50.9126 86.3178 50.6415 86.1727 50.3907C84.9662 48.3052 82.241 48.0509 80.6641 49.6277Z" fill="#6C8DAB"/>
</svg>
