<svg width="100" height="100" viewBox="0 0 100 100" fill="none" xmlns="http://www.w3.org/2000/svg">
<path fill-rule="evenodd" clip-rule="evenodd" d="M85.438 51.773C85.0114 50.5074 83.8108 49.5893 82.4059 49.5893H65.5895C64.1846 49.5893 62.9841 50.5072 62.5575 51.773H85.438ZM50.0007 15.573C56.1815 15.573 61.1921 25.2607 61.1921 31.4416C61.1921 37.6225 56.1815 42.633 50.0007 42.633C43.8198 42.633 38.8092 37.6225 38.8092 31.4416C38.8092 25.2607 43.8198 15.573 50.0007 15.573ZM44.7157 26.4734H55.2854C55.9327 26.4734 56.4573 25.9488 56.4573 25.3016C56.4573 24.6543 55.9327 24.1297 55.2854 24.1297H44.7157C44.0684 24.1297 43.5438 24.6543 43.5438 25.3016C43.5438 25.9488 44.0684 26.4734 44.7157 26.4734ZM37.0526 27.0891H2.99069C1.7446 27.0891 1.57038 28.907 2.79362 29.1437L37.1827 35.7998C36.21 32.9389 36.2911 30.1354 37.0526 27.0891ZM62.8184 35.7998L97.2075 29.1437C98.4309 28.907 98.2565 27.0891 97.0104 27.0891H62.9485C63.7102 30.1354 63.7909 32.9389 62.8182 35.7998H62.8184ZM52.6137 13.641L52.293 8.8834C52.2507 8.25449 51.7772 7.7373 51.1469 7.7373H48.8546C48.2243 7.7373 47.7508 8.25449 47.7085 8.8834L47.3878 13.641C49.1151 13.092 50.8868 13.092 52.6139 13.641H52.6137ZM61.2897 22.4773L71.6792 20.4664C72.9026 20.2297 72.7282 18.4117 71.4821 18.4117H58.8376C59.7848 19.6529 60.6081 21.0387 61.2897 22.4773ZM41.1637 18.4119H28.5192C27.2731 18.4119 27.0989 20.2297 28.3221 20.4666L38.7116 22.4775C39.3934 21.0389 40.2165 19.6531 41.1637 18.4119ZM14.4475 49.5893H41.7973C42.4001 49.5893 42.8928 50.0822 42.8928 50.6848V53.6231C42.8928 54.2256 42.3999 54.7188 41.7973 54.7188H14.4475C13.845 54.7188 13.352 54.2258 13.352 53.6231V50.6848C13.352 50.0822 13.8452 49.5893 14.4475 49.5893ZM6.88053 82.4129C6.40026 81.9807 6.3612 81.2406 6.79362 80.7604C7.22585 80.2801 7.96589 80.241 8.44616 80.6734C12.0147 83.8822 17.4491 83.882 21.0174 80.6734C21.4682 80.2678 22.1477 80.2772 22.5868 80.6768C26.1296 83.8785 31.5852 83.8826 35.1544 80.6734C35.6051 80.2678 36.2846 80.2772 36.7237 80.6768C40.2665 83.8785 45.7221 83.8826 49.2913 80.6734C49.7715 80.2412 50.5116 80.2801 50.9438 80.7604C51.376 81.2406 51.3372 81.9807 50.8569 82.4129C46.6632 86.1838 40.4024 86.4281 35.937 83.0578C31.7573 86.2123 25.9796 86.2123 21.7999 83.0578C17.3348 86.4277 11.0784 86.1846 6.88014 82.4129H6.88053ZM6.88053 89.2522C6.40026 88.8199 6.3612 88.0799 6.79362 87.5996C7.22585 87.1193 7.96589 87.0803 8.44616 87.5127C12.0147 90.7215 17.4491 90.7215 21.0174 87.5127C21.4682 87.107 22.1477 87.1164 22.5868 87.516C26.1296 90.7178 31.5854 90.7221 35.1544 87.5127C35.6051 87.107 36.2846 87.1164 36.7237 87.516C40.2665 90.7178 45.7221 90.7221 49.2913 87.5127C49.7715 87.0805 50.5116 87.1193 50.9438 87.5996C51.376 88.0799 51.3372 88.8199 50.8569 89.2522C46.663 93.0232 40.4022 93.2674 35.937 89.8971C31.7573 93.0516 25.9796 93.0518 21.7999 89.8971C17.3348 93.267 11.0784 93.0238 6.88014 89.2522H6.88053ZM12.6528 80.4256C15.0141 81.1502 17.5983 80.5949 19.4508 78.9301C20.7891 77.7273 22.8192 77.7326 24.1548 78.9346C26.8278 81.3402 30.9106 81.3363 33.588 78.9301C34.9262 77.7273 36.9561 77.7326 38.2917 78.9346C39.6971 80.1994 41.5358 80.8332 43.4208 80.7242C45.6173 76.9186 47.053 73.3121 47.0661 69.1623C40.5637 69.1623 32.9352 67.0236 28.1223 62.2107C23.3094 67.0236 15.6811 69.1623 9.17858 69.1623C9.19128 73.2037 10.553 76.7293 12.6528 80.4256ZM40.2466 66.0047C36.3096 65.0613 32.5046 63.2783 29.7798 60.5535L28.1225 58.8963L26.4653 60.5535C23.7403 63.2783 19.9354 65.0613 15.9985 66.0047V57.0625H40.2467L40.2466 66.0047ZM58.0089 86.5648H89.9866C91.28 86.5648 92.338 85.5068 92.338 84.2135V56.468C92.338 55.1748 91.28 54.1166 89.9866 54.1166H58.0089C56.7157 54.1166 55.6575 55.1746 55.6575 56.468V84.2135C55.6575 85.5068 56.7155 86.5648 58.0089 86.5648ZM59.5372 57.9963H88.4585V73.1625H59.5372V57.9963ZM86.5649 82.9746H80.3665C80.6165 80.2424 82.9309 78.0836 85.7257 78.0836H88.4585V81.0811C88.4585 82.1223 87.6063 82.9744 86.5649 82.9744V82.9746ZM61.4305 82.9746C60.3891 82.9746 59.5372 82.1225 59.5372 81.0813V78.0838H62.27C65.0645 78.0838 67.379 80.2426 67.6292 82.9748H61.4307L61.4305 82.9746ZM61.3005 91.0912H65.1216C66.3704 91.0912 67.405 90.1285 67.5206 88.9088H58.9012C59.0169 90.1287 60.0514 91.0912 61.3003 91.0912H61.3005ZM81.8745 91.0912H85.6956C86.9444 91.0912 87.979 90.1285 88.0946 88.9088H79.4753C79.5909 90.1287 80.6255 91.0912 81.8743 91.0912H81.8745Z" fill="#6C8DAB"/>
</svg>
