<svg width="34" height="34" viewBox="0 0 34 34" fill="none" xmlns="http://www.w3.org/2000/svg">
<path d="M21.253 31.1658L20.8606 31.7551C20.9672 31.8261 21.0912 31.8668 21.2192 31.8729C21.3471 31.879 21.4744 31.8503 21.5873 31.7899C21.7003 31.7294 21.7947 31.6394 21.8606 31.5295C21.9264 31.4196 21.9613 31.2939 21.9613 31.1658H21.253ZM17.003 28.3324L17.3954 27.7431C17.2792 27.6657 17.1426 27.6245 17.003 27.6245C16.8634 27.6245 16.7268 27.6657 16.6106 27.7431L17.003 28.3324ZM12.753 31.1658H12.0447C12.0447 31.2939 12.0795 31.4196 12.1454 31.5295C12.2113 31.6394 12.3057 31.7294 12.4187 31.7899C12.5316 31.8503 12.6589 31.879 12.7868 31.8729C12.9148 31.8668 13.0387 31.8261 13.1454 31.7551L12.753 31.1658ZM21.6454 30.5764L17.3954 27.7431L16.6106 28.9218L20.8606 31.7551L21.6454 30.5764ZM16.6106 27.7431L12.3606 30.5764L13.1454 31.7551L17.3954 28.9218L16.6106 27.7431ZM18.6222 4.41059L18.6817 4.48143L19.7598 3.56343L19.7003 3.49259L18.6222 4.41059ZM21.6624 5.71676L21.7545 5.70826L21.6412 4.29726L21.5491 4.30434L21.6624 5.71676ZM24.0424 7.99759L24.0367 8.08968L25.4477 8.20301L25.4548 8.11093L24.0424 7.99759ZM25.2707 11.0703L25.3415 11.1313L26.2595 10.0518L26.1887 9.99226L25.2707 11.0703ZM25.3415 14.3683L25.2707 14.4278L26.1887 15.5059L26.2595 15.4464L25.3415 14.3683ZM24.0367 17.4085L24.0438 17.5006L25.4548 17.3873L25.4477 17.2952L24.0367 17.4085ZM21.7559 19.7885L21.6624 19.7814L21.5491 21.1938L21.6412 21.2009L21.7559 19.7885ZM18.6817 21.0168L18.6208 21.0876L19.7003 22.0056L19.7598 21.9348L18.6817 21.0168ZM15.3852 21.0876L15.3242 21.0168L14.2462 21.9348L14.3057 22.0056L15.3852 21.0876ZM12.3436 19.7828L12.2515 19.7899L12.3648 21.2009L12.4569 21.1938L12.3436 19.7828ZM9.96358 17.502L9.97066 17.4085L8.55825 17.2952L8.55117 17.3873L9.96358 17.502ZM8.73533 14.4278L8.6645 14.3669L7.7465 15.4464L7.81733 15.5059L8.73533 14.4278ZM8.6645 11.1313L8.73533 11.0703L7.81733 9.99226L7.7465 10.0518L8.6645 11.1313ZM9.97066 8.08968L9.96217 7.99759L8.55117 8.11093L8.55825 8.20301L9.97066 8.08968ZM12.2515 5.70968L12.3436 5.71676L12.4569 4.30434L12.3648 4.29726L12.2515 5.70968ZM15.3257 4.48143L15.3837 4.41059L14.3057 3.49259L14.2462 3.56343L15.3257 4.48143ZM12.3436 5.71676C12.903 5.76184 13.4651 5.67335 13.9835 5.45857C14.502 5.24379 14.962 4.90887 15.3257 4.48143L14.2462 3.56343C14.028 3.81984 13.7519 4.02074 13.4408 4.14956C13.1298 4.27837 12.7925 4.33143 12.4569 4.30434L12.3436 5.71676ZM9.96217 7.99759C9.9374 7.69091 9.98095 7.38251 10.0871 7.09371C10.1932 6.80491 10.3607 6.5426 10.5782 6.32491C10.7956 6.10721 11.0577 5.93933 11.3464 5.83286C11.635 5.72639 11.9434 5.68388 12.2501 5.70826L12.3648 4.29726C11.8536 4.25623 11.3381 4.32672 10.8568 4.50386C10.3755 4.68101 9.93839 4.96057 9.57573 5.32324C9.21306 5.6859 8.9335 6.123 8.75635 6.60432C8.57921 7.08564 8.51013 7.59969 8.55117 8.11093L9.96217 7.99759ZM8.73533 11.0703C9.16278 10.7067 9.49769 10.2481 9.71247 9.72963C9.92725 9.21116 10.0157 8.64906 9.97066 8.08968L8.55825 8.20301C8.58533 8.53862 8.53228 8.87586 8.40346 9.18694C8.27464 9.49803 8.07375 9.77405 7.81733 9.99226L8.73533 11.0703ZM8.6645 14.3669C8.43025 14.1674 8.24211 13.9195 8.1131 13.6401C7.98408 13.3608 7.91727 13.0568 7.91727 12.7491C7.91727 12.4414 7.98408 12.1374 8.1131 11.8581C8.24211 11.5787 8.43025 11.3307 8.6645 11.1313L7.7465 10.0518C7.35576 10.3842 7.04192 10.7977 6.82669 11.2634C6.61147 11.7291 6.5 12.236 6.5 12.7491C6.5 13.2621 6.61147 13.7691 6.82669 14.2348C7.04192 14.7005 7.35576 15.1139 7.7465 15.4464L8.6645 14.3669ZM9.97066 17.4085C10.0155 16.8494 9.92691 16.2875 9.71214 15.7693C9.49737 15.2511 9.16258 14.7913 8.73533 14.4278L7.81733 15.5059C8.07375 15.7241 8.27464 16.0002 8.40346 16.3112C8.53228 16.6223 8.58533 16.9596 8.55825 17.2952L9.97066 17.4085ZM12.2515 19.7885C11.9447 19.8133 11.6362 19.7711 11.3473 19.6649C11.0583 19.5588 10.796 19.3911 10.5782 19.1735C10.3605 18.9559 10.1927 18.6936 10.0863 18.4048C9.97992 18.1159 9.93757 17.8074 9.96217 17.5006L8.55117 17.3873C8.50991 17.8986 8.58025 18.4128 8.75729 18.8943C8.93434 19.3758 9.21388 19.8131 9.57656 20.1759C9.93925 20.5387 10.3764 20.8184 10.8579 20.9957C11.3393 21.1729 11.8535 21.2434 12.3648 21.2023L12.2515 19.7885ZM18.6208 21.0876C18.4213 21.3218 18.1734 21.51 17.894 21.639C17.6147 21.768 17.3107 21.8348 17.003 21.8348C16.6953 21.8348 16.3913 21.768 16.112 21.639C15.8326 21.51 15.5847 21.3218 15.3852 21.0876L14.3057 22.0056C14.6381 22.3963 15.0516 22.7102 15.5173 22.9254C15.983 23.1406 16.4899 23.2521 17.003 23.2521C17.5161 23.2521 18.023 23.1406 18.4887 22.9254C18.9544 22.7102 19.3678 22.3963 19.7003 22.0056L18.6208 21.0876ZM24.0438 17.5006C24.0686 17.8075 24.0265 18.1162 23.9202 18.4052C23.8139 18.6942 23.6461 18.9567 23.4283 19.1744C23.2106 19.3922 22.9481 19.56 22.6591 19.6663C22.3701 19.7726 22.0614 19.8147 21.7545 19.7899L21.6412 21.2009C22.1525 21.2422 22.6667 21.1718 23.1482 20.9948C23.6297 20.8178 24.067 20.5382 24.4298 20.1755C24.7926 19.8128 25.0723 19.3757 25.2496 18.8942C25.4268 18.4128 25.4959 17.8986 25.4548 17.3873L24.0438 17.5006ZM25.2707 14.4264C24.8435 14.7902 24.5088 15.2503 24.2943 15.7688C24.0798 16.2872 23.9915 16.8492 24.0367 17.4085L25.4477 17.2952C25.4207 16.9596 25.4737 16.6223 25.6025 16.3112C25.7314 16.0002 25.9322 15.7241 26.1887 15.5059L25.2707 14.4264ZM25.3415 11.1313C25.5757 11.3307 25.7639 11.5787 25.8929 11.8581C26.0219 12.1374 26.0887 12.4414 26.0887 12.7491C26.0887 13.0568 26.0219 13.3608 25.8929 13.6401C25.7639 13.9195 25.5757 14.1689 25.3415 14.3683L26.2595 15.4464C26.6502 15.1139 26.9641 14.7005 27.1793 14.2348C27.3945 13.7691 27.506 13.2621 27.506 12.7491C27.506 12.236 27.3945 11.7291 27.1793 11.2634C26.9641 10.7977 26.6502 10.3842 26.2595 10.0518L25.3415 11.1313ZM24.0367 8.08968C23.9917 8.64872 24.0801 9.21045 24.2946 9.72866C24.5092 10.2469 24.8437 10.7067 25.2707 11.0703L26.1887 9.99226C25.9322 9.77405 25.7314 9.49803 25.6025 9.18694C25.4737 8.87586 25.4207 8.53862 25.4477 8.20301L24.0367 8.08968ZM21.7559 5.70968C22.0626 5.6851 22.371 5.72743 22.6597 5.83372C22.9485 5.94 23.2107 6.10773 23.4282 6.32529C23.6458 6.54285 23.8135 6.80506 23.9198 7.09379C24.0261 7.38253 24.067 7.6909 24.0424 7.99759L25.4548 8.11093C25.4959 7.59956 25.4268 7.08538 25.2496 6.60395C25.0723 6.12252 24.7926 5.68534 24.4298 5.32266C24.067 4.95997 23.6297 4.68043 23.1482 4.50339C22.6667 4.32634 22.1525 4.25601 21.6412 4.29726L21.7559 5.70968ZM18.6817 4.48143C19.0452 4.90867 19.505 5.24346 20.0232 5.45823C20.5414 5.673 21.1033 5.76161 21.6624 5.71676L21.5491 4.30434C21.2135 4.33143 20.8762 4.27837 20.5651 4.14956C20.2541 4.02074 19.978 3.81984 19.7598 3.56343L18.6817 4.48143ZM19.7003 3.49259C19.3678 3.10185 18.9544 2.78801 18.4887 2.57279C18.023 2.35756 17.5161 2.24609 17.003 2.24609C16.4899 2.24609 15.983 2.35756 15.5173 2.57279C15.0516 2.78801 14.6381 3.10185 14.3057 3.49259L15.3837 4.41059C15.5832 4.17634 15.8326 3.98821 16.112 3.85919C16.3913 3.73018 16.6953 3.66336 17.003 3.66336C17.3107 3.66336 17.6147 3.73018 17.894 3.85919C18.1734 3.98821 18.4228 4.17634 18.6222 4.41059L19.7003 3.49259ZM15.3257 21.0168C15.0101 20.6461 14.6216 20.3445 14.1843 20.1308C13.7471 19.917 13.2704 19.7943 12.7842 19.7729L12.7218 21.1896C13.0135 21.2024 13.2993 21.2752 13.5616 21.4034C13.8239 21.5316 14.0569 21.7125 14.2462 21.9348L15.3257 21.0168ZM12.7842 19.7729C12.6373 19.7677 12.4902 19.7714 12.3436 19.7814L12.4569 21.1938C12.5457 21.1863 12.634 21.1849 12.7218 21.1896L12.7842 19.7729ZM13.4613 31.1658V20.4813H12.0447V31.1658H13.4613ZM21.6638 19.7814C21.5167 19.7714 21.3692 19.769 21.2218 19.7743L21.2842 21.1896C21.372 21.1849 21.4603 21.1863 21.5491 21.1938L21.6638 19.7814ZM21.2218 19.7743C20.7358 19.7959 20.2594 19.9173 19.8224 20.1311C19.3854 20.3448 18.9971 20.6463 18.6817 21.0168L19.7598 21.9348C19.9491 21.7125 20.1821 21.5316 20.4444 21.4034C20.7067 21.2752 20.9925 21.2024 21.2842 21.1896L21.2218 19.7743ZM20.5447 20.4827V31.1658H21.9613V20.4813L20.5447 20.4827Z" fill="black"/>
<path d="M19.8385 11.332L15.5885 15.582L14.1719 14.1654" stroke="black" stroke-linecap="round" stroke-linejoin="round"/>
</svg>
