<svg width="34" height="34" viewBox="0 0 34 34" fill="none" xmlns="http://www.w3.org/2000/svg">
<g clip-path="url(#clip0_1485_8910)">
<path d="M20.3464 3.57841L20.4706 3.60505C22.7627 4.09652 24.8979 5.1467 26.6864 6.66224C28.4239 8.13459 29.7818 10.0018 30.6472 12.1064L29.1329 12.7018C28.376 10.8828 27.2017 9.26624 25.7038 7.98357C24.1554 6.65768 22.3077 5.72835 20.32 5.27573L20.1658 5.24062L20.0961 5.38256C19.7956 5.99433 19.2886 6.48029 18.6647 6.75469C18.0408 7.02908 17.34 7.07428 16.686 6.88229C16.032 6.69031 15.4668 6.27349 15.0902 5.70538C14.7135 5.13728 14.5497 4.4544 14.6275 3.77726C14.7054 3.10012 15.0199 2.47223 15.5156 2.00439C16.0113 1.53656 16.6563 1.25885 17.3368 1.22026C18.0173 1.18168 18.6896 1.38471 19.235 1.79351C19.7804 2.20232 20.1638 2.79064 20.3177 3.45464L20.3464 3.57841ZM3.45464 14.7117L3.57841 14.683L3.60505 14.5588C4.09652 12.2667 5.1467 10.1315 6.66224 8.34304C8.135 6.60506 10.0029 5.24687 12.1081 4.38153L12.7202 5.89584C10.898 6.65027 9.27807 7.82337 7.99222 9.32116C6.6626 10.8699 5.73024 12.7193 5.27576 14.7093L5.24053 14.8635L5.38256 14.9333C5.99433 15.2338 6.48029 15.7408 6.75469 16.3647C7.02908 16.9887 7.07428 17.6895 6.88229 18.3435C6.69031 18.9975 6.27349 19.5626 5.70538 19.9393C5.13728 20.3159 4.4544 20.4797 3.77726 20.4019C3.10012 20.324 2.47223 20.0095 2.00439 19.5138C1.53656 19.0181 1.25885 18.3731 1.22026 17.6926C1.18168 17.0121 1.38471 16.3398 1.79351 15.7944C2.20232 15.249 2.79064 14.8656 3.45464 14.7117ZM17.5148 28.0183L17.5169 28.0183C18.0619 28.0109 18.598 28.1578 19.0632 28.4419C19.5284 28.726 19.9038 29.1359 20.1462 29.6241C20.3885 30.1124 20.488 30.6592 20.433 31.2016C20.378 31.7439 20.1709 32.2597 19.8354 32.6893C19.5 33.119 19.05 33.4452 18.5372 33.6302C18.0244 33.8152 17.4698 33.8514 16.9373 33.7349C16.4048 33.6183 15.9161 33.3535 15.5276 32.9712C15.139 32.5889 14.8665 32.1045 14.7413 31.574L14.7121 31.4506L14.5881 31.4243C12.2904 30.9373 10.149 29.8892 8.35499 28.3734C6.6115 26.9003 5.24872 25.0301 4.38057 22.9213L5.89512 22.3091C6.65194 24.1278 7.82612 25.744 9.32378 27.0265C10.8724 28.3526 12.7204 29.282 14.7083 29.7346L14.8621 29.7696L14.932 29.6282C15.1703 29.1463 15.5383 28.7404 15.9945 28.456C16.4507 28.1716 16.9772 28.0201 17.5148 28.0183ZM29.7324 20.32L29.7675 20.1662L29.626 20.0963C29.1634 19.8677 28.7704 19.5196 28.4877 19.0879C28.205 18.6563 28.043 18.1568 28.0184 17.6414C27.9938 17.126 28.1076 16.6134 28.3479 16.1568C28.5882 15.7002 28.9463 15.3162 29.385 15.0447C29.8238 14.7731 30.3272 14.6239 30.843 14.6125C31.3589 14.601 31.8684 14.7278 32.3187 14.9797C32.769 15.2316 33.1438 15.5994 33.404 16.0449C33.6641 16.4901 33.8004 16.9968 33.7989 17.5124C33.7901 18.1566 33.5664 18.7795 33.1632 19.2822C32.7599 19.785 32.2002 20.1387 31.5728 20.2871L31.4495 20.3163L31.4232 20.4403C30.9363 22.7379 29.8882 24.8793 28.3724 26.6734C26.8993 28.4169 25.029 29.7797 22.9201 30.6478L22.3071 29.1322C24.1256 28.3754 25.7417 27.2014 27.0241 25.704C28.3502 24.1556 29.2797 22.3078 29.7324 20.32ZM17.0377 5.26773C17.1905 5.32678 17.3536 5.35469 17.5174 5.34986C17.8421 5.34902 18.154 5.22089 18.3844 4.99049C18.6151 4.7597 18.7448 4.44669 18.7448 4.1203C18.7448 3.79392 18.6151 3.48091 18.3844 3.25012C18.1543 3.02009 17.8426 2.89053 17.5174 2.88968C17.3536 2.88485 17.1905 2.91277 17.0377 2.97181C16.8838 3.03124 16.7435 3.12099 16.625 3.23573C16.5065 3.35047 16.4123 3.48785 16.348 3.63972C16.2836 3.79159 16.2505 3.95484 16.2505 4.11977C16.2505 4.2847 16.2836 4.44796 16.348 4.59982C16.4123 4.75169 16.5065 4.88908 16.625 5.00381C16.7435 5.11855 16.8838 5.2083 17.0377 5.26773ZM3.6483 18.6522C3.79761 18.714 3.95763 18.7459 4.11924 18.7459C4.44562 18.7459 4.75864 18.6162 4.98942 18.3854C5.22021 18.1546 5.34987 17.8416 5.34987 17.5152C5.34987 17.1889 5.22021 16.8758 4.98942 16.6451C4.75864 16.4143 4.44562 16.2846 4.11924 16.2846C3.95763 16.2846 3.79761 16.3164 3.6483 16.3783C3.499 16.4401 3.36333 16.5308 3.24906 16.6451C3.13478 16.7593 3.04414 16.895 2.98229 17.0443C2.92045 17.1936 2.88862 17.3536 2.88862 17.5152C2.88862 17.6768 2.92045 17.8369 2.98229 17.9862C3.04414 18.1355 3.13478 18.2712 3.24906 18.3854C3.36333 18.4997 3.49899 18.5903 3.6483 18.6522ZM16.644 31.7793C16.8748 32.0101 17.1878 32.1397 17.5142 32.1397C17.8406 32.1397 18.1536 32.0101 18.3844 31.7793C18.6151 31.5485 18.7448 31.2355 18.7448 30.9091C18.7448 30.5827 18.6151 30.2697 18.3844 30.0389C18.1536 29.8081 17.8406 29.6785 17.5142 29.6785C17.1878 29.6785 16.8748 29.8081 16.644 30.0389C16.4132 30.2697 16.2836 30.5827 16.2836 30.9091C16.2836 31.2355 16.4132 31.5485 16.644 31.7793ZM30.0368 18.3844C30.2676 18.6151 30.5806 18.7448 30.907 18.7448C31.2334 18.7448 31.5464 18.6151 31.7772 18.3844C32.008 18.1536 32.1376 17.8406 32.1376 17.5142C32.1376 17.1878 32.008 16.8748 31.7772 16.644C31.5464 16.4132 31.2334 16.2836 30.907 16.2836C30.5806 16.2836 30.2676 16.4132 30.0368 16.644C29.806 16.8748 29.6764 17.1878 29.6764 17.5142C29.6764 17.8406 29.806 18.1536 30.0368 18.3844Z" fill="black" stroke="white" stroke-width="0.4"/>
<path d="M20.2458 17.2279L20.0698 17.3997L20.2739 17.537C20.9462 17.9892 21.4972 18.5984 21.8787 19.313C22.2603 20.0277 22.4607 20.8251 22.4624 21.6353V23.4961H12.5594V21.636C12.5601 20.8267 12.7591 20.0299 13.139 19.3152C13.5189 18.6006 14.0682 17.99 14.7388 17.5367L14.942 17.3993L14.7665 17.2279C14.2087 16.6833 13.8259 15.9848 13.667 15.2216C13.5081 14.4584 13.5803 13.6651 13.8743 12.9432C14.1683 12.2212 14.6709 11.6032 15.3178 11.1682C15.9647 10.7331 16.7266 10.5008 17.5061 10.5008C18.2857 10.5008 19.0476 10.7331 19.6945 11.1682C20.3414 11.6032 20.8439 12.2212 21.1379 12.9432C21.432 13.6651 21.5041 14.4584 21.3452 15.2216C21.1863 15.9848 20.8035 16.6833 20.2458 17.2279ZM14.2196 21.6385L14.2232 21.8348H14.4196H20.6022H20.7986L20.8022 21.6385C20.8103 21.2012 20.7312 20.7666 20.5694 20.3602C20.4077 19.9538 20.1665 19.5837 19.8601 19.2715C19.5537 18.9593 19.1881 18.7114 18.7847 18.5421C18.3814 18.3728 17.9483 18.2856 17.5109 18.2856C17.0735 18.2856 16.6404 18.3728 16.2371 18.5421L16.3145 18.7265L16.2371 18.5421C15.8337 18.7114 15.4682 18.9593 15.1617 19.2715C14.8553 19.5837 14.6142 19.9538 14.4524 20.3602C14.2906 20.7666 14.2115 21.2012 14.2196 21.6385ZM15.4223 13.5572C15.3087 13.8316 15.2502 14.1256 15.2502 14.4226C15.2502 15.0223 15.4884 15.5975 15.9125 16.0215C16.3366 16.4456 16.9117 16.6838 17.5114 16.6838C18.1112 16.6838 18.6863 16.4456 19.1104 16.0215C19.5344 15.5975 19.7727 15.0223 19.7727 14.4226C19.7727 14.1256 19.7142 13.8316 19.6006 13.5572C19.4869 13.2829 19.3204 13.0336 19.1104 12.8236C18.9004 12.6137 18.6511 12.4471 18.3768 12.3335C18.1024 12.2198 17.8084 12.1613 17.5114 12.1613C17.2145 12.1613 16.9204 12.2198 16.6461 12.3335C16.3717 12.4471 16.1225 12.6137 15.9125 12.8236C15.7025 13.0336 15.536 13.2829 15.4223 13.5572Z" fill="black" stroke="white" stroke-width="0.4"/>
</g>
<defs>
<clipPath id="clip0_1485_8910">
<rect width="34" height="34" fill="white"/>
</clipPath>
</defs>
</svg>
