<svg width="90" height="91" viewBox="0 0 90 91" fill="none" xmlns="http://www.w3.org/2000/svg">
<path d="M62.4912 55.1735C65.8583 55.1724 72.9614 54.5587 79.3437 50.0227C79.836 49.6728 80.0576 49.0525 79.8897 48.4723C79.2052 46.1066 77.2771 39.7235 74.8627 34.1172" stroke="#6C8DAB" stroke-width="3" stroke-miterlimit="10" stroke-linecap="round" stroke-linejoin="round"/>
<path d="M72.8619 29.925C71.5904 27.5646 70.2516 25.6855 68.9316 24.8379C68.6917 24.6838 68.4176 24.5914 68.1346 24.5565L63.7064 24.0109C62.2238 23.828 60.8368 24.7711 60.4613 26.217L59.7904 28.7985C59.3971 30.3137 60.2446 31.8752 61.7295 32.3705L64.1796 33.1864C64.9661 33.4482 65.8326 33.2242 66.392 32.6134C66.6224 32.3621 66.7896 32.0718 66.8915 31.7637L69.7139 43.3579C68.6614 42.7994 67.1517 42.4824 65.1211 43.137" stroke="#6C8DAB" stroke-width="3" stroke-miterlimit="10" stroke-linecap="round" stroke-linejoin="round"/>
<path d="M69.7139 43.3594C69.7139 43.3594 70.9097 43.8622 71.5213 45.4642" stroke="#6C8DAB" stroke-width="3" stroke-miterlimit="10" stroke-linecap="round" stroke-linejoin="round"/>
<path d="M24.9426 43.1578C22.8799 42.4759 21.3498 42.7936 20.2864 43.3579L23.1087 31.7637C23.2107 32.0718 23.3779 32.3621 23.6082 32.6134C24.1676 33.2242 25.0342 33.4482 25.8207 33.1864L28.2708 32.3705C29.7555 31.8752 30.603 30.3137 30.2099 28.7985L29.5389 26.217C29.1636 24.7711 27.7766 23.828 26.2939 24.0109L21.8656 24.5565C21.5825 24.5914 21.3086 24.6838 21.0685 24.8379C16.3122 27.892 11.3081 44.332 10.1102 48.4713C9.94232 49.0515 10.1639 49.6718 10.6563 50.0217C12.444 51.2923 14.2883 52.2548 16.0911 52.9826" stroke="#6C8DAB" stroke-width="3" stroke-miterlimit="10" stroke-linecap="round" stroke-linejoin="round"/>
<path d="M20.5068 54.3672C23.3996 55.0333 25.9174 55.1745 27.5445 55.173" stroke="#6C8DAB" stroke-width="3" stroke-miterlimit="10" stroke-linecap="round" stroke-linejoin="round"/>
<path d="M57.618 59.7196L62.0332 55.3044C66.6285 50.7091 66.6285 43.2586 62.0332 38.6633C57.4379 34.068 49.9874 34.068 45.3921 38.6633L45.0002 39.0552L44.6081 38.6633C40.0128 34.068 32.5623 34.068 27.967 38.6633C23.3717 43.2586 23.3717 50.7091 27.967 55.3044L43.967 71.3044C44.5375 71.8749 45.4627 71.8749 46.0333 71.3044L54.3536 62.9842" stroke="#6C8DAB" stroke-width="3" stroke-miterlimit="10" stroke-linecap="round" stroke-linejoin="round"/>
<path d="M50.4584 20.6547H48.0752V18.2715C48.0752 17.4948 47.4457 16.8652 46.669 16.8652H43.3314C42.5547 16.8652 41.9252 17.4948 41.9252 18.2715V20.6547H39.542C38.7653 20.6547 38.1357 21.2842 38.1357 22.0609V25.3985C38.1357 26.1752 38.7653 26.8047 39.542 26.8047H41.9252V29.1879C41.9252 29.9646 42.5547 30.5941 43.3314 30.5941H46.669C47.4457 30.5941 48.0752 29.9646 48.0752 29.1879V26.8047H50.4584C51.2351 26.8047 51.8647 26.1752 51.8647 25.3985V22.0609C51.8647 21.2842 51.2351 20.6547 50.4584 20.6547Z" stroke="#6C8DAB" stroke-width="3" stroke-miterlimit="10" stroke-linecap="round" stroke-linejoin="round"/>
<path d="M20.2869 43.3574C20.2869 43.3574 19.0911 43.8603 18.4795 45.4623" stroke="#6C8DAB" stroke-width="3" stroke-miterlimit="10" stroke-linecap="round" stroke-linejoin="round"/>
<path d="M40.79 55.0664C41.6725 56.4608 43.2269 57.3873 44.9994 57.3873C46.7718 57.3873 48.3263 56.4608 49.2087 55.0664" stroke="#6C8DAB" stroke-width="3" stroke-miterlimit="10" stroke-linecap="round" stroke-linejoin="round"/>
<path d="M39.8096 49.6172V50.3393" stroke="#6C8DAB" stroke-width="3" stroke-miterlimit="10" stroke-linecap="round" stroke-linejoin="round"/>
<path d="M50.1904 49.6172V50.3393" stroke="#6C8DAB" stroke-width="3" stroke-miterlimit="10" stroke-linecap="round" stroke-linejoin="round"/>
<path d="M27.677 64.1898H25.2938V61.8066C25.2938 61.03 24.6643 60.4004 23.8876 60.4004H20.5502C19.7735 60.4004 19.1439 61.03 19.1439 61.8066V64.1898H16.7607C15.9841 64.1898 15.3545 64.8194 15.3545 65.5961V68.9336C15.3545 69.7103 15.9841 70.3399 16.7607 70.3399H19.1439V72.7231C19.1439 73.4997 19.7735 74.1293 20.5502 74.1293H23.8877C24.6644 74.1293 25.294 73.4997 25.294 72.7231V70.3399H27.6772C28.4538 70.3399 29.0834 69.7103 29.0834 68.9336V65.5961C29.0833 64.8194 28.4537 64.1898 27.677 64.1898Z" stroke="#6C8DAB" stroke-width="3" stroke-miterlimit="10" stroke-linecap="round" stroke-linejoin="round"/>
<path d="M73.2406 64.1898H70.8575V61.8066C70.8575 61.03 70.2279 60.4004 69.4512 60.4004H66.1136C65.337 60.4004 64.7074 61.03 64.7074 61.8066V64.1898H62.3242C61.5475 64.1898 60.918 64.8194 60.918 65.5961V68.9336C60.918 69.7103 61.5475 70.3399 62.3242 70.3399H64.7074V72.7231C64.7074 73.4997 65.337 74.1293 66.1136 74.1293H69.4512C70.2279 74.1293 70.8575 73.4997 70.8575 72.7231V70.3399H73.2406C74.0173 70.3399 74.6469 69.7103 74.6469 68.9336V65.5961C74.6469 64.8194 74.0173 64.1898 73.2406 64.1898Z" stroke="#6C8DAB" stroke-width="3" stroke-miterlimit="10" stroke-linecap="round" stroke-linejoin="round"/>
</svg>
