<svg width="90" height="91" viewBox="0 0 90 91" fill="none" xmlns="http://www.w3.org/2000/svg">
<path d="M42.4263 66.8285L50.5346 69.7021L64.7366 62.3341C66.5746 61.3805 68.8585 62.1041 69.812 63.942C70.2887 64.861 69.9266 66.0031 69.0078 66.4796L60.3368 70.9781M58.4645 71.9497L49.7935 76.4482L35.2119 75.0559L23.141 80.495H19.9775V67.4021H23.141L35.2142 60.6861L48.303 59.9177C49.8531 59.8266 51.3634 60.3863 51.779 61.8823C52.1946 63.3785 51.2879 64.8699 49.8142 65.3585L37.4759 67.8133" stroke="#6C8DAB" stroke-width="2" stroke-miterlimit="22.9256"/>
<path d="M51.8799 62.6413L57.5873 59.6803C59.4252 58.7268 61.7091 59.4504 62.6626 61.2883C63.1394 62.2073 62.7774 63.3494 61.8585 63.8259" stroke="#6C8DAB" stroke-width="2" stroke-miterlimit="22.9256"/>
<path d="M32.6461 22.9071C29.0988 27.0366 26.6943 31.3435 26.6943 36.3165C26.6943 46.4316 34.8852 54.6219 45.0002 54.6219C55.1152 54.6219 63.3061 46.4316 63.3061 36.3165C63.3061 26.5361 54.0094 19.3326 45.0002 10.9863C41.1745 14.5305 37.2971 17.8687 34.1019 21.2857" stroke="#6C8DAB" stroke-width="2" stroke-miterlimit="22.9256"/>
<path fill-rule="evenodd" clip-rule="evenodd" d="M40.5261 34.1973L43.5087 37.18L49.474 31.2148L53.2022 34.9431L43.5087 44.6366L36.7979 37.9257L40.5261 34.1973Z" stroke="#6C8DAB" stroke-width="2" stroke-miterlimit="22.9256"/>
<path d="M47.5557 20.8161V18.707M51.7738 23.9797V21.8706" stroke="#6C8DAB" stroke-width="2" stroke-miterlimit="22.9256"/>
</svg>
