<svg width="90" height="91" viewBox="0 0 90 91" fill="none" xmlns="http://www.w3.org/2000/svg">
<path d="M41.5586 80.472C33.6268 80.4281 26.0233 77.2997 20.3572 71.749C14.6912 66.1984 11.407 58.6609 11.1999 50.7317C10.9927 42.8026 13.8788 35.1039 19.2473 29.2649C24.6159 23.426 32.0456 19.9049 39.9643 19.4469C40.1131 19.4387 40.262 19.463 40.4005 19.518C40.539 19.5731 40.6639 19.6576 40.7666 19.7657C40.8687 19.8731 40.9463 20.0014 40.9943 20.1416C41.0422 20.2819 41.0593 20.4308 41.0443 20.5783C41.0287 20.8524 41.0287 21.1271 41.0443 21.4011C41.1731 22.8385 41.477 24.2547 41.9494 25.6183C42.2066 26.5029 42.4843 27.4183 42.6694 28.3543C43.3483 31.656 42.6694 34.5257 40.7048 36.1303C39.0694 37.4777 37.0123 37.6423 35.0168 37.8069C33.186 37.9509 31.4477 38.0949 30.3677 39.1749C29.2877 40.2549 29.1746 41.736 28.9586 43.392C28.8687 44.8509 28.5205 46.2823 27.93 47.6194C26.3871 50.5817 22.4168 52.0629 18.8786 50.9726C16.6175 50.2034 14.668 48.7196 13.3243 46.7451C13.2053 47.8073 13.1435 48.8752 13.1391 49.944C13.1236 54.3125 14.1133 58.6261 16.0315 62.551C17.9498 66.4759 20.7452 69.9069 24.2015 72.5786C27.6578 75.2504 31.6824 77.0913 35.9639 77.9588C40.2455 78.8264 44.6693 78.6974 48.893 77.5818C53.1167 76.4663 57.0272 74.3941 60.322 71.5255C63.6168 68.6569 66.2075 65.0688 67.8938 61.0389C69.5801 57.0089 70.3168 52.645 70.0468 48.2848C69.7768 43.9246 68.5074 39.6849 66.3368 35.8937C66.2004 35.6564 66.1639 35.3746 66.2353 35.1103C66.3067 34.8461 66.4801 34.621 66.7174 34.4846C66.9547 34.3482 67.2365 34.3116 67.5008 34.383C67.7651 34.4544 67.9902 34.6278 68.1266 34.8651C70.7622 39.5111 72.1332 44.7672 72.1026 50.1086C72.072 55.45 70.6409 60.69 67.9522 65.3055C65.2635 69.921 61.4112 73.7505 56.7798 76.4118C52.1485 79.0731 46.9001 80.4731 41.5586 80.472ZM13.7871 43.6389C14.3258 44.8615 15.1012 45.9655 16.0686 46.887C17.036 47.8085 18.1763 48.5294 19.4237 49.008C21.9951 49.8 24.9677 48.7509 26.0477 46.6629C26.5298 45.54 26.8185 44.3437 26.9014 43.1246C27.1483 41.2011 27.4054 39.216 28.8866 37.7246C30.3677 36.2331 32.7026 35.9246 34.8317 35.7497C36.5906 35.616 38.2466 35.472 39.378 34.5463C41.322 32.9417 40.8283 29.7223 40.6431 28.776C40.458 27.8297 40.2111 27.0789 39.954 26.2046C39.4436 24.7101 39.1156 23.1594 38.9768 21.5863C32.9855 22.1256 27.3194 24.5509 22.7933 28.5133C18.2671 32.4758 15.114 37.7714 13.7871 43.6389Z" fill="#6C8DAB"/>
<path d="M52.8318 78.116C52.663 78.1151 52.497 78.0728 52.3484 77.9926C47.3755 75.363 43.1341 71.5386 40.0056 66.8634C38.9571 65.398 38.2346 63.7251 37.8867 61.9571C37.703 60.9669 37.7645 59.9468 38.0657 58.9859C38.3669 58.0249 38.8987 57.1522 39.6147 56.444C41.0856 55.1274 43.2044 54.7057 46.105 55.148L47.2981 55.3434C48.7024 55.7012 50.1635 55.7781 51.5976 55.5697C53.1918 55.2097 54.6833 54.0371 56.3701 51.908L57.2958 50.6737C58.331 49.1353 59.5775 47.7503 60.9987 46.5594C62.445 45.4994 64.1343 44.8196 65.9117 44.5824C67.6891 44.3452 69.4976 44.5581 71.1713 45.2017C71.3083 45.2398 71.4359 45.3059 71.546 45.3958C71.6562 45.4857 71.7465 45.5975 71.8113 45.7241C71.8761 45.8506 71.9139 45.9893 71.9224 46.1312C71.9309 46.2732 71.9099 46.4153 71.8607 46.5487C71.8114 46.6821 71.7351 46.8039 71.6364 46.9063C71.5378 47.0087 71.419 47.0895 71.2875 47.1437C71.156 47.1979 71.0147 47.2242 70.8726 47.221C70.7304 47.2178 70.5905 47.1851 70.4616 47.1251C69.1115 46.6048 67.6537 46.4264 66.2181 46.6059C64.7824 46.7854 63.4134 47.3171 62.233 48.1537C60.9641 49.2308 59.8527 50.4807 58.9313 51.8668L57.9747 53.1423C56.7507 54.7571 54.7861 56.9068 52.0501 57.5343C50.3397 57.8165 48.5897 57.7465 46.9073 57.3286L45.7553 57.1434C43.5438 56.804 41.929 57.0714 40.9621 57.9354C40.5087 58.4179 40.1784 59.0028 39.9993 59.6403C39.8202 60.2778 39.7977 60.9491 39.9336 61.5971C40.2481 63.0856 40.8796 64.4888 41.785 65.7114C44.7066 70.1024 48.6719 73.7002 53.3256 76.1823C53.5274 76.2912 53.6871 76.4645 53.7791 76.6746C53.8712 76.8848 53.8904 77.1196 53.8336 77.3419C53.7769 77.5641 53.6475 77.7611 53.4659 77.9013C53.2844 78.0416 53.0612 78.1171 52.8318 78.116Z" fill="#6C8DAB"/>
<path d="M27.7144 67.8917C26.6786 67.9459 25.6424 67.7918 24.6671 67.4384C23.6919 67.0851 22.7974 66.5397 22.0367 65.8345C18.951 62.6871 18.8379 60.4345 19.3007 59.1076C19.6384 58.3128 20.1945 57.63 20.9045 57.1385C21.6145 56.6469 22.4494 56.3668 23.3122 56.3305C24.2137 56.1688 25.1423 56.2578 25.9966 56.588C26.851 56.9181 27.5982 57.4766 28.1567 58.2025C28.6293 58.8025 29.2818 59.2352 30.0184 59.4368C30.8561 59.6605 31.6164 60.1096 32.2167 60.7352C32.817 61.3609 33.2342 62.1391 33.423 62.9854C33.7001 63.8892 33.6491 64.8618 33.279 65.7316C32.93 66.3284 32.4379 66.8289 31.8471 67.1881C31.2563 67.5472 30.5855 67.7536 29.895 67.7888C29.1713 67.8725 28.4428 67.9069 27.7144 67.8917ZM24.063 58.3774H23.5384C23.0644 58.3884 22.6019 58.5258 22.1987 58.7753C21.7954 59.0248 21.4661 59.3775 21.2447 59.7968C20.8642 60.8871 21.687 62.5637 23.5076 64.4048C25.1122 66.0711 28.0127 65.9168 29.5967 65.6905C30.1624 65.6082 31.1396 65.3819 31.4379 64.7956C31.5816 64.3545 31.5816 63.8791 31.4379 63.4379C31.1499 62.2036 30.4916 61.8848 29.2676 61.3808C28.1216 61.03 27.1258 60.3058 26.439 59.3236C26.1472 58.9877 25.7793 58.7266 25.3659 58.5619C24.9526 58.3973 24.5058 58.334 24.063 58.3774Z" fill="#6C8DAB"/>
<path d="M62.8604 36.9127C60.6601 37.0059 58.4673 36.599 56.447 35.7224C54.4267 34.8459 52.6315 33.5226 51.1964 31.8522C46.4958 26.0716 48.2444 18.5733 48.3267 18.2544C48.3748 18.063 48.477 17.8894 48.6211 17.7544C48.7652 17.6195 48.9451 17.5288 49.1393 17.4933C49.3253 17.4486 49.5201 17.4567 49.7019 17.5167C49.8836 17.5766 50.0449 17.6861 50.1678 17.8327C51.8958 19.8899 54.9918 20.3836 57.9953 20.9184C61.1941 21.4636 64.1667 21.947 65.833 24.251C68.6616 28.2213 68.3324 35.1642 68.3118 35.4522C68.3018 35.6702 68.2227 35.8795 68.0858 36.0496C67.949 36.2197 67.7616 36.3419 67.5507 36.3984C66.0129 36.7535 64.4386 36.9261 62.8604 36.9127ZM50.0856 20.5276C49.6897 24.0936 50.66 27.677 52.801 30.5562C56.9873 35.699 63.9404 34.9584 66.1724 34.547C66.1724 32.7162 65.9667 28.1082 64.0536 25.4339C62.9324 23.8602 60.3096 23.3767 57.5427 22.9344C55.0433 22.4922 52.225 22.0087 50.0856 20.5276Z" fill="#6C8DAB"/>
<path d="M67.2321 36.4169C67.1401 36.4319 67.0463 36.4319 66.9544 36.4169C61.7647 34.9792 57.2842 31.6847 54.3646 27.1597C54.2902 27.0427 54.2403 26.9118 54.2177 26.7749C54.1952 26.638 54.2006 26.498 54.2336 26.3632C54.2666 26.2285 54.3266 26.1018 54.4098 25.9908C54.493 25.8799 54.5978 25.7869 54.7179 25.7174C54.838 25.648 54.9709 25.6036 55.1086 25.5869C55.2464 25.5701 55.386 25.5814 55.5193 25.6201C55.6525 25.6587 55.7765 25.7239 55.8839 25.8118C55.9913 25.8996 56.0798 26.0083 56.1441 26.1312C58.7589 30.0825 62.6745 32.9937 67.2115 34.3597C68.7338 33.794 76.0058 30.7597 76.8801 23.6626C77.4149 19.25 75.2652 15.578 73.8252 13.6752C72.7966 16.0717 70.7395 17.9849 68.7646 19.7026C67.0675 21.2352 65.4629 22.6752 64.8458 24.1872C64.8011 24.3202 64.7297 24.4428 64.6359 24.5472C64.542 24.6516 64.4278 24.7358 64.3003 24.7944C64.1728 24.853 64.0346 24.8849 63.8942 24.8881C63.7539 24.8913 63.6144 24.8658 63.4843 24.813C63.3542 24.7603 63.2362 24.6815 63.1378 24.5815C63.0393 24.4814 62.9623 24.3623 62.9116 24.2314C62.8609 24.1005 62.8375 23.9606 62.8429 23.8203C62.8483 23.68 62.8823 23.5424 62.9429 23.4157C63.7349 21.4615 65.5144 19.8672 67.3966 18.1803C69.6595 16.1232 71.9944 14.066 72.3749 11.4123C72.4011 11.2232 72.4795 11.045 72.6012 10.8979C72.7229 10.7507 72.8832 10.6404 73.0641 10.5792C73.2409 10.522 73.4299 10.5138 73.611 10.5555C73.7921 10.5971 73.9586 10.6871 74.0926 10.8157C74.3498 11.042 79.8218 16.4626 78.9681 23.8992C77.8366 33.1563 68.0138 36.242 67.5921 36.3963C67.4742 36.4243 67.3524 36.4313 67.2321 36.4169Z" fill="#6C8DAB"/>
</svg>
