<svg width="72" height="73" viewBox="0 0 72 73" fill="none" xmlns="http://www.w3.org/2000/svg">
<mask id="mask0_926_59020" style="mask-type:luminance" maskUnits="userSpaceOnUse" x="0" y="0" width="72" height="73">
<path d="M0 0.500008H72V72.5H0V0.500008Z" fill="white"/>
</mask>
<g mask="url(#mask0_926_59020)">
<path d="M20.1956 21.0807C17.407 24.0776 15.7013 28.0966 15.7013 32.5121C15.7013 41.7837 23.2163 49.2985 32.4863 49.2985C33.6422 49.2985 34.7701 49.1818 35.86 48.9582M24.0531 17.9955C26.5308 16.5527 29.4122 15.7273 32.4863 15.7273C41.7577 15.7273 49.2728 23.2421 49.2728 32.5121C49.2728 37.2541 47.3067 41.536 44.1469 44.5876M60.4566 45.9826L61.8712 43.5315C62.2103 42.9451 62.1244 42.2055 61.6603 41.7118L56.6512 36.3879C56.4361 36.1587 56.3392 35.8449 56.377 35.5329C56.5023 34.5427 56.567 33.5359 56.567 32.5121C56.567 31.4899 56.5023 30.4829 56.377 29.4929C56.3392 29.1809 56.4361 28.8671 56.6512 28.6379L61.6603 23.314C62.1244 22.8202 62.2103 22.0806 61.8712 21.4941L56.7216 12.5744C56.3827 11.9865 55.6992 11.6912 55.0411 11.8474L47.9255 13.5221C47.6175 13.5954 47.2955 13.5221 47.0423 13.331C45.4477 12.1174 43.6969 11.0993 41.8253 10.3116C41.5298 10.1865 41.302 9.9404 41.2094 9.63257L39.1069 2.64759C38.9114 1.99945 38.3138 1.55493 37.6361 1.55493H27.3366C26.6588 1.55493 26.0625 1.99945 25.867 2.64759L23.7647 9.63257C23.6719 9.9404 23.4442 10.1865 23.1473 10.3116C21.277 11.0993 19.5263 12.1174 17.9303 13.331C17.6786 13.5221 17.3566 13.5954 17.047 13.5221L9.93296 11.8474C9.27329 11.6912 8.58985 11.9865 8.25109 12.5744L3.10126 21.4941C2.76235 22.0806 2.84827 22.8202 3.3136 23.314L8.3214 28.6379C8.53796 28.8671 8.63485 29.1809 8.59548 29.4929C8.47173 30.4829 8.40704 31.4899 8.40704 32.5121C8.40704 33.5359 8.47173 34.5427 8.59548 35.5329C8.63485 35.8449 8.53796 36.1587 8.3214 36.3879L3.3136 41.7118C2.84827 42.2055 2.76235 42.9451 3.10126 43.5315L8.25109 52.4513C8.58985 53.0377 9.27329 53.3332 9.93296 53.1784L17.047 51.5037C17.3566 51.4304 17.6786 51.5037 17.9303 51.6948C19.5263 52.907 21.277 53.9265 23.1473 54.714C23.4442 54.8393 23.6719 55.0854 23.7647 55.3932L25.867 62.378C26.0625 63.0263 26.6588 63.4707 27.3366 63.4707H31.253" stroke="#6C8DAB" stroke-width="2" stroke-miterlimit="10" stroke-linecap="round" stroke-linejoin="round"/>
<path d="M38.6869 31.1847H35.5551C35.2769 31.1847 35.0512 30.9591 35.0512 30.6808V23.4464C35.0512 22.7032 34.1273 22.3607 33.643 22.9242L25.5821 32.3017C25.0636 32.9047 25.4921 33.838 26.2873 33.838H29.4192C29.6973 33.838 29.923 34.0637 29.923 34.3418V41.5763C29.923 42.3195 30.847 42.6619 31.3313 42.0984L39.3923 32.721C39.9107 32.118 39.4822 31.1847 38.6869 31.1847Z" stroke="#6C8DAB" stroke-width="2" stroke-miterlimit="10" stroke-linecap="round" stroke-linejoin="round"/>
<path d="M28.5312 69.4258C35.6472 53.6524 59.1328 48.91 69.1028 51.9969" stroke="#6C8DAB" stroke-width="2" stroke-miterlimit="10" stroke-linecap="round" stroke-linejoin="round"/>
<path d="M55.8283 63.3512C53.8511 65.3652 51.8961 67.2942 49.9187 68.7686C43.184 73.7904 34.3832 71.6755 31.071 63.0189C26.5205 51.1258 47.0562 34.0045 68.5695 50.8385C69.4246 51.5078 69.2186 52.8415 68.2104 53.2448C65.1088 54.4855 62.22 56.9668 59.425 59.7099" stroke="#6C8DAB" stroke-width="2" stroke-miterlimit="10" stroke-linecap="round" stroke-linejoin="round"/>
</g>
</svg>
