<svg width="90" height="91" viewBox="0 0 90 91" fill="none" xmlns="http://www.w3.org/2000/svg">
<path d="M49.5869 61.0906C49.5869 61.0906 49.9855 64.5312 47.671 66.8457C45.3564 69.1603 42.2135 68.464 42.2135 68.464C42.2135 68.464 41.5172 65.3211 43.8317 63.0065C46.1463 60.692 49.5869 61.0906 49.5869 61.0906Z" stroke="#6C8DAB" stroke-width="2" stroke-miterlimit="10" stroke-linecap="round" stroke-linejoin="round"/>
<path d="M65.7334 33.3105L68.3562 35.9333L70.979 33.3105" stroke="#6C8DAB" stroke-width="2" stroke-miterlimit="10" stroke-linecap="round" stroke-linejoin="round"/>
<path d="M42.377 33.3105L44.9998 35.9333L47.6225 33.3105" stroke="#6C8DAB" stroke-width="2" stroke-miterlimit="10" stroke-linecap="round" stroke-linejoin="round"/>
<path d="M19.0508 33.3105L21.6736 35.9333L24.2964 33.3105" stroke="#6C8DAB" stroke-width="2" stroke-miterlimit="10" stroke-linecap="round" stroke-linejoin="round"/>
<path d="M53.8203 22.5059L68.3268 26.0278V35.9333" stroke="#6C8DAB" stroke-width="2" stroke-miterlimit="10" stroke-linecap="round" stroke-linejoin="round"/>
<path d="M21.6738 35.9343V26.0289L35.886 22.6387" stroke="#6C8DAB" stroke-width="2" stroke-miterlimit="10" stroke-linecap="round" stroke-linejoin="round"/>
<path d="M45 35.933V26.9004" stroke="#6C8DAB" stroke-width="2" stroke-miterlimit="10" stroke-linecap="round" stroke-linejoin="round"/>
<path d="M26.6941 80.3907H16.7122C14.9588 80.3907 13.4734 79.0991 13.2299 77.3628L10.0547 54.7305H33.3516L30.1766 77.3628C29.9329 79.0991 28.4475 80.3907 26.6941 80.3907Z" stroke="#6C8DAB" stroke-width="2" stroke-miterlimit="10" stroke-linecap="round" stroke-linejoin="round"/>
<path d="M33.3516 50.5526H10.0547L11.8768 42.776C12.1479 41.6189 13.1799 40.8008 14.3682 40.8008H29.0378C30.2262 40.8008 31.2583 41.6189 31.5293 42.776L33.3516 50.5526Z" stroke="#6C8DAB" stroke-width="2" stroke-miterlimit="10" stroke-linecap="round" stroke-linejoin="round"/>
<path d="M21.7625 47.0033C19.5049 47.0033 17.6748 45.1732 17.6748 42.9156V40.8008H25.8503V42.9156C25.8502 45.1732 24.0201 47.0033 21.7625 47.0033Z" stroke="#6C8DAB" stroke-width="2" stroke-miterlimit="10" stroke-linecap="round" stroke-linejoin="round"/>
<path d="M33.3516 50.5527H10.0547V54.7308H33.3516V50.5527Z" stroke="#6C8DAB" stroke-width="2" stroke-miterlimit="10" stroke-linecap="round" stroke-linejoin="round"/>
<path d="M42.3313 54.7305H56.6482L53.4732 77.3628C53.2296 79.0991 51.7442 80.3907 49.9909 80.3907H40.0089C38.2556 80.3907 36.7702 79.0991 36.5266 77.3628L33.3516 54.7305H37.3755" stroke="#6C8DAB" stroke-width="2" stroke-miterlimit="10" stroke-linecap="round" stroke-linejoin="round"/>
<path d="M56.6483 50.5526H33.3516L35.1736 42.776C35.4448 41.6189 36.4768 40.8008 37.6651 40.8008H52.3347C53.5231 40.8008 54.5551 41.6189 54.8261 42.776L56.6483 50.5526Z" stroke="#6C8DAB" stroke-width="2" stroke-miterlimit="10" stroke-linecap="round" stroke-linejoin="round"/>
<path d="M45.0594 47.0033C42.8018 47.0033 40.9717 45.1732 40.9717 42.9156V40.8008H49.1472V42.9156C49.1472 45.1732 47.317 47.0033 45.0594 47.0033Z" stroke="#6C8DAB" stroke-width="2" stroke-miterlimit="10" stroke-linecap="round" stroke-linejoin="round"/>
<path d="M33.3516 54.731V50.5527H56.6483V54.731" stroke="#6C8DAB" stroke-width="2" stroke-miterlimit="10" stroke-linecap="round" stroke-linejoin="round"/>
<path d="M77.175 74.3353L76.77 77.2222C76.5265 78.9585 75.0411 80.2501 73.2877 80.2501H63.3058C61.5525 80.2501 60.067 78.9585 59.8235 77.2222L56.6484 54.5898H79.9451L77.8606 69.4484" stroke="#6C8DAB" stroke-width="2" stroke-miterlimit="10" stroke-linecap="round" stroke-linejoin="round"/>
<path d="M79.9454 50.5526H56.6484L58.4705 42.776C58.7416 41.6189 59.7737 40.8008 60.962 40.8008H75.6315C76.82 40.8008 77.852 41.6189 78.123 42.776L79.9454 50.5526Z" stroke="#6C8DAB" stroke-width="2" stroke-miterlimit="10" stroke-linecap="round" stroke-linejoin="round"/>
<path d="M68.3562 47.0033C66.0987 47.0033 64.2686 45.1732 64.2686 42.9156V40.8008H72.4441V42.9156C72.4439 45.1732 70.6138 47.0033 68.3562 47.0033Z" stroke="#6C8DAB" stroke-width="2" stroke-miterlimit="10" stroke-linecap="round" stroke-linejoin="round"/>
<path d="M79.9454 50.5527H56.6484V54.7308H79.9454V50.5527Z" stroke="#6C8DAB" stroke-width="2" stroke-miterlimit="10" stroke-linecap="round" stroke-linejoin="round"/>
<path d="M26.5509 68.5638H16.8555L21.7031 60.627L26.5509 68.5638Z" stroke="#6C8DAB" stroke-width="2" stroke-miterlimit="10" stroke-linecap="round" stroke-linejoin="round"/>
<path d="M68.2969 61.1152V65.2299" stroke="#6C8DAB" stroke-width="2" stroke-miterlimit="10" stroke-linecap="round" stroke-linejoin="round"/>
<circle cx="68.2969" cy="69.1406" r="1.05469" fill="#6C8DAB"/>
<path d="M47.9975 23.1955H42.0032C40.588 23.1955 39.532 21.8922 39.8256 20.5078L40.5403 17.138C40.8467 15.6933 42.122 14.6602 43.5987 14.6602H46.4021C47.8788 14.6602 49.1541 15.6933 49.4606 17.138L50.1752 20.5078C50.4687 21.8921 49.4127 23.1955 47.9975 23.1955Z" stroke="#6C8DAB" stroke-width="2" stroke-miterlimit="10" stroke-linecap="round" stroke-linejoin="round"/>
<path d="M44.9999 14.6597C43.9168 14.6597 42.9999 13.8602 42.8524 12.7872L42.5527 10.6074H47.4469L47.1472 12.7872C46.9999 13.8602 46.083 14.6597 44.9999 14.6597Z" stroke="#6C8DAB" stroke-width="2" stroke-miterlimit="10" stroke-linecap="round" stroke-linejoin="round"/>
</svg>
