<svg width="90" height="91" viewBox="0 0 90 91" fill="none" xmlns="http://www.w3.org/2000/svg">
<path d="M65.1654 43.2452C65.2472 43.9854 65.2892 44.7377 65.2892 45.4996C65.2892 56.7053 56.2052 65.7893 44.9996 65.7893C33.7939 65.7893 24.71 56.7053 24.71 45.4996C24.71 44.5434 24.776 43.6027 24.9041 42.6816" stroke="#6C8DAB" stroke-width="2.4" stroke-miterlimit="10"/>
<path d="M28.6553 33.4745C32.3495 28.4614 38.2948 25.209 44.9997 25.209C51.7046 25.209 57.65 28.4612 61.3441 33.4745" stroke="#6C8DAB" stroke-width="2.4" stroke-miterlimit="10"/>
<path d="M74.3067 45.4999C74.3067 41.77 73.6084 38.2037 72.3379 34.9222L77.5156 31.9329L73.0068 24.1234L67.8228 27.1164C63.3436 21.5624 56.8802 17.676 49.5083 16.5377V10.5566H40.4907V16.5379C33.1188 17.6762 26.6554 21.5625 22.1762 27.1165L16.9922 24.1235L12.4834 31.933L17.6611 34.9224C16.3906 38.2037 15.6923 41.77 15.6923 45.4999C15.6923 49.2298 16.3906 52.7961 17.6611 56.0774L12.4834 59.0667L16.9922 66.8763L22.1762 63.8833C26.6554 69.4371 33.1188 73.3236 40.4907 74.4619V80.4431H49.5083V74.4619C56.8802 73.3236 63.3436 69.4371 67.8228 63.8833L73.0068 66.8763L77.5156 59.0667L72.3379 56.0774C73.6084 52.7961 74.3067 49.2298 74.3067 45.4999Z" stroke="#6C8DAB" stroke-width="2.4" stroke-miterlimit="10"/>
<path d="M50.6357 50.0098C50.6357 40.0411 58.7023 31.9746 68.671 31.9746C68.671 41.9433 60.6044 50.0098 50.6357 50.0098Z" stroke="#6C8DAB" stroke-width="2.4" stroke-miterlimit="10"/>
<path d="M44.999 65.7896V54.5176" stroke="#6C8DAB" stroke-width="2.4" stroke-miterlimit="10"/>
<path d="M60.7798 39.8633L44.999 55.6441" stroke="#6C8DAB" stroke-width="2.4" stroke-miterlimit="10"/>
<path d="M29.2188 39.8633L44.9996 55.6441" stroke="#6C8DAB" stroke-width="2.4" stroke-miterlimit="10"/>
<path d="M34.3797 37.5557C37.4682 40.7907 39.3633 45.177 39.3633 50.0098C29.3947 50.0098 21.3281 41.9433 21.3281 31.9746C25.7031 31.9746 29.7103 33.5273 32.8312 36.1143" stroke="#6C8DAB" stroke-width="2.4" stroke-miterlimit="10"/>
<path d="M46.0557 40.9922H48.1692" stroke="#6C8DAB" stroke-width="2.4" stroke-miterlimit="10"/>
<path d="M41.8291 40.9922H43.9426" stroke="#6C8DAB" stroke-width="2.4" stroke-miterlimit="10"/>
</svg>
