<svg width="120" height="120" viewBox="0 0 120 120" fill="none" xmlns="http://www.w3.org/2000/svg">
<mask id="mask0_1485_9517" style="mask-type:luminance" maskUnits="userSpaceOnUse" x="12" y="12" width="96" height="96">
<path d="M12 12H108V108H12V12Z" fill="white"/>
</mask>
<g mask="url(#mask0_1485_9517)">
<path d="M38.9262 39.4409C35.2081 43.4368 32.9337 48.7955 32.9337 54.6828C32.9337 67.0449 42.9537 77.0647 55.3137 77.0647C56.855 77.0647 58.3589 76.9091 59.812 76.6109M44.0695 35.3274C47.3731 33.4036 51.215 32.303 55.3137 32.303C67.6756 32.303 77.6958 42.3228 77.6958 54.6828C77.6958 61.0055 75.0743 66.7147 70.8612 70.7834M92.6075 72.6434L94.4937 69.3753C94.9458 68.5934 94.8312 67.6074 94.2125 66.9491L87.5337 59.8505C87.2468 59.5449 87.1176 59.1266 87.1681 58.7105C87.3351 57.3903 87.4214 56.0478 87.4214 54.6828C87.4214 53.3199 87.3351 51.9772 87.1681 50.6572C87.1176 50.2411 87.2468 49.8228 87.5337 49.5172L94.2125 42.4186C94.8312 41.7603 94.9458 40.7741 94.4937 39.9922L87.6275 28.0993C87.1756 27.3153 86.2643 26.9216 85.3868 27.1299L75.8993 29.3628C75.4887 29.4605 75.0593 29.3628 74.7218 29.108C72.5956 27.4899 70.2612 26.1324 67.7658 25.0822C67.3718 24.9153 67.0681 24.5872 66.9445 24.1768L64.1412 14.8634C63.8806 13.9993 63.0837 13.4066 62.1801 13.4066H48.4475C47.5437 13.4066 46.7487 13.9993 46.4881 14.8634L43.685 24.1768C43.5612 24.5872 43.2576 24.9153 42.8618 25.0822C40.3681 26.1324 38.0337 27.4899 35.9058 29.108C35.5701 29.3628 35.1408 29.4605 34.7281 29.3628L25.2426 27.1299C24.3631 26.9216 23.4518 27.3153 23.0001 28.0993L16.1337 39.9922C15.6818 40.7741 15.7964 41.7603 16.4168 42.4186L23.0939 49.5172C23.3826 49.8228 23.5118 50.2411 23.4593 50.6572C23.2943 51.9772 23.2081 53.3199 23.2081 54.6828C23.2081 56.0478 23.2943 57.3903 23.4593 58.7105C23.5118 59.1266 23.3826 59.5449 23.0939 59.8505L16.4168 66.9491C15.7964 67.6074 15.6818 68.5934 16.1337 69.3753L23.0001 81.2684C23.4518 82.0503 24.3631 82.4443 25.2426 82.2378L34.7281 80.0049C35.1408 79.9072 35.5701 80.0049 35.9058 80.2597C38.0337 81.8759 40.3681 83.2353 42.8618 84.2853C43.2576 84.4524 43.5612 84.7805 43.685 85.1909L46.4881 94.5041C46.7487 95.3684 47.5437 95.9609 48.4475 95.9609H53.6693" stroke="#6C8DAB" stroke-width="3" stroke-miterlimit="10" stroke-linecap="round" stroke-linejoin="round"/>
<path d="M63.58 52.9132H59.4042C59.0333 52.9132 58.7324 52.6125 58.7324 52.2414V42.5955C58.7324 41.6045 57.5005 41.148 56.8547 41.8993L46.1069 54.4025C45.4155 55.2065 45.9869 56.451 47.0472 56.451H51.223C51.5939 56.451 51.8948 56.7519 51.8948 57.1228V66.7687C51.8948 67.7597 53.1267 68.2162 53.7724 67.4649L64.5205 54.9617C65.2116 54.1577 64.6403 52.9132 63.58 52.9132Z" stroke="#6C8DAB" stroke-width="3" stroke-miterlimit="10" stroke-linecap="round" stroke-linejoin="round"/>
<path d="M50.0391 103.901C59.5269 82.8702 90.8411 76.547 104.135 80.6628" stroke="#6C8DAB" stroke-width="3" stroke-miterlimit="10" stroke-linecap="round" stroke-linejoin="round"/>
<path d="M86.439 95.8016C83.8028 98.487 81.1961 101.059 78.5595 103.025C69.5799 109.72 57.8456 106.901 53.4293 95.3585C47.3619 79.5011 74.7429 56.6726 103.427 79.118C104.567 80.0104 104.293 81.7886 102.949 82.3264C98.8131 83.9807 94.9612 87.2891 91.2347 90.9465" stroke="#6C8DAB" stroke-width="3" stroke-miterlimit="10" stroke-linecap="round" stroke-linejoin="round"/>
</g>
</svg>
