<svg width="120" height="120" viewBox="0 0 120 120" fill="none" xmlns="http://www.w3.org/2000/svg">
<path d="M56.5723 88.438L67.3834 92.2695L86.3194 82.4454C88.77 81.174 91.8153 82.1387 93.0865 84.5894C93.7222 85.8147 93.2393 87.3375 92.0144 87.9729L80.453 93.9708M77.9566 95.2662L66.3953 101.264L46.9532 99.4079L30.8585 106.66H26.6406V89.2029H30.8585L46.9562 80.2481L64.4079 79.2236C66.4748 79.1021 68.4884 79.8484 69.0425 81.8431C69.5967 83.838 68.3877 85.8265 66.4228 86.478L49.9718 89.751" stroke="#6C8DAB" stroke-width="3" stroke-miterlimit="22.9256"/>
<path d="M69.1797 82.8564L76.7895 78.9084C79.2402 77.637 82.2853 78.6019 83.5567 81.0523C84.1924 82.2776 83.7097 83.8005 82.4845 84.4358" stroke="#6C8DAB" stroke-width="3" stroke-miterlimit="22.9256"/>
<path d="M43.5294 29.8768C38.7997 35.3828 35.5938 41.1253 35.5938 47.756C35.5938 61.2428 46.5149 72.1632 60.0016 72.1632C73.4883 72.1632 84.4094 61.2428 84.4094 47.756C84.4094 34.7154 72.0138 25.1107 60.0016 13.9824C54.9007 18.708 49.7308 23.159 45.4705 27.7149" stroke="#6C8DAB" stroke-width="3" stroke-miterlimit="22.9256"/>
<path fill-rule="evenodd" clip-rule="evenodd" d="M54.0413 44.9298L58.0181 48.9066L65.9718 40.9531L70.9428 45.9241L58.0181 58.8488L49.0703 49.9009L54.0413 44.9298Z" stroke="#6C8DAB" stroke-width="3" stroke-miterlimit="22.9256"/>
<path d="M63.4141 27.0884V24.2764M69.0382 31.3065V28.4945" stroke="#6C8DAB" stroke-width="3" stroke-miterlimit="22.9256"/>
</svg>
