<svg width="120" height="120" viewBox="0 0 120 120" fill="none" xmlns="http://www.w3.org/2000/svg">
<path d="M66.1184 80.7869C66.1184 80.7869 66.65 85.3742 63.5639 88.4603C60.4779 91.5464 56.2872 90.618 56.2872 90.618C56.2872 90.618 55.3589 86.4274 58.4448 83.3414C61.5311 80.2553 66.1184 80.7869 66.1184 80.7869Z" stroke="#6C8DAB" stroke-width="3" stroke-miterlimit="10" stroke-linecap="round" stroke-linejoin="round"/>
<path d="M87.6406 43.748L91.1377 47.2451L94.6348 43.748" stroke="#6C8DAB" stroke-width="3" stroke-miterlimit="10" stroke-linecap="round" stroke-linejoin="round"/>
<path d="M56.5 43.748L59.9971 47.2451L63.4941 43.748" stroke="#6C8DAB" stroke-width="3" stroke-miterlimit="10" stroke-linecap="round" stroke-linejoin="round"/>
<path d="M25.3984 43.748L28.8955 47.2451L32.3926 43.748" stroke="#6C8DAB" stroke-width="3" stroke-miterlimit="10" stroke-linecap="round" stroke-linejoin="round"/>
<path d="M71.7578 29.3418L91.0998 34.0377V47.245" stroke="#6C8DAB" stroke-width="3" stroke-miterlimit="10" stroke-linecap="round" stroke-linejoin="round"/>
<path d="M28.8984 47.2451V34.0378L47.8479 29.5176" stroke="#6C8DAB" stroke-width="3" stroke-miterlimit="10" stroke-linecap="round" stroke-linejoin="round"/>
<path d="M60 47.2447V35.2012" stroke="#6C8DAB" stroke-width="3" stroke-miterlimit="10" stroke-linecap="round" stroke-linejoin="round"/>
<path d="M35.5922 106.522H22.2829C19.9451 106.522 17.9646 104.8 17.6398 102.485L13.4062 72.3086H44.4688L40.2354 102.485C39.9105 104.8 37.9299 106.522 35.5922 106.522Z" stroke="#6C8DAB" stroke-width="3" stroke-miterlimit="10" stroke-linecap="round" stroke-linejoin="round"/>
<path d="M44.4688 66.7377H13.4062L15.8357 56.369C16.1972 54.8262 17.5732 53.7354 19.1576 53.7354H38.7171C40.3016 53.7354 41.6777 54.8262 42.039 56.369L44.4688 66.7377Z" stroke="#6C8DAB" stroke-width="3" stroke-miterlimit="10" stroke-linecap="round" stroke-linejoin="round"/>
<path d="M29.0127 62.0054C26.0026 62.0054 23.5625 59.5653 23.5625 56.5552V53.7354H34.4632V56.5552C34.463 59.5653 32.0229 62.0054 29.0127 62.0054Z" stroke="#6C8DAB" stroke-width="3" stroke-miterlimit="10" stroke-linecap="round" stroke-linejoin="round"/>
<path d="M44.4688 66.7383H13.4062V72.3091H44.4688V66.7383Z" stroke="#6C8DAB" stroke-width="3" stroke-miterlimit="10" stroke-linecap="round" stroke-linejoin="round"/>
<path d="M56.4418 72.3086H75.5309L71.2976 102.485C70.9728 104.8 68.9923 106.522 66.6545 106.522H53.3452C51.0074 106.522 49.0269 104.8 48.7021 102.485L44.4688 72.3086H49.8341" stroke="#6C8DAB" stroke-width="3" stroke-miterlimit="10" stroke-linecap="round" stroke-linejoin="round"/>
<path d="M75.5311 66.7377H44.4688L46.8982 56.369C47.2597 54.8262 48.6357 53.7354 50.2201 53.7354H69.7796C71.3641 53.7354 72.7402 54.8262 73.1015 56.369L75.5311 66.7377Z" stroke="#6C8DAB" stroke-width="3" stroke-miterlimit="10" stroke-linecap="round" stroke-linejoin="round"/>
<path d="M60.0752 62.0054C57.0651 62.0054 54.625 59.5653 54.625 56.5552V53.7354H65.5257V56.5552C65.5257 59.5653 63.0854 62.0054 60.0752 62.0054Z" stroke="#6C8DAB" stroke-width="3" stroke-miterlimit="10" stroke-linecap="round" stroke-linejoin="round"/>
<path d="M44.4688 72.3093V66.7383H75.5311V72.3093" stroke="#6C8DAB" stroke-width="3" stroke-miterlimit="10" stroke-linecap="round" stroke-linejoin="round"/>
<path d="M102.9 98.4483L102.36 102.298C102.035 104.613 100.055 106.335 97.717 106.335H84.4077C82.0699 106.335 80.0894 104.613 79.7646 102.298L75.5312 72.1211H106.593L103.814 91.9325" stroke="#6C8DAB" stroke-width="3" stroke-miterlimit="10" stroke-linecap="round" stroke-linejoin="round"/>
<path d="M106.594 66.7377H75.5312L77.9607 56.369C78.3222 54.8262 79.6982 53.7354 81.2826 53.7354H100.842C102.427 53.7354 103.803 54.8262 104.164 56.369L106.594 66.7377Z" stroke="#6C8DAB" stroke-width="3" stroke-miterlimit="10" stroke-linecap="round" stroke-linejoin="round"/>
<path d="M91.1378 62.0054C88.1276 62.0054 85.6875 59.5653 85.6875 56.5552V53.7354H96.5882V56.5552C96.588 59.5653 94.1479 62.0054 91.1378 62.0054Z" stroke="#6C8DAB" stroke-width="3" stroke-miterlimit="10" stroke-linecap="round" stroke-linejoin="round"/>
<path d="M106.594 66.7383H75.5312V72.3091H106.594V66.7383Z" stroke="#6C8DAB" stroke-width="3" stroke-miterlimit="10" stroke-linecap="round" stroke-linejoin="round"/>
<path d="M35.4037 90.7514H22.4766L28.9401 80.1689L35.4037 90.7514Z" stroke="#6C8DAB" stroke-width="3" stroke-miterlimit="10" stroke-linecap="round" stroke-linejoin="round"/>
<path d="M91.0625 80.8193V86.3056" stroke="#6C8DAB" stroke-width="3" stroke-miterlimit="10" stroke-linecap="round" stroke-linejoin="round"/>
<circle cx="91.0625" cy="91.5205" r="1.40625" fill="#6C8DAB"/>
<path d="M63.9928 30.2604H56.0004C54.1134 30.2604 52.7054 28.5226 53.0969 26.6767L54.0498 22.1836C54.4584 20.2574 56.1588 18.8799 58.1278 18.8799H61.8656C63.8345 18.8799 65.5349 20.2574 65.9435 22.1836L66.8964 26.6767C67.2877 28.5224 65.8798 30.2604 63.9928 30.2604Z" stroke="#6C8DAB" stroke-width="3" stroke-miterlimit="10" stroke-linecap="round" stroke-linejoin="round"/>
<path d="M59.9972 18.8796C58.5531 18.8796 57.3306 17.8136 57.1339 16.383L56.7344 13.4766H63.2599L62.8604 16.383C62.6639 17.8136 61.4414 18.8796 59.9972 18.8796Z" stroke="#6C8DAB" stroke-width="3" stroke-miterlimit="10" stroke-linecap="round" stroke-linejoin="round"/>
</svg>
