<svg width="120" height="120" viewBox="0 0 120 120" fill="none" xmlns="http://www.w3.org/2000/svg">
<path d="M83.3203 72.8954C87.8098 72.8939 97.2806 72.0756 105.79 66.0276C106.447 65.5611 106.742 64.7341 106.518 63.9605C105.606 60.8062 103.035 52.2954 99.8156 44.8203" stroke="#6C8DAB" stroke-width="3" stroke-miterlimit="10" stroke-linecap="round" stroke-linejoin="round"/>
<path d="M97.1505 39.2311C95.4551 36.0839 93.6701 33.5784 91.9101 32.4483C91.5902 32.2428 91.2247 32.1196 90.8475 32.0731L84.9431 31.3456C82.9663 31.1017 81.117 32.3592 80.6164 34.2871L79.7218 37.729C79.1974 39.7493 80.3275 41.8313 82.3073 42.4917L85.5741 43.5796C86.6228 43.9287 87.7781 43.63 88.524 42.8155C88.8311 42.4805 89.0541 42.0935 89.19 41.6827L92.9531 57.1416C91.5499 56.3969 89.5369 55.9743 86.8294 56.8471" stroke="#6C8DAB" stroke-width="3" stroke-miterlimit="10" stroke-linecap="round" stroke-linejoin="round"/>
<path d="M92.9531 57.1426C92.9531 57.1426 94.5476 57.8131 95.3631 59.9491" stroke="#6C8DAB" stroke-width="3" stroke-miterlimit="10" stroke-linecap="round" stroke-linejoin="round"/>
<path d="M33.2568 56.8748C30.5066 55.9656 28.4664 56.3892 27.0485 57.1416L30.8116 41.6827C30.9476 42.0935 31.1705 42.4805 31.4776 42.8155C32.2235 43.63 33.3789 43.9287 34.4276 43.5796L37.6944 42.4917C39.674 41.8313 40.8041 39.7493 40.2798 37.729L39.3852 34.2871C38.8848 32.3592 37.0355 31.1017 35.0585 31.3456L29.1541 32.0731C28.7767 32.1196 28.4115 32.2428 28.0914 32.4483C21.7496 36.5204 15.0774 58.4404 13.4803 63.9595C13.2564 64.7331 13.5519 65.5602 14.2084 66.0267C16.592 67.7207 19.0511 69.0042 21.4548 69.9745" stroke="#6C8DAB" stroke-width="3" stroke-miterlimit="10" stroke-linecap="round" stroke-linejoin="round"/>
<path d="M27.3438 71.8203C31.2008 72.7085 34.5578 72.8968 36.7274 72.8947" stroke="#6C8DAB" stroke-width="3" stroke-miterlimit="10" stroke-linecap="round" stroke-linejoin="round"/>
<path d="M76.8253 78.9585L82.7122 73.0716C88.8394 66.9445 88.8394 57.0105 82.7122 50.8834C76.5851 44.7563 66.6512 44.7563 60.5241 50.8834L60.0015 51.406L59.4788 50.8834C53.3517 44.7563 43.4178 44.7563 37.2906 50.8834C31.1635 57.0105 31.1635 66.9445 37.2906 73.0716L58.624 94.4049C59.3847 95.1656 60.6182 95.1656 61.3791 94.4049L72.4727 83.3113" stroke="#6C8DAB" stroke-width="3" stroke-miterlimit="10" stroke-linecap="round" stroke-linejoin="round"/>
<path d="M67.274 26.8719H64.0964V23.6943C64.0964 22.6588 63.257 21.8193 62.2214 21.8193H57.7713C56.7357 21.8193 55.8963 22.6588 55.8963 23.6943V26.8719H52.7187C51.6832 26.8719 50.8438 27.7113 50.8438 28.7469V33.197C50.8438 34.2326 51.6832 35.072 52.7187 35.072H55.8963V38.2496C55.8963 39.2851 56.7357 40.1246 57.7713 40.1246H62.2214C63.257 40.1246 64.0964 39.2851 64.0964 38.2496V35.072H67.274C68.3095 35.072 69.149 34.2326 69.149 33.197V28.7469C69.149 27.7113 68.3095 26.8719 67.274 26.8719Z" stroke="#6C8DAB" stroke-width="3" stroke-miterlimit="10" stroke-linecap="round" stroke-linejoin="round"/>
<path d="M27.0506 57.1426C27.0506 57.1426 25.4561 57.8131 24.6406 59.9491" stroke="#6C8DAB" stroke-width="3" stroke-miterlimit="10" stroke-linecap="round" stroke-linejoin="round"/>
<path d="M54.3828 72.7549C55.5594 74.6141 57.632 75.8494 59.9952 75.8494C62.3585 75.8494 64.4311 74.6141 65.6077 72.7549" stroke="#6C8DAB" stroke-width="3" stroke-miterlimit="10" stroke-linecap="round" stroke-linejoin="round"/>
<path d="M53.0781 65.4893V66.4521" stroke="#6C8DAB" stroke-width="3" stroke-miterlimit="10" stroke-linecap="round" stroke-linejoin="round"/>
<path d="M66.9219 65.4893V66.4521" stroke="#6C8DAB" stroke-width="3" stroke-miterlimit="10" stroke-linecap="round" stroke-linejoin="round"/>
<path d="M36.8988 84.9197H33.7212V81.7422C33.7212 80.7066 32.8818 79.8672 31.8462 79.8672H27.3963C26.3607 79.8672 25.5213 80.7066 25.5213 81.7422V84.9197H22.3437C21.3082 84.9197 20.4688 85.7592 20.4688 86.7947V91.2449C20.4688 92.2804 21.3082 93.1198 22.3437 93.1198H25.5213V96.2974C25.5213 97.333 26.3607 98.1724 27.3963 98.1724H31.8464C32.882 98.1724 33.7214 97.333 33.7214 96.2974V93.1198H36.899C37.9345 93.1198 38.774 92.2804 38.774 91.2449V86.7947C38.7738 85.7592 37.9343 84.9197 36.8988 84.9197Z" stroke="#6C8DAB" stroke-width="3" stroke-miterlimit="10" stroke-linecap="round" stroke-linejoin="round"/>
<path d="M97.649 84.9197H94.4714V81.7422C94.4714 80.7066 93.632 79.8672 92.5964 79.8672H88.1463C87.1107 79.8672 86.2713 80.7066 86.2713 81.7422V84.9197H83.0937C82.0582 84.9197 81.2188 85.7592 81.2188 86.7947V91.2449C81.2188 92.2804 82.0582 93.1198 83.0937 93.1198H86.2713V96.2974C86.2713 97.333 87.1107 98.1724 88.1463 98.1724H92.5964C93.632 98.1724 94.4714 97.333 94.4714 96.2974V93.1198H97.649C98.6845 93.1198 99.524 92.2804 99.524 91.2449V86.7947C99.524 85.7592 98.6845 84.9197 97.649 84.9197Z" stroke="#6C8DAB" stroke-width="3" stroke-miterlimit="10" stroke-linecap="round" stroke-linejoin="round"/>
</svg>
