<svg width="120" height="120" viewBox="0 0 120 120" fill="none" xmlns="http://www.w3.org/2000/svg">
<path d="M55.414 106.629C44.8383 106.57 34.7004 102.399 27.1456 94.9981C19.5908 87.5972 15.212 77.5472 14.9358 66.975C14.6596 56.4028 18.5077 46.1379 25.6657 38.3526C32.8238 30.5673 42.7301 25.8725 53.2883 25.2618C53.4868 25.2509 53.6852 25.2833 53.8699 25.3567C54.0546 25.4301 54.2212 25.5428 54.358 25.687C54.4941 25.8302 54.5977 26.0012 54.6616 26.1882C54.7255 26.3752 54.7483 26.5738 54.7283 26.7704C54.7076 27.1358 54.7076 27.5021 54.7283 27.8675C54.9 29.784 55.3053 31.6723 55.9352 33.4904C56.278 34.6698 56.6483 35.8904 56.8952 37.1384C57.8003 41.5407 56.8952 45.367 54.2757 47.5064C52.0952 49.303 49.3523 49.5224 46.6917 49.7418C44.2506 49.9338 41.9329 50.1258 40.4929 51.5658C39.0529 53.0058 38.902 54.9807 38.614 57.1887C38.4942 59.1339 38.0299 61.0424 37.2426 62.8253C35.1854 66.775 29.8917 68.7498 25.174 67.2961C22.1592 66.2706 19.5599 64.2922 17.7683 61.6595C17.6097 63.0758 17.5273 64.4996 17.5214 65.9247C17.5008 71.7494 18.8203 77.5008 21.378 82.734C23.9356 87.9672 27.6628 92.5419 32.2712 96.1042C36.8797 99.6665 42.2458 102.121 47.9545 103.278C53.6633 104.435 59.5616 104.263 65.1932 102.775C70.8249 101.288 76.0389 98.5248 80.432 94.7C84.825 90.8752 88.2793 86.0912 90.5277 80.7178C92.7761 75.3445 93.7583 69.526 93.3983 63.7124C93.0383 57.8988 91.3458 52.2459 88.4517 47.191C88.2699 46.8745 88.2212 46.4988 88.3163 46.1464C88.4115 45.7941 88.6427 45.494 88.9592 45.3121C89.2756 45.1302 89.6513 45.0815 90.0037 45.1767C90.356 45.2719 90.6562 45.5031 90.838 45.8195C94.3523 52.0142 96.1802 59.0222 96.1394 66.1442C96.0986 73.2661 94.1905 80.2527 90.6056 86.4067C87.0206 92.5607 81.8842 97.6667 75.709 101.215C69.5339 104.764 62.536 106.63 55.414 106.629ZM18.3854 57.5178C19.1036 59.1481 20.1375 60.62 21.4274 61.8487C22.7173 63.0774 24.2377 64.0385 25.9009 64.6767C29.3294 65.7327 33.2929 64.3338 34.7329 61.5498C35.3757 60.0527 35.7606 58.4576 35.8712 56.8321C36.2003 54.2675 36.5432 51.6207 38.518 49.6321C40.4929 47.6435 43.606 47.2321 46.4449 46.999C48.79 46.8207 50.998 46.6287 52.5066 45.3944C55.0986 43.255 54.4403 38.9624 54.1934 37.7007C53.9466 36.439 53.6174 35.4378 53.2746 34.2721C52.5941 32.2794 52.1567 30.2119 51.9717 28.1144C43.9832 28.8335 36.4285 32.0672 30.3936 37.3505C24.3588 42.6338 20.1546 49.6946 18.3854 57.5178Z" fill="#6C8DAB"/>
<path d="M70.4399 103.488C70.2147 103.487 69.9934 103.431 69.7953 103.324C63.1647 99.8176 57.5095 94.7185 53.3381 88.4849C51.9402 86.531 50.9769 84.3004 50.513 81.9432C50.2681 80.6229 50.35 79.2628 50.7517 77.9815C51.1533 76.7001 51.8623 75.5366 52.817 74.5923C54.7781 72.8369 57.6033 72.2746 61.4707 72.8643L63.0616 73.1249C64.9339 73.6019 66.8821 73.7044 68.7941 73.4266C70.9199 72.9466 72.9084 71.3832 75.1576 68.5443L76.3919 66.8986C77.772 64.8474 79.434 63.0007 81.329 61.4129C83.2574 59.9995 85.5098 59.0932 87.8797 58.7769C90.2495 58.4606 92.6609 58.7445 94.8924 59.6026C95.0751 59.6534 95.2452 59.7415 95.3921 59.8614C95.539 59.9813 95.6594 60.1303 95.7458 60.2991C95.8322 60.4678 95.8826 60.6527 95.894 60.842C95.9053 61.0312 95.8773 61.2208 95.8116 61.3986C95.746 61.5765 95.6442 61.7388 95.5127 61.8754C95.3811 62.0119 95.2227 62.1197 95.0474 62.1919C94.8721 62.2641 94.6837 62.2992 94.4942 62.295C94.3046 62.2907 94.118 62.2472 93.9461 62.1672C92.1461 61.4734 90.2024 61.2356 88.2882 61.4749C86.374 61.7141 84.5486 62.4231 82.9747 63.5386C81.2828 64.9747 79.8009 66.6413 78.5724 68.4894L77.297 70.19C75.665 72.3432 73.0456 75.2094 69.3976 76.046C67.117 76.4223 64.7836 76.329 62.5404 75.7717L61.0044 75.5249C58.0559 75.0723 55.9027 75.4289 54.6136 76.5809C54.009 77.2243 53.5686 78.004 53.3298 78.854C53.0911 79.704 53.061 80.5991 53.2421 81.4632C53.6616 83.4478 54.5035 85.3188 55.7107 86.9489C59.6063 92.8036 64.8933 97.6005 71.0981 100.91C71.3673 101.055 71.5802 101.286 71.7029 101.567C71.8257 101.847 71.8512 102.16 71.7756 102.456C71.6999 102.753 71.5274 103.015 71.2853 103.202C71.0433 103.389 70.7457 103.49 70.4399 103.488Z" fill="#6C8DAB"/>
<path d="M36.9487 89.8555C35.5675 89.9278 34.1859 89.7223 32.8856 89.2512C31.5853 88.7801 30.3927 88.0529 29.3784 87.1127C25.2641 82.9161 25.1133 79.9127 25.7304 78.1435C26.1806 77.0838 26.9221 76.1734 27.8688 75.518C28.8155 74.8626 29.9286 74.489 31.079 74.4407C32.281 74.225 33.5192 74.3438 34.6583 74.784C35.7974 75.2241 36.7937 75.9688 37.5384 76.9367C38.1684 77.7367 39.0385 78.3135 40.0207 78.5824C41.1376 78.8806 42.1514 79.4794 42.9517 80.3136C43.7521 81.1478 44.3084 82.1855 44.5601 83.3138C44.9296 84.5189 44.8616 85.8157 44.3681 86.9755C43.9027 87.7712 43.2466 88.4386 42.4589 88.9174C41.6712 89.3963 40.7767 89.6715 39.8561 89.7184C38.8912 89.83 37.9198 89.8758 36.9487 89.8555ZM32.0801 77.1698H31.3807C30.7486 77.1846 30.1319 77.3677 29.5943 77.7004C29.0567 78.0331 28.6176 78.5033 28.3224 79.0624C27.815 80.5161 28.9121 82.7515 31.3395 85.2064C33.479 87.4281 37.3464 87.2224 39.4584 86.9207C40.2127 86.811 41.5155 86.5092 41.9133 85.7275C42.1049 85.1393 42.1049 84.5054 41.9133 83.9172C41.5293 82.2715 40.6515 81.8464 39.0195 81.1744C37.4915 80.7067 36.1639 79.7411 35.2481 78.4315C34.8591 77.9836 34.3685 77.6354 33.8174 77.4159C33.2662 77.1964 32.6705 77.112 32.0801 77.1698Z" fill="#6C8DAB"/>
<path d="M83.8139 48.5496C80.8802 48.6739 77.9565 48.1313 75.2627 46.9626C72.569 45.7939 70.1753 44.0295 68.2619 41.8022C61.9945 34.0948 64.3259 24.0971 64.4356 23.6719C64.4997 23.4166 64.636 23.1852 64.8281 23.0052C65.0202 22.8253 65.2601 22.7044 65.519 22.6571C65.7671 22.5975 66.0269 22.6083 66.2691 22.6882C66.5114 22.7682 66.7266 22.9141 66.8905 23.1096C69.1945 25.8525 73.3225 26.5108 77.327 27.2239C81.5922 27.9508 85.5556 28.5954 87.7773 31.6674C91.5487 36.9611 91.1099 46.2182 91.0825 46.6022C91.0691 46.893 90.9636 47.172 90.7811 47.3988C90.5987 47.6257 90.3488 47.7886 90.0676 47.8639C88.0172 48.3374 85.9182 48.5675 83.8139 48.5496ZM66.7807 26.7028C66.253 31.4574 67.5467 36.2354 70.4013 40.0742C75.983 46.9314 85.2539 45.9439 88.2299 45.3954C88.2299 42.9542 87.9556 36.8102 85.4047 33.2445C83.9099 31.1462 80.4127 30.5016 76.7236 29.9119C73.391 29.3222 69.6333 28.6776 66.7807 26.7028Z" fill="#6C8DAB"/>
<path d="M89.6441 47.8908C89.5214 47.9108 89.3964 47.9108 89.2738 47.8908C82.3542 45.9739 76.3803 41.5813 72.4875 35.5479C72.3883 35.3919 72.3216 35.2173 72.2916 35.0348C72.2616 34.8523 72.2688 34.6656 72.3128 34.4859C72.3568 34.3063 72.4367 34.1374 72.5477 33.9894C72.6587 33.8414 72.7984 33.7174 72.9585 33.6249C73.1187 33.5323 73.2959 33.4731 73.4795 33.4508C73.6631 33.4285 73.8493 33.4436 74.027 33.4951C74.2046 33.5466 74.37 33.6336 74.5132 33.7507C74.6563 33.8678 74.7743 34.0126 74.8601 34.1765C78.3465 39.445 83.5673 43.3266 89.6166 45.1479C91.6464 44.3937 101.342 40.3479 102.508 30.8851C103.221 25.0017 100.355 20.1057 98.4349 17.5685C97.0635 20.7639 94.3206 23.3148 91.6875 25.6051C89.4246 27.6485 87.2852 29.5685 86.4624 31.5845C86.4028 31.762 86.3075 31.9253 86.1824 32.0646C86.0574 32.2038 85.9051 32.316 85.735 32.3941C85.565 32.4723 85.3807 32.5149 85.1936 32.5191C85.0065 32.5234 84.8204 32.4893 84.647 32.419C84.4735 32.3487 84.3163 32.2436 84.185 32.1102C84.0537 31.9769 83.951 31.818 83.8834 31.6435C83.8158 31.469 83.7846 31.2824 83.7918 31.0954C83.799 30.9084 83.8444 30.7248 83.9252 30.5559C84.9812 27.9502 87.3538 25.8245 89.8635 23.5754C92.8806 20.8325 95.9938 18.0897 96.5012 14.5514C96.5362 14.2992 96.6406 14.0617 96.8029 13.8655C96.9652 13.6693 97.1789 13.5221 97.4201 13.4405C97.6558 13.3643 97.9078 13.3534 98.1493 13.4089C98.3908 13.4645 98.6127 13.5844 98.7915 13.7559C99.1344 14.0577 106.43 21.2851 105.292 31.2005C103.783 43.5434 90.6864 47.6577 90.1241 47.8634C89.9669 47.9007 89.8044 47.91 89.6441 47.8908Z" fill="#6C8DAB"/>
</svg>
