<svg width="120" height="120" viewBox="0 0 120 120" fill="none" xmlns="http://www.w3.org/2000/svg">
<path d="M86.8937 56.9946C87.0028 57.9815 87.0588 58.9845 87.0588 60.0005C87.0588 74.9414 74.9468 87.0533 60.006 87.0533C45.0651 87.0533 32.9531 74.9414 32.9531 60.0005C32.9531 58.7254 33.0412 57.4713 33.212 56.2432" stroke="#6C8DAB" stroke-width="2.4" stroke-miterlimit="10"/>
<path d="M38.2109 43.9669C43.1366 37.2828 51.0637 32.9463 60.0035 32.9463C68.9433 32.9463 76.8706 37.2826 81.7961 43.9669" stroke="#6C8DAB" stroke-width="2.4" stroke-miterlimit="10"/>
<path d="M99.0796 60.0002C99.0796 55.027 98.1485 50.2719 96.4545 45.8966L103.358 41.9108L97.3463 31.4981L90.4343 35.4888C84.462 28.0835 75.8442 22.9017 66.015 21.3839V13.4092H53.9915V21.3841C44.1623 22.9019 35.5445 28.0837 29.5722 35.489L22.6602 31.4983L16.6484 41.911L23.552 45.8968C21.858 50.2719 20.9269 55.027 20.9269 60.0002C20.9269 64.9734 21.858 69.7285 23.552 74.1035L16.6484 78.0893L22.6602 88.502L29.5722 84.5114C35.5445 91.9165 44.1623 97.0984 53.9915 98.6162V106.591H66.015V98.6162C75.8442 97.0984 84.462 91.9165 90.4343 84.5114L97.3463 88.502L103.358 78.0893L96.4545 74.1035C98.1485 69.7285 99.0796 64.9734 99.0796 60.0002Z" stroke="#6C8DAB" stroke-width="2.4" stroke-miterlimit="10"/>
<path d="M67.5156 66.0128C67.5156 52.7212 78.271 41.9658 91.5626 41.9658C91.5626 55.2574 80.8072 66.0128 67.5156 66.0128Z" stroke="#6C8DAB" stroke-width="2.4" stroke-miterlimit="10"/>
<path d="M60 87.0528V72.0234" stroke="#6C8DAB" stroke-width="2.4" stroke-miterlimit="10"/>
<path d="M81.0411 52.4854L60 73.5264" stroke="#6C8DAB" stroke-width="2.4" stroke-miterlimit="10"/>
<path d="M38.9609 52.4854L60.002 73.5264" stroke="#6C8DAB" stroke-width="2.4" stroke-miterlimit="10"/>
<path d="M45.8396 49.4072C49.9577 53.7207 52.4845 59.569 52.4845 66.0128C39.1929 66.0128 28.4375 55.2574 28.4375 41.9658C34.2708 41.9658 39.6137 44.0361 43.775 47.4854" stroke="#6C8DAB" stroke-width="2.4" stroke-miterlimit="10"/>
<path d="M61.4062 53.9893H64.2243" stroke="#6C8DAB" stroke-width="2.4" stroke-miterlimit="10"/>
<path d="M55.7734 53.9893H58.5914" stroke="#6C8DAB" stroke-width="2.4" stroke-miterlimit="10"/>
</svg>
