<svg width="521" height="254" viewBox="0 0 521 254" fill="none" xmlns="http://www.w3.org/2000/svg">
<path fill-rule="evenodd" clip-rule="evenodd" d="M354.011 34.6403H316.15C307.601 15.3158 288.281 2.08398 264.827 2.08398C241.373 2.08398 220.06 15.319 208.591 34.6403H191.835L166.625 89.0731H204.486C213.039 108.398 232.355 121.629 255.81 121.629C279.264 121.629 300.58 108.394 312.048 89.0731H328.805L354.011 34.6403Z" fill="white"/>
<path fill-rule="evenodd" clip-rule="evenodd" d="M207.554 32.5563C219.509 13.2171 241.147 0 265.009 0C288.822 0 308.567 13.1701 317.718 32.5563H357.5L330.366 91.1509H313.449C301.495 110.49 279.853 123.707 255.991 123.707C232.178 123.707 212.436 110.537 203.282 91.1509H163.5L190.638 32.5563H207.554ZM265.009 4.16182C242.387 4.16182 221.745 16.9397 210.622 35.679L210.005 36.7181H193.396L170.114 86.9891H206.073L206.629 88.246C214.852 106.824 233.408 119.545 255.991 119.545C278.614 119.545 299.258 106.767 310.381 88.0282L310.998 86.9891H327.607L350.887 36.7181H314.927L314.371 35.461C306.152 16.8838 287.593 4.16182 265.009 4.16182Z" fill="#C6C6C6"/>
<path fill-rule="evenodd" clip-rule="evenodd" d="M330.518 38.9556L322.548 55.2401H308.612L316.575 38.9556H301.07L283.504 74.876C282.713 71.4509 281.293 68.1606 279.685 65.1688C276.509 59.2655 271.258 53.3879 270.134 46.2841C269.087 39.6682 273.294 35.0682 278.331 34.6316C278.331 34.6316 311.402 34.6381 311.551 34.6316C301.565 18.071 281.599 11.7087 265.097 15.7822C257.572 17.6376 249.823 22.0611 244.469 28.7669C241.893 31.993 240.443 35.447 239.88 38.9909H222.679L207.57 51.0799L207.547 51.0414L213.457 38.9556H197.953L176.008 83.8192H191.512L199.175 68.1542L208.048 83.8192H228.435L214.518 61.9877L239.616 42.1496C239.537 47.2889 241.148 52.5405 243.827 57.5257C247.092 63.5927 256.383 73.7814 252.808 81.8868C250.419 87.3053 245.151 88.0597 240.641 88.0597C231.07 88.0629 221.5 88.0629 211.932 88.0661C224.83 109.458 253.081 113.965 271.847 100.621C276.572 97.2629 281.198 92.5923 283.217 86.3744C283.494 85.5238 283.698 84.6731 283.846 83.8224H294.636L302.599 67.5378H316.535L308.569 83.8224H324.073L346.019 38.9588H330.518V38.9556Z" fill="#E30613"/>
<path fill-rule="evenodd" clip-rule="evenodd" d="M236.493 35.0874C243.994 15.2685 268.364 6.35424 293.393 15.2685C274.555 0.550474 236.98 1.67399 215.602 35.0874H236.493Z" fill="black"/>
<path fill-rule="evenodd" clip-rule="evenodd" d="M286.049 88.5762C278.548 108.395 254.177 117.309 229.148 108.395C247.987 123.113 285.562 121.99 306.94 88.5762H286.049Z" fill="black"/>
<path d="M325.906 100.818C325.906 102.757 325.204 104.417 323.797 105.791C322.39 107.165 320.69 107.852 318.697 107.852C316.704 107.852 315.001 107.165 313.587 105.791C312.174 104.417 311.469 102.757 311.469 100.818C311.469 98.8763 312.174 97.2199 313.587 95.846C315.001 94.4721 316.704 93.7852 318.697 93.7852C320.69 93.7852 322.39 94.4721 323.797 95.846C325.204 97.2199 325.906 98.8763 325.906 100.818ZM324.98 100.818C324.98 99.0882 324.367 97.6147 323.141 96.3949C321.916 95.1751 320.433 94.5652 318.697 94.5652C316.961 94.5652 315.475 95.1751 314.243 96.3949C313.011 97.6147 312.391 99.0882 312.391 100.818C312.391 102.549 313.007 104.022 314.243 105.239C315.475 106.458 316.961 107.068 318.697 107.068C320.433 107.068 321.913 106.458 323.141 105.239C324.367 104.019 324.98 102.545 324.98 100.818ZM322.443 105.239H321.389C320.944 105.239 320.644 105.126 320.486 104.902L317.989 101.393H317.215V105.235H315.903V96.5779H319.132C320.094 96.5779 320.796 96.87 321.24 97.4542C321.557 97.8651 321.715 98.337 321.715 98.8731C321.715 99.483 321.507 100.016 321.092 100.468C320.677 100.921 320.124 101.194 319.435 101.281L322.061 104.863C322.14 104.991 322.272 105.113 322.443 105.239ZM320.377 98.9148C320.377 97.9582 319.732 97.4767 318.44 97.4767H317.215V100.501H318.292C319.682 100.501 320.377 99.9709 320.377 98.9148Z" fill="white"/>
<path d="M292.686 174.209H286.469L295.942 147H303.419L312.879 174.209H306.662L299.788 153.218H299.573L292.686 174.209ZM292.297 163.514H306.983V168.004H292.297V163.514Z" fill="white"/>
<path d="M263.539 174.209V147H274.366C276.438 147 278.207 147.368 279.672 148.103C281.146 148.829 282.267 149.861 283.035 151.198C283.812 152.527 284.201 154.09 284.201 155.888C284.201 157.695 283.808 159.249 283.022 160.551C282.236 161.844 281.097 162.836 279.605 163.527C278.122 164.218 276.327 164.564 274.218 164.564H266.969V159.94H273.28C274.388 159.94 275.308 159.79 276.041 159.488C276.773 159.187 277.318 158.736 277.675 158.133C278.042 157.531 278.225 156.783 278.225 155.888C278.225 154.985 278.042 154.223 277.675 153.603C277.318 152.983 276.769 152.514 276.027 152.195C275.295 151.867 274.37 151.703 273.254 151.703H269.341V174.209H263.539ZM278.359 161.827L285.179 174.209H278.774L272.101 161.827H278.359Z" fill="white"/>
<path d="M241.656 174.209V147H259.826V151.743H247.458V158.226H258.62V162.969H247.458V174.209H241.656Z" fill="white"/>
<path d="M237.516 147V174.209H232.504L220.565 157.084H220.364V174.209H214.562V147H219.654L231.499 164.112H231.74V147H237.516Z" fill="white"/>
<path d="M209.943 147V174.209H204.141V147H209.943Z" fill="white"/>
<path d="M6.12074 218.228V241.5H3.30256V218.228H6.12074ZM30.2259 218.228V241.5H27.4986L14.8168 223.228H14.5895V241.5H11.7713V218.228H14.4986L27.2259 236.546H27.4531V218.228H30.2259ZM48.5923 224.046C48.456 222.894 47.9029 222 46.9332 221.364C45.9635 220.728 44.7741 220.41 43.3651 220.41C42.3348 220.41 41.4332 220.576 40.6605 220.91C39.8954 221.243 39.2969 221.701 38.8651 222.285C38.4408 222.868 38.2287 223.531 38.2287 224.273C38.2287 224.894 38.3764 225.429 38.6719 225.875C38.9749 226.315 39.3613 226.682 39.831 226.978C40.3007 227.266 40.7931 227.504 41.3082 227.694C41.8234 227.875 42.2969 228.023 42.7287 228.137L45.0923 228.773C45.6984 228.932 46.3726 229.152 47.1151 229.432C47.8651 229.713 48.581 230.095 49.2628 230.58C49.9522 231.057 50.5204 231.671 50.9673 232.421C51.4143 233.171 51.6378 234.091 51.6378 235.182C51.6378 236.44 51.3082 237.576 50.6491 238.591C49.9976 239.607 49.0431 240.413 47.7855 241.012C46.5355 241.61 45.0166 241.91 43.2287 241.91C41.562 241.91 40.1188 241.641 38.8991 241.103C37.687 240.565 36.7325 239.815 36.0355 238.853C35.3461 237.891 34.956 236.773 34.8651 235.5H37.7741C37.8499 236.379 38.1454 237.107 38.6605 237.682C39.1832 238.25 39.8423 238.675 40.6378 238.955C41.4408 239.228 42.3045 239.364 43.2287 239.364C44.3045 239.364 45.2704 239.19 46.1264 238.841C46.9825 238.485 47.6605 237.993 48.1605 237.364C48.6605 236.728 48.9105 235.985 48.9105 235.137C48.9105 234.364 48.6946 233.735 48.2628 233.25C47.831 232.766 47.2628 232.372 46.5582 232.069C45.8537 231.766 45.0923 231.5 44.2741 231.273L41.4105 230.455C39.5923 229.932 38.1529 229.186 37.0923 228.216C36.0317 227.247 35.5014 225.978 35.5014 224.41C35.5014 223.107 35.8537 221.97 36.5582 221C37.2704 220.023 38.2249 219.266 39.4219 218.728C40.6264 218.182 41.9711 217.91 43.456 217.91C44.956 217.91 46.2893 218.179 47.456 218.716C48.6226 219.247 49.5469 219.974 50.2287 220.898C50.9181 221.822 51.2817 222.872 51.3196 224.046H48.5923ZM56.2713 241.5V218.228H64.1349C65.9607 218.228 67.4531 218.557 68.6122 219.216C69.7789 219.868 70.6425 220.75 71.2031 221.864C71.7637 222.978 72.044 224.22 72.044 225.591C72.044 226.963 71.7637 228.209 71.2031 229.33C70.6501 230.451 69.794 231.345 68.6349 232.012C67.4759 232.671 65.991 233 64.1804 233H58.544V230.5H64.0895C65.3395 230.5 66.3433 230.285 67.1009 229.853C67.8584 229.421 68.4077 228.838 68.7486 228.103C69.0971 227.36 69.2713 226.523 69.2713 225.591C69.2713 224.66 69.0971 223.826 68.7486 223.091C68.4077 222.357 67.8546 221.781 67.0895 221.364C66.3243 220.94 65.3092 220.728 64.044 220.728H59.0895V241.5H56.2713ZM79.402 218.228V241.5H76.5838V218.228H79.402ZM85.0526 241.5V218.228H92.9162C94.7344 218.228 96.2268 218.538 97.3935 219.16C98.5601 219.773 99.4238 220.618 99.9844 221.694C100.545 222.769 100.825 223.993 100.825 225.364C100.825 226.735 100.545 227.951 99.9844 229.012C99.4238 230.072 98.5639 230.906 97.4048 231.512C96.2457 232.11 94.7647 232.41 92.9616 232.41H86.598V229.864H92.8707C94.1132 229.864 95.1132 229.682 95.8707 229.319C96.6359 228.955 97.1889 228.44 97.5298 227.773C97.8783 227.099 98.0526 226.296 98.0526 225.364C98.0526 224.432 97.8783 223.618 97.5298 222.921C97.1813 222.224 96.6245 221.686 95.8594 221.307C95.0942 220.921 94.0829 220.728 92.8253 220.728H87.8707V241.5H85.0526ZM96.0071 231.046L101.734 241.5H98.4616L92.8253 231.046H96.0071ZM108.339 218.228V241.5H105.521V218.228H108.339ZM132.445 218.228V241.5H129.717L117.036 223.228H116.808V241.5H113.99V218.228H116.717L129.445 236.546H129.672V218.228H132.445ZM153.993 225.5C153.743 224.735 153.413 224.05 153.004 223.444C152.603 222.83 152.122 222.307 151.561 221.875C151.008 221.444 150.379 221.114 149.675 220.887C148.97 220.66 148.197 220.546 147.357 220.546C145.978 220.546 144.724 220.902 143.595 221.614C142.466 222.326 141.569 223.375 140.902 224.762C140.235 226.148 139.902 227.849 139.902 229.864C139.902 231.879 140.239 233.58 140.913 234.966C141.588 236.353 142.5 237.402 143.652 238.114C144.804 238.826 146.099 239.182 147.538 239.182C148.872 239.182 150.046 238.898 151.061 238.33C152.084 237.754 152.879 236.944 153.447 235.898C154.023 234.845 154.311 233.607 154.311 232.182L155.175 232.364H148.175V229.864H157.038V232.364C157.038 234.281 156.629 235.947 155.811 237.364C155 238.781 153.879 239.879 152.447 240.66C151.023 241.432 149.387 241.819 147.538 241.819C145.478 241.819 143.667 241.334 142.107 240.364C140.554 239.394 139.341 238.016 138.47 236.228C137.607 234.44 137.175 232.319 137.175 229.864C137.175 228.023 137.421 226.368 137.913 224.898C138.413 223.421 139.118 222.163 140.027 221.125C140.936 220.088 142.012 219.292 143.254 218.739C144.497 218.186 145.864 217.91 147.357 217.91C148.584 217.91 149.728 218.095 150.788 218.466C151.857 218.83 152.807 219.349 153.641 220.023C154.482 220.69 155.182 221.489 155.743 222.421C156.304 223.345 156.69 224.372 156.902 225.5H153.993ZM186.774 225.5C186.524 224.735 186.195 224.05 185.786 223.444C185.384 222.83 184.903 222.307 184.342 221.875C183.789 221.444 183.161 221.114 182.456 220.887C181.751 220.66 180.979 220.546 180.138 220.546C178.759 220.546 177.505 220.902 176.376 221.614C175.248 222.326 174.35 223.375 173.683 224.762C173.017 226.148 172.683 227.849 172.683 229.864C172.683 231.879 173.02 233.58 173.695 234.966C174.369 236.353 175.282 237.402 176.433 238.114C177.585 238.826 178.88 239.182 180.32 239.182C181.653 239.182 182.827 238.898 183.842 238.33C184.865 237.754 185.661 236.944 186.229 235.898C186.804 234.845 187.092 233.607 187.092 232.182L187.956 232.364H180.956V229.864H189.82V232.364C189.82 234.281 189.411 235.947 188.592 237.364C187.782 238.781 186.661 239.879 185.229 240.66C183.804 241.432 182.168 241.819 180.32 241.819C178.259 241.819 176.448 241.334 174.888 240.364C173.335 239.394 172.123 238.016 171.251 236.228C170.388 234.44 169.956 232.319 169.956 229.864C169.956 228.023 170.202 226.368 170.695 224.898C171.195 223.421 171.899 222.163 172.808 221.125C173.717 220.088 174.793 219.292 176.036 218.739C177.278 218.186 178.645 217.91 180.138 217.91C181.365 217.91 182.509 218.095 183.57 218.466C184.638 218.83 185.589 219.349 186.422 220.023C187.263 220.69 187.964 221.489 188.524 222.421C189.085 223.345 189.471 224.372 189.683 225.5H186.774ZM194.646 241.5V218.228H202.51C204.328 218.228 205.821 218.538 206.987 219.16C208.154 219.773 209.018 220.618 209.578 221.694C210.139 222.769 210.419 223.993 210.419 225.364C210.419 226.735 210.139 227.951 209.578 229.012C209.018 230.072 208.158 230.906 206.999 231.512C205.839 232.11 204.358 232.41 202.555 232.41H196.192V229.864H202.464C203.707 229.864 204.707 229.682 205.464 229.319C206.23 228.955 206.783 228.44 207.124 227.773C207.472 227.099 207.646 226.296 207.646 225.364C207.646 224.432 207.472 223.618 207.124 222.921C206.775 222.224 206.218 221.686 205.453 221.307C204.688 220.921 203.677 220.728 202.419 220.728H197.464V241.5H194.646ZM205.601 231.046L211.328 241.5H208.055L202.419 231.046H205.601ZM215.115 241.5V218.228H229.161V220.728H217.933V228.591H228.433V231.091H217.933V239H229.342V241.5H215.115ZM234.24 241.5V218.228H248.286V220.728H237.058V228.591H247.558V231.091H237.058V239H248.467V241.5H234.24ZM271.82 218.228V241.5H269.092L256.411 223.228H256.183V241.5H253.365V218.228H256.092L268.82 236.546H269.047V218.228H271.82ZM293.641 241.5H286.459V218.228H293.959C296.216 218.228 298.148 218.694 299.754 219.625C301.36 220.55 302.591 221.879 303.447 223.614C304.304 225.341 304.732 227.41 304.732 229.819C304.732 232.243 304.3 234.33 303.436 236.08C302.572 237.822 301.315 239.163 299.663 240.103C298.012 241.035 296.004 241.5 293.641 241.5ZM289.277 239H293.459C295.383 239 296.978 238.629 298.243 237.887C299.508 237.144 300.451 236.088 301.072 234.716C301.694 233.345 302.004 231.713 302.004 229.819C302.004 227.94 301.697 226.322 301.084 224.966C300.47 223.603 299.554 222.557 298.334 221.83C297.114 221.095 295.595 220.728 293.777 220.728H289.277V239ZM309.459 241.5V218.228H323.504V220.728H312.277V228.591H322.777V231.091H312.277V239H323.686V241.5H309.459ZM329.538 218.228L336.447 237.819H336.72L343.629 218.228H346.584L338.038 241.5H335.129L326.584 218.228H329.538ZM350.209 241.5V218.228H364.254V220.728H353.027V228.591H363.527V231.091H353.027V239H364.436V241.5H350.209ZM369.334 241.5V218.228H372.152V239H382.97V241.5H369.334ZM406.064 229.864C406.064 232.319 405.621 234.44 404.734 236.228C403.848 238.016 402.632 239.394 401.087 240.364C399.541 241.334 397.776 241.819 395.791 241.819C393.806 241.819 392.041 241.334 390.496 240.364C388.95 239.394 387.734 238.016 386.848 236.228C385.962 234.44 385.518 232.319 385.518 229.864C385.518 227.41 385.962 225.288 386.848 223.5C387.734 221.713 388.95 220.334 390.496 219.364C392.041 218.394 393.806 217.91 395.791 217.91C397.776 217.91 399.541 218.394 401.087 219.364C402.632 220.334 403.848 221.713 404.734 223.5C405.621 225.288 406.064 227.41 406.064 229.864ZM403.337 229.864C403.337 227.849 403 226.148 402.325 224.762C401.659 223.375 400.753 222.326 399.609 221.614C398.473 220.902 397.2 220.546 395.791 220.546C394.382 220.546 393.106 220.902 391.962 221.614C390.825 222.326 389.92 223.375 389.246 224.762C388.579 226.148 388.246 227.849 388.246 229.864C388.246 231.879 388.579 233.58 389.246 234.966C389.92 236.353 390.825 237.402 391.962 238.114C393.106 238.826 394.382 239.182 395.791 239.182C397.2 239.182 398.473 238.826 399.609 238.114C400.753 237.402 401.659 236.353 402.325 234.966C403 233.58 403.337 231.879 403.337 229.864ZM410.803 241.5V218.228H418.666C420.492 218.228 421.984 218.557 423.143 219.216C424.31 219.868 425.174 220.75 425.734 221.864C426.295 222.978 426.575 224.22 426.575 225.591C426.575 226.963 426.295 228.209 425.734 229.33C425.181 230.451 424.325 231.345 423.166 232.012C422.007 232.671 420.522 233 418.712 233H413.075V230.5H418.621C419.871 230.5 420.875 230.285 421.632 229.853C422.39 229.421 422.939 228.838 423.28 228.103C423.628 227.36 423.803 226.523 423.803 225.591C423.803 224.66 423.628 223.826 423.28 223.091C422.939 222.357 422.386 221.781 421.621 221.364C420.856 220.94 419.84 220.728 418.575 220.728H413.621V241.5H410.803ZM431.115 218.228H434.479L442.388 237.546H442.661L450.57 218.228H453.933V241.5H451.297V223.819H451.07L443.797 241.5H441.251L433.979 223.819H433.751V241.5H431.115V218.228ZM459.584 241.5V218.228H473.629V220.728H462.402V228.591H472.902V231.091H462.402V239H473.811V241.5H459.584ZM497.163 218.228V241.5H494.436L481.754 223.228H481.527V241.5H478.709V218.228H481.436L494.163 236.546H494.391V218.228H497.163ZM501.53 220.728V218.228H518.984V220.728H511.666V241.5H508.848V220.728H501.53Z" fill="white"/>
</svg>
