<svg width="530" height="185" viewBox="0 0 530 185" fill="none" xmlns="http://www.w3.org/2000/svg">
<path fill-rule="evenodd" clip-rule="evenodd" d="M196.011 35.6403H158.15C149.601 16.3158 130.281 3.08398 106.827 3.08398C83.3727 3.08398 62.06 16.319 50.5915 35.6403H33.8352L8.625 90.0731H46.4864C55.0392 109.398 74.3554 122.629 97.8096 122.629C121.264 122.629 142.58 109.394 154.048 90.0731H170.805L196.011 35.6403Z" fill="white"/>
<path fill-rule="evenodd" clip-rule="evenodd" d="M49.5541 33.5563C61.5086 14.2171 83.1473 1 107.009 1C130.822 1 150.567 14.1701 159.718 33.5563H199.5L172.366 92.1509H155.449C143.495 111.49 121.853 124.707 97.9914 124.707C74.1782 124.707 54.4361 111.537 45.282 92.1509H5.5L32.6377 33.5563H49.5541ZM107.009 5.16182C84.3867 5.16182 63.7452 17.9397 52.6222 36.679L52.0054 37.7181H35.3964L12.1137 87.9891H48.0731L48.6294 89.246C56.8516 107.824 75.4075 120.545 97.9914 120.545C120.614 120.545 141.258 107.767 152.381 89.0282L152.998 87.9891H169.607L192.887 37.7181H156.927L156.371 36.461C148.152 17.8838 129.593 5.16182 107.009 5.16182Z" fill="#C6C6C6"/>
<path fill-rule="evenodd" clip-rule="evenodd" d="M172.518 39.9556L164.548 56.2401H150.612L158.575 39.9556H143.07L125.504 75.876C124.713 72.4509 123.293 69.1606 121.685 66.1688C118.509 60.2655 113.258 54.3879 112.134 47.2841C111.087 40.6682 115.294 36.0682 120.331 35.6316C120.331 35.6316 153.402 35.6381 153.551 35.6316C143.565 19.071 123.599 12.7087 107.097 16.7822C99.572 18.6376 91.8231 23.0611 86.4694 29.7669C83.893 32.993 82.4434 36.447 81.88 39.9909H64.679L49.57 52.0799L49.5469 52.0414L55.4574 39.9556H39.9531L18.0078 84.8192H33.5122L41.1754 69.1542L50.0477 84.8192H70.4346L56.5183 62.9877L81.6165 43.1496C81.5374 48.2889 83.1485 53.5405 85.827 58.5257C89.0919 64.5927 98.3826 74.7814 94.808 82.8868C92.4194 88.3053 87.1514 89.0597 82.6411 89.0597C73.0703 89.0629 63.4995 89.0629 53.932 89.0661C66.8304 110.458 95.0815 114.965 113.847 101.621C118.572 98.2629 123.198 93.5923 125.217 87.3744C125.494 86.5238 125.698 85.6731 125.846 84.8224H136.636L144.599 68.5378H158.535L150.569 84.8224H166.073L188.019 39.9588H172.518V39.9556Z" fill="#E30613"/>
<path fill-rule="evenodd" clip-rule="evenodd" d="M78.4926 36.0874C85.9943 16.2685 110.364 7.35424 135.393 16.2685C116.555 1.55047 78.9802 2.67399 57.6016 36.0874H78.4926Z" fill="black"/>
<path fill-rule="evenodd" clip-rule="evenodd" d="M128.049 89.5762C120.548 109.395 96.1774 118.309 71.1484 109.395C89.9869 124.113 127.562 122.99 148.94 89.5762H128.049Z" fill="black"/>
<path d="M167.906 101.818C167.906 103.757 167.204 105.417 165.797 106.791C164.39 108.165 162.69 108.852 160.697 108.852C158.704 108.852 157.001 108.165 155.587 106.791C154.174 105.417 153.469 103.757 153.469 101.818C153.469 99.8763 154.174 98.2199 155.587 96.846C157.001 95.4721 158.704 94.7852 160.697 94.7852C162.69 94.7852 164.39 95.4721 165.797 96.846C167.204 98.2199 167.906 99.8763 167.906 101.818ZM166.98 101.818C166.98 100.088 166.367 98.6147 165.141 97.3949C163.916 96.1751 162.433 95.5652 160.697 95.5652C158.961 95.5652 157.475 96.1751 156.243 97.3949C155.011 98.6147 154.391 100.088 154.391 101.818C154.391 103.549 155.007 105.022 156.243 106.239C157.475 107.458 158.961 108.068 160.697 108.068C162.433 108.068 163.913 107.458 165.141 106.239C166.367 105.019 166.98 103.545 166.98 101.818ZM164.443 106.239H163.389C162.944 106.239 162.644 106.126 162.486 105.902L159.989 102.393H159.215V106.235H157.903V97.5779H161.132C162.094 97.5779 162.796 97.87 163.24 98.4542C163.557 98.8651 163.715 99.337 163.715 99.8731C163.715 100.483 163.507 101.016 163.092 101.468C162.677 101.921 162.124 102.194 161.435 102.281L164.061 105.863C164.14 105.991 164.272 106.113 164.443 106.239ZM162.377 99.9148C162.377 98.9582 161.732 98.4767 160.44 98.4767H159.215V101.501H160.292C161.682 101.501 162.377 100.971 162.377 99.9148Z" fill="white"/>
<path d="M134.686 175.209H128.469L137.942 148H145.419L154.879 175.209H148.662L141.788 154.218H141.573L134.686 175.209ZM134.297 164.514H148.983V169.004H134.297V164.514Z" fill="white"/>
<path d="M105.539 175.209V148H116.366C118.438 148 120.207 148.368 121.672 149.103C123.146 149.829 124.267 150.861 125.035 152.198C125.812 153.527 126.201 155.09 126.201 156.888C126.201 158.695 125.808 160.249 125.022 161.551C124.236 162.844 123.097 163.836 121.605 164.527C120.122 165.218 118.327 165.564 116.218 165.564H108.969V160.94H115.28C116.388 160.94 117.308 160.79 118.041 160.488C118.773 160.187 119.318 159.736 119.675 159.133C120.042 158.531 120.225 157.783 120.225 156.888C120.225 155.985 120.042 155.223 119.675 154.603C119.318 153.983 118.769 153.514 118.027 153.195C117.295 152.867 116.37 152.703 115.254 152.703H111.341V175.209H105.539ZM120.359 162.827L127.179 175.209H120.774L114.101 162.827H120.359Z" fill="white"/>
<path d="M83.6562 175.209V148H101.826V152.743H89.4582V159.226H100.62V163.969H89.4582V175.209H83.6562Z" fill="white"/>
<path d="M79.5156 148V175.209H74.5042L62.5654 158.084H62.3644V175.209H56.5625V148H61.6543L73.4993 165.112H73.7405V148H79.5156Z" fill="white"/>
<path d="M51.9425 148V175.209H46.1406V148H51.9425Z" fill="white"/>
<path d="M245.636 22.7273V46H242.818V22.7273H245.636ZM269.741 22.7273V46H267.014L254.332 27.7273H254.105V46H251.287V22.7273H254.014L266.741 41.0455H266.969V22.7273H269.741ZM288.108 28.5455C287.972 27.3939 287.419 26.5 286.449 25.8636C285.479 25.2273 284.29 24.9091 282.881 24.9091C281.85 24.9091 280.949 25.0758 280.176 25.4091C279.411 25.7424 278.813 26.2008 278.381 26.7841C277.956 27.3674 277.744 28.0303 277.744 28.7727C277.744 29.3939 277.892 29.928 278.188 30.375C278.491 30.8144 278.877 31.1818 279.347 31.4773C279.816 31.7652 280.309 32.0038 280.824 32.1932C281.339 32.375 281.812 32.5227 282.244 32.6364L284.608 33.2727C285.214 33.4318 285.888 33.6515 286.631 33.9318C287.381 34.2121 288.097 34.5947 288.778 35.0795C289.468 35.5568 290.036 36.1705 290.483 36.9205C290.93 37.6705 291.153 38.5909 291.153 39.6818C291.153 40.9394 290.824 42.0758 290.165 43.0909C289.513 44.1061 288.559 44.9129 287.301 45.5114C286.051 46.1098 284.532 46.4091 282.744 46.4091C281.078 46.4091 279.634 46.1402 278.415 45.6023C277.203 45.0644 276.248 44.3144 275.551 43.3523C274.862 42.3902 274.472 41.2727 274.381 40H277.29C277.366 40.8788 277.661 41.6061 278.176 42.1818C278.699 42.75 279.358 43.1742 280.153 43.4545C280.956 43.7273 281.82 43.8636 282.744 43.8636C283.82 43.8636 284.786 43.6894 285.642 43.3409C286.498 42.9848 287.176 42.4924 287.676 41.8636C288.176 41.2273 288.426 40.4848 288.426 39.6364C288.426 38.8636 288.21 38.2348 287.778 37.75C287.347 37.2652 286.778 36.8712 286.074 36.5682C285.369 36.2652 284.608 36 283.79 35.7727L280.926 34.9545C279.108 34.4318 277.669 33.6856 276.608 32.7159C275.547 31.7462 275.017 30.4773 275.017 28.9091C275.017 27.6061 275.369 26.4697 276.074 25.5C276.786 24.5227 277.741 23.7652 278.938 23.2273C280.142 22.6818 281.487 22.4091 282.972 22.4091C284.472 22.4091 285.805 22.678 286.972 23.2159C288.138 23.7462 289.063 24.4735 289.744 25.3977C290.434 26.322 290.797 27.3712 290.835 28.5455H288.108ZM295.787 46V22.7273H303.651C305.476 22.7273 306.969 23.0568 308.128 23.7159C309.295 24.3674 310.158 25.25 310.719 26.3636C311.279 27.4773 311.56 28.7197 311.56 30.0909C311.56 31.4621 311.279 32.7083 310.719 33.8295C310.166 34.9508 309.31 35.8447 308.151 36.5114C306.991 37.1705 305.507 37.5 303.696 37.5H298.06V35H303.605C304.855 35 305.859 34.7841 306.616 34.3523C307.374 33.9205 307.923 33.3371 308.264 32.6023C308.613 31.8598 308.787 31.0227 308.787 30.0909C308.787 29.1591 308.613 28.3258 308.264 27.5909C307.923 26.8561 307.37 26.2803 306.605 25.8636C305.84 25.4394 304.825 25.2273 303.56 25.2273H298.605V46H295.787ZM318.918 22.7273V46H316.099V22.7273H318.918ZM324.568 46V22.7273H332.432C334.25 22.7273 335.742 23.0379 336.909 23.6591C338.076 24.2727 338.939 25.1174 339.5 26.1932C340.061 27.2689 340.341 28.4924 340.341 29.8636C340.341 31.2348 340.061 32.4508 339.5 33.5114C338.939 34.572 338.08 35.4053 336.92 36.0114C335.761 36.6098 334.28 36.9091 332.477 36.9091H326.114V34.3636H332.386C333.629 34.3636 334.629 34.1818 335.386 33.8182C336.152 33.4545 336.705 32.9394 337.045 32.2727C337.394 31.5985 337.568 30.7955 337.568 29.8636C337.568 28.9318 337.394 28.1174 337.045 27.4205C336.697 26.7235 336.14 26.1856 335.375 25.8068C334.61 25.4205 333.598 25.2273 332.341 25.2273H327.386V46H324.568ZM335.523 35.5455L341.25 46H337.977L332.341 35.5455H335.523ZM347.855 22.7273V46H345.037V22.7273H347.855ZM371.96 22.7273V46H369.233L356.551 27.7273H356.324V46H353.506V22.7273H356.233L368.96 41.0455H369.188V22.7273H371.96ZM393.509 30C393.259 29.2348 392.929 28.5492 392.52 27.9432C392.118 27.3295 391.637 26.8068 391.077 26.375C390.524 25.9432 389.895 25.6136 389.19 25.3864C388.486 25.1591 387.713 25.0455 386.872 25.0455C385.493 25.0455 384.24 25.4015 383.111 26.1136C381.982 26.8258 381.084 27.875 380.418 29.2614C379.751 30.6477 379.418 32.3485 379.418 34.3636C379.418 36.3788 379.755 38.0795 380.429 39.4659C381.103 40.8523 382.016 41.9015 383.168 42.6136C384.319 43.3258 385.615 43.6818 387.054 43.6818C388.387 43.6818 389.562 43.3977 390.577 42.8295C391.599 42.2538 392.395 41.4432 392.963 40.3977C393.539 39.3447 393.827 38.1061 393.827 36.6818L394.69 36.8636H387.69V34.3636H396.554V36.8636C396.554 38.7803 396.145 40.447 395.327 41.8636C394.516 43.2803 393.395 44.3788 391.963 45.1591C390.539 45.9318 388.902 46.3182 387.054 46.3182C384.993 46.3182 383.183 45.8333 381.622 44.8636C380.069 43.8939 378.857 42.5152 377.986 40.7273C377.122 38.9394 376.69 36.8182 376.69 34.3636C376.69 32.5227 376.937 30.8674 377.429 29.3977C377.929 27.9205 378.634 26.6629 379.543 25.625C380.452 24.5871 381.527 23.7917 382.77 23.2386C384.012 22.6856 385.38 22.4091 386.872 22.4091C388.099 22.4091 389.243 22.5947 390.304 22.9659C391.372 23.3295 392.323 23.8485 393.156 24.5227C393.997 25.1894 394.698 25.9886 395.259 26.9205C395.819 27.8447 396.205 28.8712 396.418 30H393.509ZM258.727 88C258.477 87.2348 258.148 86.5492 257.739 85.9432C257.337 85.3295 256.856 84.8068 256.295 84.375C255.742 83.9432 255.114 83.6136 254.409 83.3864C253.705 83.1591 252.932 83.0455 252.091 83.0455C250.712 83.0455 249.458 83.4015 248.33 84.1136C247.201 84.8258 246.303 85.875 245.636 87.2614C244.97 88.6477 244.636 90.3485 244.636 92.3636C244.636 94.3788 244.973 96.0795 245.648 97.4659C246.322 98.8523 247.235 99.9015 248.386 100.614C249.538 101.326 250.833 101.682 252.273 101.682C253.606 101.682 254.78 101.398 255.795 100.83C256.818 100.254 257.614 99.4432 258.182 98.3977C258.758 97.3447 259.045 96.1061 259.045 94.6818L259.909 94.8636H252.909V92.3636H261.773V94.8636C261.773 96.7803 261.364 98.447 260.545 99.8636C259.735 101.28 258.614 102.379 257.182 103.159C255.758 103.932 254.121 104.318 252.273 104.318C250.212 104.318 248.402 103.833 246.841 102.864C245.288 101.894 244.076 100.515 243.205 98.7273C242.341 96.9394 241.909 94.8182 241.909 92.3636C241.909 90.5227 242.155 88.8674 242.648 87.3977C243.148 85.9205 243.852 84.6629 244.761 83.625C245.67 82.5871 246.746 81.7917 247.989 81.2386C249.231 80.6856 250.598 80.4091 252.091 80.4091C253.318 80.4091 254.462 80.5947 255.523 80.9659C256.591 81.3295 257.542 81.8485 258.375 82.5227C259.216 83.1894 259.917 83.9886 260.477 84.9205C261.038 85.8447 261.424 86.8712 261.636 88H258.727ZM266.599 104V80.7273H274.463C276.281 80.7273 277.774 81.0379 278.94 81.6591C280.107 82.2727 280.971 83.1174 281.531 84.1932C282.092 85.2689 282.372 86.4924 282.372 87.8636C282.372 89.2348 282.092 90.4508 281.531 91.5114C280.971 92.572 280.111 93.4053 278.952 94.0114C277.793 94.6098 276.312 94.9091 274.509 94.9091H268.145V92.3636H274.418C275.66 92.3636 276.66 92.1818 277.418 91.8182C278.183 91.4545 278.736 90.9394 279.077 90.2727C279.425 89.5985 279.599 88.7955 279.599 87.8636C279.599 86.9318 279.425 86.1174 279.077 85.4205C278.728 84.7235 278.171 84.1856 277.406 83.8068C276.641 83.4205 275.63 83.2273 274.372 83.2273H269.418V104H266.599ZM277.554 93.5455L283.281 104H280.009L274.372 93.5455H277.554ZM287.068 104V80.7273H301.114V83.2273H289.886V91.0909H300.386V93.5909H289.886V101.5H301.295V104H287.068ZM306.193 104V80.7273H320.239V83.2273H309.011V91.0909H319.511V93.5909H309.011V101.5H320.42V104H306.193ZM343.773 80.7273V104H341.045L328.364 85.7273H328.136V104H325.318V80.7273H328.045L340.773 99.0455H341V80.7273H343.773ZM250 162H242.818V138.727H250.318C252.576 138.727 254.508 139.193 256.114 140.125C257.72 141.049 258.951 142.379 259.807 144.114C260.663 145.841 261.091 147.909 261.091 150.318C261.091 152.742 260.659 154.83 259.795 156.58C258.932 158.322 257.674 159.663 256.023 160.602C254.371 161.534 252.364 162 250 162ZM245.636 159.5H249.818C251.742 159.5 253.337 159.129 254.602 158.386C255.867 157.644 256.811 156.587 257.432 155.216C258.053 153.845 258.364 152.212 258.364 150.318C258.364 148.439 258.057 146.822 257.443 145.466C256.83 144.102 255.913 143.057 254.693 142.33C253.473 141.595 251.955 141.227 250.136 141.227H245.636V159.5ZM265.818 162V138.727H279.864V141.227H268.636V149.091H279.136V151.591H268.636V159.5H280.045V162H265.818ZM285.898 138.727L292.807 158.318H293.08L299.989 138.727H302.943L294.398 162H291.489L282.943 138.727H285.898ZM306.568 162V138.727H320.614V141.227H309.386V149.091H319.886V151.591H309.386V159.5H320.795V162H306.568ZM325.693 162V138.727H328.511V159.5H339.33V162H325.693ZM362.423 150.364C362.423 152.818 361.98 154.939 361.094 156.727C360.207 158.515 358.991 159.894 357.446 160.864C355.901 161.833 354.135 162.318 352.151 162.318C350.166 162.318 348.401 161.833 346.855 160.864C345.31 159.894 344.094 158.515 343.207 156.727C342.321 154.939 341.878 152.818 341.878 150.364C341.878 147.909 342.321 145.788 343.207 144C344.094 142.212 345.31 140.833 346.855 139.864C348.401 138.894 350.166 138.409 352.151 138.409C354.135 138.409 355.901 138.894 357.446 139.864C358.991 140.833 360.207 142.212 361.094 144C361.98 145.788 362.423 147.909 362.423 150.364ZM359.696 150.364C359.696 148.348 359.359 146.648 358.685 145.261C358.018 143.875 357.113 142.826 355.969 142.114C354.832 141.402 353.56 141.045 352.151 141.045C350.741 141.045 349.465 141.402 348.321 142.114C347.185 142.826 346.279 143.875 345.605 145.261C344.938 146.648 344.605 148.348 344.605 150.364C344.605 152.379 344.938 154.08 345.605 155.466C346.279 156.852 347.185 157.902 348.321 158.614C349.465 159.326 350.741 159.682 352.151 159.682C353.56 159.682 354.832 159.326 355.969 158.614C357.113 157.902 358.018 156.852 358.685 155.466C359.359 154.08 359.696 152.379 359.696 150.364ZM367.162 162V138.727H375.026C376.851 138.727 378.344 139.057 379.503 139.716C380.67 140.367 381.533 141.25 382.094 142.364C382.654 143.477 382.935 144.72 382.935 146.091C382.935 147.462 382.654 148.708 382.094 149.83C381.541 150.951 380.685 151.845 379.526 152.511C378.366 153.17 376.882 153.5 375.071 153.5H369.435V151H374.98C376.23 151 377.234 150.784 377.991 150.352C378.749 149.92 379.298 149.337 379.639 148.602C379.988 147.86 380.162 147.023 380.162 146.091C380.162 145.159 379.988 144.326 379.639 143.591C379.298 142.856 378.745 142.28 377.98 141.864C377.215 141.439 376.2 141.227 374.935 141.227H369.98V162H367.162ZM387.474 138.727H390.838L398.747 158.045H399.02L406.929 138.727H410.293V162H407.656V144.318H407.429L400.156 162H397.611L390.338 144.318H390.111V162H387.474V138.727ZM415.943 162V138.727H429.989V141.227H418.761V149.091H429.261V151.591H418.761V159.5H430.17V162H415.943ZM453.523 138.727V162H450.795L438.114 143.727H437.886V162H435.068V138.727H437.795L450.523 157.045H450.75V138.727H453.523ZM457.889 141.227V138.727H475.344V141.227H468.026V162H465.207V141.227H457.889Z" fill="white"/>
</svg>
