<svg width="50" height="50" viewBox="0 0 50 50" fill="none" xmlns="http://www.w3.org/2000/svg">
<rect width="50" height="50" rx="25" fill="#092241"/>
<rect x="0.5" y="0.5" width="49" height="49" rx="24.5" stroke="#D7D7D7" stroke-opacity="0.3"/>
<path d="M25 34C28.3137 34 31 32.2091 31 30C31 27.7909 28.3137 26 25 26C21.6863 26 19 27.7909 19 30C19 32.2091 21.6863 34 25 34Z" stroke="white" stroke-width="1.5" stroke-linecap="round" stroke-linejoin="round"/>
<path d="M25 23C26.933 23 28.5 21.433 28.5 19.5C28.5 17.567 26.933 16 25 16C23.067 16 21.5 17.567 21.5 19.5C21.5 21.433 23.067 23 25 23Z" stroke="white" stroke-width="1.5" stroke-linecap="round" stroke-linejoin="round"/>
</svg>
