<svg width="48" height="49" viewBox="0 0 48 49" fill="none" xmlns="http://www.w3.org/2000/svg">
<path d="M5.72204 28.1463C5.30882 28.3401 5.12651 28.8282 5.31066 29.2454L7.19813 33.2972C7.29087 33.499 7.46004 33.6561 7.6681 33.7336C7.75925 33.7667 7.85593 33.7837 7.95312 33.7837C8.07475 33.7848 8.1948 33.7588 8.3054 33.7086L22.5661 27.0477L21.2745 40.5532C21.2495 40.819 21.3519 41.0804 21.5508 41.258C22.176 41.7755 22.9552 42.0702 23.7659 42.0968C23.9894 42.0965 24.2117 42.0684 24.4284 42.0132C25.5861 41.7111 26.4837 40.6795 27.0961 38.9176L32.708 22.3L43.8227 17.1154C47.0943 15.5889 48.7803 12.4935 47.6481 10.0775C47.0056 8.81471 45.7748 7.9557 44.3681 7.78731C42.805 7.55141 41.2076 7.79729 39.788 8.49239L26.9616 14.5068L13.1711 9.11288C11.4344 8.45876 10.0589 8.47557 9.09428 9.17198C8.28491 9.83608 7.8244 10.8343 7.8441 11.8812C7.85251 12.1468 7.98622 12.3924 8.20479 12.5442L17.4908 18.9277L12.1728 21.4444L3.25533 19.1791C2.88991 19.0893 2.50953 19.254 2.32433 19.5818L0.101656 23.583C-0.0136677 23.795 -0.0317937 24.0466 0.0520064 24.2731C0.135281 24.4998 0.312338 24.6792 0.537995 24.7659L7.13982 27.4924L5.72204 28.1463ZM9.56345 11.4619C9.61284 11.1073 9.79226 10.7844 10.067 10.5559C10.5454 10.2117 11.4178 10.2622 12.5837 10.6982L24.8647 15.4883L19.2609 18.1055L9.56345 11.4619ZM2.01409 23.5748L3.47363 20.9828L12.0551 23.1133C12.2401 23.16 12.4352 23.1424 12.6092 23.0634L40.5012 10.0357C41.61 9.48879 42.8589 9.28967 44.0831 9.46515C44.9416 9.54422 45.7063 10.0397 46.13 10.7905C46.834 12.3007 45.4501 14.5068 43.1095 15.5973L33.446 20.1275L34.0334 18.3905C34.1818 17.9437 33.9393 17.4608 33.4925 17.3127C33.0451 17.1645 32.5625 17.407 32.4144 17.8538L25.5104 38.3972C25.0993 39.5636 24.5876 40.26 24.0173 40.4105C23.6639 40.4786 23.2983 40.4092 22.9938 40.218L24.6716 22.6015C24.7155 22.1384 24.3758 21.7273 23.9122 21.6834C23.4491 21.639 23.0379 21.9792 22.9938 22.4423L22.734 25.135L8.33876 31.8458L7.15663 29.3292L9.52168 28.2222C9.82615 28.088 10.0224 27.7869 10.0224 27.4546C10.0224 27.122 9.82615 26.821 9.52168 26.687L2.01409 23.5748Z" fill="#6C8DAB"/>
</svg>
