<svg width="48" height="49" viewBox="0 0 48 49" fill="none" xmlns="http://www.w3.org/2000/svg">
<g clip-path="url(#clip0_926_60442)">
<path d="M23.9987 34.3201C24.9487 34.3201 25.8774 34.0384 26.6673 33.5106C27.4573 32.9828 28.0729 32.2326 28.4365 31.3548C28.8 30.4771 28.8951 29.5113 28.7097 28.5795C28.5244 27.6478 28.0669 26.7919 27.3951 26.1201C26.7233 25.4484 25.8673 24.9909 24.9355 24.8056C24.0038 24.6203 23.038 24.7155 22.1603 25.0791C21.2826 25.4427 20.5324 26.0585 20.0046 26.8484C19.4769 27.6384 19.1952 28.5671 19.1953 29.5171C19.1969 30.7905 19.7035 32.0113 20.604 32.9117C21.5044 33.8121 22.7253 34.3186 23.9987 34.3201ZM23.9987 26.0263C24.6891 26.0263 25.364 26.231 25.9381 26.6146C26.5122 26.9982 26.9596 27.5434 27.2238 28.1812C27.4881 28.8191 27.5572 29.521 27.4225 30.1982C27.2878 30.8753 26.9553 31.4973 26.4671 31.9856C25.9789 32.4738 25.3569 32.8062 24.6797 32.9409C24.0026 33.0756 23.3007 33.0065 22.6628 32.7423C22.0249 32.4781 21.4797 32.0306 21.0961 31.4566C20.7125 30.8825 20.5078 30.2076 20.5078 29.5171C20.5089 28.5916 20.877 27.7043 21.5315 27.0499C22.1859 26.3955 23.0732 26.0273 23.9987 26.0263Z" fill="#6C8DAB"/>
<path d="M37.8308 29.4772C37.8297 29.4551 37.8274 29.433 37.8241 29.4112C37.8201 29.3872 37.8146 29.3635 37.8076 29.3403C37.8046 29.3287 37.8034 29.317 37.7997 29.3054L35.1308 21.4638C35.0866 21.3341 35.003 21.2215 34.8916 21.1418C34.7802 21.062 34.6466 21.0192 34.5096 21.0192C34.3726 21.0192 34.2391 21.062 34.1277 21.1418C34.0163 21.2215 33.9326 21.3341 33.8884 21.4638L32.4968 25.5513V16.3094C32.4968 16.1354 32.4277 15.9684 32.3046 15.8454C32.1815 15.7223 32.0146 15.6532 31.8406 15.6532H30.4396L28.4521 9.94453V5.08078C28.4521 4.90673 28.3829 4.73981 28.2598 4.61674C28.1368 4.49367 27.9699 4.42453 27.7958 4.42453H25.8428C25.6688 4.42453 25.5018 4.49367 25.3788 4.61674C25.2557 4.73981 25.1866 4.90673 25.1866 5.08078V6.1169H24.6552V3.66553C24.6552 3.49148 24.586 3.32456 24.463 3.20149C24.3399 3.07842 24.173 3.00928 23.9989 3.00928C23.8249 3.00928 23.658 3.07842 23.5349 3.20149C23.4118 3.32456 23.3427 3.49148 23.3427 3.66553V6.1169H22.8109V5.08078C22.8109 4.90673 22.7418 4.73981 22.6187 4.61674C22.4957 4.49367 22.3287 4.42453 22.1547 4.42453H20.2009C20.0269 4.42463 19.8601 4.4938 19.737 4.61685C19.614 4.7399 19.5448 4.90676 19.5447 5.08078V9.94415L17.5572 15.6532H16.1573C15.9833 15.6533 15.8164 15.7224 15.6934 15.8455C15.5703 15.9685 15.5012 16.1354 15.5011 16.3094V25.5517L14.1094 21.4642C14.0653 21.3345 13.9816 21.2219 13.8702 21.1421C13.7588 21.0624 13.6252 21.0195 13.4883 21.0195C13.3513 21.0195 13.2177 21.0624 13.1063 21.1421C12.9949 21.2219 12.9112 21.3345 12.8671 21.4642L10.1989 29.3054C10.1948 29.3178 10.1937 29.3305 10.1903 29.3429C10.184 29.3649 10.1789 29.3872 10.1749 29.4097C10.1712 29.4329 10.1689 29.4563 10.1678 29.4798C10.1678 29.4922 10.1641 29.5042 10.1641 29.5173V46.9357C10.1641 47.1097 10.2332 47.2766 10.3563 47.3997C10.4793 47.5228 10.6463 47.5919 10.8203 47.5919H37.1791C37.2653 47.592 37.3506 47.575 37.4303 47.542C37.5099 47.5091 37.5823 47.4608 37.6432 47.3998C37.7042 47.3389 37.7525 47.2665 37.7855 47.1868C37.8184 47.1072 37.8354 47.0218 37.8353 46.9357V29.5169C37.8364 29.503 37.8316 29.4903 37.8308 29.4772ZM16.8136 22.3315H31.1843V36.7023H16.8136V22.3315ZM36.5239 36.7023H32.4968V30.1732H36.5239V36.7023ZM15.5029 36.7023H11.4758V30.1732H15.5011L15.5029 36.7023ZM11.4777 38.0148H15.5011V40.3972H11.4758L11.4777 38.0148ZM16.8154 38.0148H31.1843V40.3972H16.8136L16.8154 38.0148ZM32.4987 38.0148H36.5239V40.3972H32.4968L32.4987 38.0148ZM34.5113 23.7119L36.2614 28.8607H32.7571L34.5113 23.7119ZM31.1862 21.019H29.4053V16.9657H31.1843L31.1862 21.019ZM20.8572 5.73703H21.4984V6.77315C21.4985 6.94717 21.5677 7.11403 21.6908 7.23708C21.8138 7.36013 21.9807 7.4293 22.1547 7.4294H25.8428C26.0169 7.4294 26.1838 7.36026 26.3069 7.23719C26.4299 7.11412 26.4991 6.9472 26.4991 6.77315V5.73703H27.1407V9.4004H20.8572V5.73703ZM20.6674 10.7129H27.3304L29.0502 15.6532H28.7502C28.5761 15.6532 28.4092 15.7223 28.2861 15.8454C28.1631 15.9684 28.0939 16.1354 28.0939 16.3094V21.019H19.9051V16.3094C19.9051 16.1354 19.8359 15.9684 19.7129 15.8454C19.5898 15.7223 19.4229 15.6532 19.2488 15.6532H18.9488L20.6674 10.7129ZM18.0233 16.9657H18.5926V21.019H16.8136V16.9657H18.0233ZM13.4884 23.7119L15.2408 28.8607H11.7364L13.4884 23.7119ZM11.4758 41.7097H15.5011V46.279H11.4758V41.7097ZM16.8136 41.7097H31.1843V46.279H16.8136V41.7097ZM32.4968 46.279V41.7097H36.5239V46.279H32.4968Z" fill="#6C8DAB"/>
<path d="M23.5349 29.9805C23.5654 30.0112 23.599 30.0387 23.6351 30.0626C23.6516 30.0734 23.6692 30.081 23.6861 30.09C23.7061 30.1022 23.7269 30.1132 23.7483 30.123C23.7701 30.1311 23.7924 30.138 23.8151 30.1436C23.8333 30.15 23.8518 30.1555 23.8706 30.1601C23.9129 30.1687 23.956 30.1731 23.9992 30.1732H26.0534C26.2275 30.1732 26.3944 30.1041 26.5175 29.981C26.6405 29.8579 26.7097 29.691 26.7097 29.517C26.7097 29.3429 26.6405 29.176 26.5175 29.0529C26.3944 28.9298 26.2275 28.8607 26.0534 28.8607H24.2711L23.0107 27.6003C22.8869 27.4808 22.7212 27.4146 22.5491 27.416C22.3771 27.4175 22.2124 27.4865 22.0907 27.6081C21.969 27.7298 21.9 27.8944 21.8985 28.0664C21.8969 28.2385 21.963 28.4043 22.0826 28.5281L23.5349 29.9805Z" fill="#6C8DAB"/>
</g>
<defs>
<clipPath id="clip0_926_60442">
<rect width="48" height="48" fill="white" transform="translate(0 0.800293)"/>
</clipPath>
</defs>
</svg>
