<svg width="48" height="49" viewBox="0 0 48 49" fill="none" xmlns="http://www.w3.org/2000/svg">
<g clip-path="url(#clip0_926_60426)">
<path d="M23.25 2.40039H24.75V5.40039H23.25V2.40039Z" fill="#6C8DAB"/>
<path d="M23.25 20.4004H24.75V23.4004H23.25V20.4004Z" fill="#6C8DAB"/>
<path d="M23.25 26.4004H24.75V29.4004H23.25V26.4004Z" fill="#6C8DAB"/>
<path d="M23.25 32.4004H24.75V35.4004H23.25V32.4004Z" fill="#6C8DAB"/>
<path d="M23.25 38.4004H24.75V41.4004H23.25V38.4004Z" fill="#6C8DAB"/>
<path d="M23.25 44.4004H24.75V47.4004H23.25V44.4004Z" fill="#6C8DAB"/>
<path d="M45.75 17.4003C45.9489 17.4003 46.1397 17.3213 46.2803 17.1806C46.421 17.0399 46.5 16.8492 46.5 16.6503V9.15027C46.5 8.95136 46.421 8.76059 46.2803 8.61994C46.1397 8.47929 45.9489 8.40027 45.75 8.40027H36.807L35.9933 2.30127L34.5067 2.49927L35.2935 8.40027H33.807L32.9933 2.30127L31.5067 2.49927L32.2935 8.40027H15.7065L16.4932 2.49927L15.0068 2.30127L14.193 8.40027H12.7065L13.4932 2.49927L12.0068 2.30127L11.193 8.40027H2.25C2.05109 8.40027 1.86032 8.47929 1.71967 8.61994C1.57902 8.76059 1.5 8.95136 1.5 9.15027V16.6503C1.5 16.8492 1.57902 17.0399 1.71967 17.1806C1.86032 17.3213 2.05109 17.4003 2.25 17.4003H3V27.9003H1.5V29.4003H6V27.9003H4.5V17.4003H9.996L6.00675 47.3013L7.49325 47.4993L11.5095 17.4003H12.996L9.00675 47.3013L10.4932 47.4993L14.5095 17.4003H33.4905L37.5067 47.4993L38.9933 47.3013L35.004 17.4003H36.4905L40.5067 47.4993L41.9933 47.3013L38.004 17.4003H43.5V27.9003H42V29.4003H46.5V27.9003H45V17.4003H45.75ZM3 9.90027H45V15.9003H3V9.90027Z" fill="#6C8DAB"/>
<path d="M9 12.1504H15V13.6504H9V12.1504Z" fill="#6C8DAB"/>
<path d="M33 12.1504H39V13.6504H33V12.1504Z" fill="#6C8DAB"/>
<path d="M21 12.1504H27V13.6504H21V12.1504Z" fill="#6C8DAB"/>
</g>
<defs>
<clipPath id="clip0_926_60426">
<rect width="48" height="48" fill="white" transform="translate(0 0.400391)"/>
</clipPath>
</defs>
</svg>
