<svg width="48" height="48" viewBox="0 0 48 48" fill="none" xmlns="http://www.w3.org/2000/svg">
<path d="M2.39104 24.3075C2.32254 24.4028 2.27735 24.5128 2.25911 24.6288C2.24087 24.7447 2.2501 24.8633 2.28604 24.975L6.10354 36.975C6.15127 37.1268 6.24602 37.2594 6.3741 37.3538C6.50218 37.4482 6.65695 37.4994 6.81604 37.5H40.416C40.5684 37.5011 40.7175 37.4557 40.8434 37.37C40.9694 37.2842 41.0662 37.1621 41.121 37.02L45.696 25.02C45.7403 24.9058 45.7559 24.7826 45.7415 24.661C45.7271 24.5394 45.6832 24.4232 45.6135 24.3225C45.5446 24.2231 45.4527 24.1419 45.3456 24.0858C45.2385 24.0296 45.1195 24.0002 44.9985 24H44.2485V20.25C44.2485 20.0511 44.1695 19.8603 44.0289 19.7197C43.8882 19.579 43.6975 19.5 43.4985 19.5H31.4985C31.2996 19.5 31.1089 19.579 30.9682 19.7197C30.8276 19.8603 30.7485 20.0511 30.7485 20.25V24H29.9985V20.25C29.9985 20.0511 29.9195 19.8603 29.7789 19.7197C29.6382 19.579 29.4475 19.5 29.2485 19.5H17.2485C17.0496 19.5 16.8589 19.579 16.7182 19.7197C16.5776 19.8603 16.4985 20.0511 16.4985 20.25V24H8.99854V11.25H20.9985C21.1975 11.25 21.3882 11.171 21.5289 11.0303C21.6695 10.8897 21.7485 10.6989 21.7485 10.5V2.25C21.7485 2.05109 21.6695 1.86032 21.5289 1.71967C21.3882 1.57902 21.1975 1.5 20.9985 1.5H8.24854C8.04963 1.5 7.85886 1.57902 7.71821 1.71967C7.57756 1.86032 7.49854 2.05109 7.49854 2.25V24H2.99854C2.8802 23.9997 2.76347 24.0274 2.65788 24.0808C2.5523 24.1343 2.46086 24.212 2.39104 24.3075ZM8.99854 3H20.2485V9.75H8.99854V3ZM32.2485 21H42.7485V24H32.2485V21ZM17.9985 21H28.4985V24H17.9985V21ZM17.2485 25.5H43.911L39.8985 36H7.36354L4.02604 25.5H17.2485Z" fill="#6C8DAB"/>
<path d="M17.25 12.75C17.0511 12.75 16.8603 12.829 16.7197 12.9697C16.579 13.1103 16.5 13.3011 16.5 13.5V18C16.5 18.1989 16.579 18.3897 16.7197 18.5303C16.8603 18.671 17.0511 18.75 17.25 18.75H29.25C29.4489 18.75 29.6397 18.671 29.7803 18.5303C29.921 18.3897 30 18.1989 30 18V13.5C30 13.3011 29.921 13.1103 29.7803 12.9697C29.6397 12.829 29.4489 12.75 29.25 12.75H17.25ZM28.5 17.25H18V14.25H28.5V17.25Z" fill="#6C8DAB"/>
<path d="M31.5 18.75H43.5C43.6989 18.75 43.8897 18.671 44.0303 18.5303C44.171 18.3897 44.25 18.1989 44.25 18V13.5C44.25 13.3011 44.171 13.1103 44.0303 12.9697C43.8897 12.829 43.6989 12.75 43.5 12.75H31.5C31.3011 12.75 31.1103 12.829 30.9697 12.9697C30.829 13.1103 30.75 13.3011 30.75 13.5V18C30.75 18.1989 30.829 18.3897 30.9697 18.5303C31.1103 18.671 31.3011 18.75 31.5 18.75ZM32.25 14.25H42.75V17.25H32.25V14.25Z" fill="#6C8DAB"/>
<path d="M13.5742 43.41L14.9242 42.75C14.286 41.5526 13.3182 40.5631 12.1353 39.8986C10.9523 39.234 9.60381 38.9222 8.24922 39C7.01625 39.037 5.81587 39.4045 4.77356 40.0642C3.73126 40.7239 2.88533 41.6515 2.32422 42.75L3.67422 43.4025C4.12148 42.5571 4.78296 41.844 5.59245 41.3346C6.40194 40.8252 7.33103 40.5374 8.28672 40.5C9.35514 40.4213 10.4234 40.6544 11.362 41.1709C12.3005 41.6874 13.069 42.4652 13.5742 43.41Z" fill="#6C8DAB"/>
<path d="M15.3967 46.5002H15.7867C17.0132 46.4566 18.2058 46.0859 19.2409 45.4266C20.2761 44.7673 21.1162 43.8432 21.6742 42.7502L20.3242 42.0977C19.8801 42.9377 19.2245 43.6474 18.4221 44.1564C17.6198 44.6655 16.6984 44.9563 15.7492 45.0002C14.688 45.0702 13.629 44.8339 12.6983 44.3193C11.7675 43.8048 11.0042 43.0336 10.4992 42.0977L9.07422 42.7502C9.67852 43.8985 10.5893 44.8569 11.7054 45.5189C12.8215 46.1809 14.0992 46.5205 15.3967 46.5002Z" fill="#6C8DAB"/>
<path d="M37.5758 43.41L38.9258 42.75C38.2876 41.5526 37.3198 40.5631 36.1368 39.8986C34.9539 39.234 33.6054 38.9222 32.2508 39C31.0243 39.0436 29.8317 39.4142 28.7966 40.0735C27.7614 40.7329 26.9213 41.6569 26.3633 42.75L27.7133 43.4025C28.1574 42.5624 28.813 41.8528 29.6154 41.3437C30.4177 40.8347 31.3391 40.5438 32.2883 40.5C33.3567 40.4213 34.425 40.6544 35.3636 41.1709C36.3021 41.6874 37.0706 42.4652 37.5758 43.41Z" fill="#6C8DAB"/>
<path d="M39.3967 46.5002H39.7867C41.0132 46.4566 42.2058 46.0859 43.2409 45.4266C44.2761 44.7673 45.1162 43.8432 45.6742 42.7502L44.3242 42.0977C43.8801 42.9377 43.2245 43.6474 42.4221 44.1564C41.6198 44.6655 40.6984 44.9563 39.7492 45.0002C38.6819 45.0776 37.6149 44.8449 36.6768 44.3299C35.7386 43.8149 34.9694 43.0397 34.4617 42.0977L33.0742 42.7502C33.6785 43.8985 34.5893 44.8569 35.7054 45.5189C36.8215 46.1809 38.0992 46.5205 39.3967 46.5002Z" fill="#6C8DAB"/>
<path d="M10.5 4.5H18V6H10.5V4.5Z" fill="#6C8DAB"/>
<path d="M10.5 7.5H18V9H10.5V7.5Z" fill="#6C8DAB"/>
</svg>
