<svg width="60" height="60" viewBox="0 0 60 60" fill="none" xmlns="http://www.w3.org/2000/svg">
<g clip-path="url(#clip0_1485_9922)">
<path d="M33.6211 29.6464L33.2676 30L33.6211 30.3536L46.2165 42.9489C46.6501 43.3826 46.8938 43.9708 46.8938 44.5841C46.8938 45.1974 46.6501 45.7856 46.2165 46.2193C45.7828 46.6529 45.1946 46.8966 44.5813 46.8966C43.968 46.8966 43.3798 46.6529 42.9461 46.2193L30.3507 33.6239L29.9972 33.2704L29.6436 33.6239L17.0483 46.2193C16.6146 46.6529 16.0264 46.8966 15.4131 46.8966C14.7998 46.8966 14.2116 46.6529 13.7779 46.2193C13.3443 45.7856 13.1006 45.1974 13.1006 44.5841C13.1006 43.9708 13.3443 43.3826 13.7779 42.9489L26.3733 30.3536L26.7268 30L26.3733 29.6464L13.7779 17.0511C13.3443 16.6174 13.1006 16.0292 13.1006 15.4159C13.1006 14.8026 13.3443 14.2144 13.7779 13.7807C14.2116 13.3471 14.7998 13.1034 15.4131 13.1034C16.0264 13.1034 16.6146 13.3471 17.0483 13.7807L29.6436 26.3761L29.9972 26.7296L30.3507 26.3761L42.9461 13.7807C43.3798 13.3471 43.968 13.1034 44.5813 13.1034C45.1946 13.1034 45.7828 13.3471 46.2165 13.7807C46.6501 14.2144 46.8938 14.8026 46.8938 15.4159C46.8938 16.0292 46.6501 16.6174 46.2165 17.0511L33.6211 29.6464Z" fill="#E30613" stroke="#F5F0FA"/>
</g>
<defs>
<clipPath id="clip0_1485_9922">
<rect width="60" height="60" fill="white"/>
</clipPath>
</defs>
</svg>
