<svg width="37" height="36" viewBox="0 0 37 36" fill="none" xmlns="http://www.w3.org/2000/svg">
<path d="M18.5088 6.14842C22.519 6.14842 22.9938 6.16536 24.5709 6.23313C26.0366 6.29525 26.8281 6.53245 27.3558 6.73011C28.0534 6.9899 28.5576 7.30616 29.0794 7.80878C29.6071 8.31706 29.9295 8.7971 30.1992 9.46915C30.4044 9.97742 30.6507 10.7455 30.7152 12.1517C30.7855 13.6765 30.8031 14.134 30.8031 17.9912C30.8031 21.8541 30.7855 22.3116 30.7152 23.8307C30.6507 25.2426 30.4044 26.005 30.1992 26.5133C29.9295 27.1854 29.6012 27.671 29.0794 28.1737C28.5518 28.6819 28.0534 28.9926 27.3558 29.2523C26.8281 29.45 26.0308 29.6872 24.5709 29.7493C22.988 29.8171 22.5131 29.834 18.5088 29.834C14.4986 29.834 14.0237 29.8171 12.4466 29.7493C10.9809 29.6872 10.1895 29.45 9.66181 29.2523C8.96414 28.9926 8.45994 28.6763 7.93815 28.1737C7.41049 27.6654 7.08804 27.1854 6.81835 26.5133C6.61315 26.005 6.36691 25.237 6.30242 23.8307C6.23207 22.3059 6.21448 21.8485 6.21448 17.9912C6.21448 14.1283 6.23207 13.6709 6.30242 12.1517C6.36691 10.7398 6.61315 9.97742 6.81835 9.46915C7.08804 8.7971 7.41636 8.31141 7.93815 7.80878C8.4658 7.30051 8.96414 6.9899 9.66181 6.73011C10.1895 6.53245 10.9868 6.29525 12.4466 6.23313C14.0237 6.16536 14.4986 6.14842 18.5088 6.14842ZM18.5088 3.54492C14.4341 3.54492 13.9241 3.56186 12.3235 3.62963C10.7288 3.6974 9.6325 3.94589 8.68272 4.30169C7.69191 4.67442 6.85353 5.16575 6.02101 5.97335C5.18263 6.77529 4.67256 7.58288 4.28562 8.53166C3.91626 9.45221 3.6583 10.5026 3.58794 12.0388C3.51759 13.5862 3.5 14.0775 3.5 18.0025C3.5 21.9275 3.51759 22.4189 3.58794 23.9606C3.6583 25.4968 3.91626 26.5528 4.28562 27.4677C4.67256 28.4222 5.18263 29.2298 6.02101 30.0317C6.85353 30.8336 7.69191 31.3306 8.67686 31.6977C9.6325 32.0535 10.723 32.302 12.3177 32.3698C13.9182 32.4375 14.4283 32.4545 18.5029 32.4545C22.5776 32.4545 23.0876 32.4375 24.6882 32.3698C26.2829 32.302 27.3792 32.0535 28.329 31.6977C29.314 31.3306 30.1523 30.8336 30.9849 30.0317C31.8174 29.2298 32.3333 28.4222 32.7144 27.4734C33.0837 26.5528 33.3417 25.5024 33.4121 23.9663C33.4824 22.4245 33.5 21.9332 33.5 18.0082C33.5 14.0832 33.4824 13.5918 33.4121 12.0501C33.3417 10.5139 33.0837 9.45785 32.7144 8.54296C32.345 7.58288 31.835 6.77529 30.9966 5.97335C30.1641 5.1714 29.3257 4.67442 28.3407 4.30733C27.3851 3.95154 26.2946 3.70305 24.6999 3.63528C23.0935 3.56186 22.5834 3.54492 18.5088 3.54492Z" fill="#6C8DAB"/>
<path d="M18.5104 10.5742C14.254 10.5742 10.8008 13.9006 10.8008 18.0007C10.8008 22.1008 14.254 25.4271 18.5104 25.4271C22.7668 25.4271 26.22 22.1008 26.22 18.0007C26.22 13.9006 22.7668 10.5742 18.5104 10.5742ZM18.5104 22.818C15.749 22.818 13.5094 20.6607 13.5094 18.0007C13.5094 15.3407 15.749 13.1834 18.5104 13.1834C21.2718 13.1834 23.5114 15.3407 23.5114 18.0007C23.5114 20.6607 21.2718 22.818 18.5104 22.818Z" fill="#6C8DAB"/>
<path d="M28.3244 10.2826C28.3244 11.2427 27.5153 12.0164 26.5245 12.0164C25.5278 12.0164 24.7246 11.237 24.7246 10.2826C24.7246 9.32254 25.5337 8.54883 26.5245 8.54883C27.5153 8.54883 28.3244 9.32818 28.3244 10.2826Z" fill="#6C8DAB"/>
</svg>
